#N canvas 92 40 363 666 10;
#X obj 74 634 dac~;
#X floatatom 74 389 5 0 0 0 freq_in_hz - -;
#X obj 74 510 osc~;
#X obj 119 568 line~;
#X obj 74 590 *~;
#X msg 163 527 0 10;
#X msg 119 528 1 10;
#X obj 74 307 bng 15 250 50 0 empty empty empty 17 7 0 10 -262144 -1
-1;
#X obj 113 307 bng 15 250 50 0 empty empty empty 17 7 0 10 -262144
-1 -1;
#X obj 74 22 tgl 30 0 empty empty go 17 7 0 10 -191407 -4034 -1 0 1
;
#X obj 163 474 delay 200;
#X obj 163 503 bng 15 250 50 0 empty empty empty 17 7 0 10 -262144
-1 -1;
#X obj 119 503 bng 15 250 50 0 empty empty empty 17 7 0 10 -262144
-1 -1;
#X floatatom 214 448 5 0 0 1 note_len_in_ms - -;
#X obj 128 37 hsl 128 15 100 1000 0 0 empty empty tempo_in_ms -2 -8
0 10 -262144 -1 -1 5900 1;
#X floatatom 125 61 5 0 0 0 - - -;
#X obj 74 115 bng 15 250 50 0 empty empty empty 17 7 0 10 -262144 -1
-1;
#X obj 74 274 select 0 1 2 3;
#X obj 156 307 bng 15 250 50 0 empty empty empty 17 7 0 10 -262144
-1 -1;
#X obj 198 307 bng 15 250 50 0 empty empty empty 17 7 0 10 -262144
-1 -1;
#X floatatom 74 241 5 0 0 1 sequence_index - -;
#X text 253 205 <--- subpatch;
#X text 111 631 sound out;
#X obj 74 427 t f b b;
#X text 13 509 sine wave;
#X text 162 571 line to control the amplitude;
#N canvas 566 216 478 324 random 0;
#X obj 74 43 inlet;
#X obj 98 276 outlet;
#X obj 74 85 random 4;
#X obj 47 163 sel 0;
#X obj 98 220 f;
#X msg 74 187 bang;
#X obj 74 118 t f f f;
#X obj 20 85 t b;
#X text 124 41 a bang comes in;
#X text 147 275 a sequence index goes out;
#X text 133 84 makes a random int 0-3 when banged;
#X text 127 149 this part checks if the number is the same as the last
number and bangs random again if so;
#X text 127 183 this way we don't have repeats;
#X connect 0 0 2 0;
#X connect 2 0 6 0;
#X connect 3 0 7 0;
#X connect 3 1 5 0;
#X connect 4 0 1 0;
#X connect 5 0 4 0;
#X connect 6 0 3 1;
#X connect 6 1 3 0;
#X connect 6 2 4 1;
#X connect 7 0 2 0;
#X restore 153 203 pd random seq;
#X obj 74 176 mycounter;
#X obj 74 85 metro 500;
#X obj 74 142 demux 0 1;
#X obj 125 117 tgl 15 0 empty empty use_random_seq? 17 7 0 10 -262144
-1 -1 0 1;
#X msg 74 343 220;
#X msg 113 343 320;
#X msg 156 344 440;
#X msg 198 344 880;
#X text 185 273 a simple 4 note sequence;
#X text 156 175 <-- abstraction;
#X connect 1 0 23 0;
#X connect 2 0 4 0;
#X connect 3 0 4 1;
#X connect 4 0 0 0;
#X connect 4 0 0 1;
#X connect 5 0 3 0;
#X connect 6 0 3 0;
#X connect 7 0 31 0;
#X connect 8 0 32 0;
#X connect 9 0 28 0;
#X connect 10 0 11 0;
#X connect 11 0 5 0;
#X connect 12 0 6 0;
#X connect 13 0 10 1;
#X connect 14 0 15 0;
#X connect 15 0 28 1;
#X connect 16 0 29 0;
#X connect 17 0 7 0;
#X connect 17 1 8 0;
#X connect 17 2 18 0;
#X connect 17 3 19 0;
#X connect 18 0 33 0;
#X connect 19 0 34 0;
#X connect 20 0 17 0;
#X connect 23 0 2 0;
#X connect 23 1 12 0;
#X connect 23 2 10 0;
#X connect 26 0 20 0;
#X connect 27 0 20 0;
#X connect 28 0 16 0;
#X connect 29 0 27 0;
#X connect 29 1 26 0;
#X connect 30 0 29 1;
#X connect 31 0 1 0;
#X connect 32 0 1 0;
#X connect 33 0 1 0;
#X connect 34 0 1 0;
