#N canvas 140 115 333 297 10;
#X obj 43 118 float 0;
#X msg 147 84 0;
#X obj 43 166 trigger f f;
#X obj 63 212 sel 3;
#X obj 43 41 inlet;
#X obj 43 254 outlet;
#X obj 147 53 inlet;
#X text 102 254 numbers coming out;
#X obj 134 118 + 1;
#X text 40 18 left inlet bang for +1;
#X text 191 50 right bang to reset;
#X connect 0 0 2 0;
#X connect 1 0 0 1;
#X connect 2 0 3 0;
#X connect 2 0 5 0;
#X connect 2 1 8 0;
#X connect 3 0 1 0;
#X connect 4 0 0 0;
#X connect 6 0 1 0;
#X connect 8 0 0 1;
