#N canvas 144 69 1070 501 10;
#X obj 22 430 dac~;
#X obj 541 361 synth;
#X obj 22 363 synth;
#X obj 22 38 pacer;
#X obj 22 210 sequencer;
#X obj 541 210 sequencer;
#X obj 541 107 unpackOSC;
#X obj 541 139 routeOSC /pacer;
#X floatatom 541 173 5 0 0 0 - - -, f 5;
#X obj 541 76 mrpeach/udpreceive 8888 239.200.200.200;
#N canvas 373 207 562 436 send 0;
#X obj 149 135 inlet;
#X msg 113 220 send /pacer \$1;
#X obj 179 359 mrpeach/udpsend;
#X obj 308 126 tgl 15 0 empty empty multicast 17 7 0 10 -262144 -1
-1 0 1;
#X obj 308 183 sel 1 0;
#X msg 327 244 disconnect;
#X obj 113 195 spigot;
#X msg 308 215 connect 239.200.200.200 8888;
#X obj 316 325 spigot;
#X msg 349 289 1;
#X msg 404 289 0;
#X obj 416 246 loadbang;
#X obj 316 359 outlet;
#X obj 113 249 mrpeach/packOSC;
#X connect 0 0 6 0;
#X connect 0 0 8 0;
#X connect 1 0 13 0;
#X connect 3 0 4 0;
#X connect 3 0 6 1;
#X connect 4 0 7 0;
#X connect 4 0 10 0;
#X connect 4 1 5 0;
#X connect 4 1 9 0;
#X connect 5 0 2 0;
#X connect 6 0 1 0;
#X connect 7 0 2 0;
#X connect 8 0 12 0;
#X connect 9 0 8 1;
#X connect 10 0 8 1;
#X connect 11 0 9 0;
#X connect 13 0 2 0;
#X coords 0 -1 1 1 85 60 1 300 100;
#X restore 22 132 pd send;
#X text 539 16 receive sequence over the network via multicast;
#X text 21 12 sequence position metronome;
#X obj 430 424 recorder output.wav;
#X msg 947 111 \; pd dsp 1;
#X obj 947 79 loadbang;
#X text 569 427 record steroeo audio to output.wav;
#X text 118 147 optionally send sequence pos over the network to other
computers running this patch;
#X text 539 35 you might need to use your own router as multicast is
often blocked on institutional networks (business \, college \, etc)
;
#X text 107 350 8 step sequencer: top = pitch \, buttom = velocity
;
#X connect 1 0 0 1;
#X connect 1 0 13 1;
#X connect 2 0 0 0;
#X connect 2 0 13 0;
#X connect 3 0 10 0;
#X connect 4 0 2 0;
#X connect 5 0 1 0;
#X connect 6 0 7 0;
#X connect 7 0 8 0;
#X connect 8 0 5 0;
#X connect 9 0 6 0;
#X connect 10 0 4 0;
#X connect 10 0 5 0;
#X connect 15 0 14 0;
