#N canvas 732 58 503 436 16;
#X obj 61 191 osc~;
#X obj 61 315 *~;
#X obj 265 281 line~;
#X obj 61 81 unpack f f;
#X obj 61 124 mtof;
#X obj 158 197 delay 200;
#X msg 158 235 0 200;
#X obj 158 120 / 127;
#X obj 158 154 trigger b f;
#X msg 265 197 \$1 50;
#X obj 61 25 inlet;
#X obj 61 377 outlet~;
#X text 139 26 midi note messages in;
#X text 152 377 audio signal out;
#X connect 0 0 1 0;
#X connect 1 0 11 0;
#X connect 2 0 1 1;
#X connect 3 0 4 0;
#X connect 3 1 7 0;
#X connect 4 0 0 0;
#X connect 5 0 6 0;
#X connect 6 0 2 0;
#X connect 7 0 8 0;
#X connect 8 0 5 0;
#X connect 8 1 9 0;
#X connect 9 0 2 0;
#X connect 10 0 3 0;
