#N canvas 699 153 403 201 10;
#X declare -path ../externals/rc-patches/extra -path ../externals/rc-patches/rc
-path ../externals/rc-patches/rc-patches;
#X declare -path ../externals/rjlib/rj -path ../externals/pd;
#X obj 21 171 dac~;
#X obj 21 43 tgl 15 0 empty empty empty 0 -6 0 8 -262144 -1 -1 0 1
;
#X obj 21 115 sel 0 1 2 3 4 5 6 7 8 9 10 11 12 13 14 15;
#X obj 21 67 metro 160;
#X obj 21 91 random 16;
#X obj 75 43 hsl 128 15 50 400 0 0 empty empty empty -2 -6 0 8 -44926
-1 -1 0 1;
#X msg 312 89 \; pd dsp 1;
#X obj 312 62 loadbang;
#X text 305 39 turn on dsp;
#X text 257 141 <-- look inside;
#N canvas 123 580 969 289 ------------------------drumsynth 0;
#N canvas 0 22 518 471 clap 0;
#X obj 189 66 noise~;
#X obj 336 325 *~;
#X obj 151 310 *~;
#X obj 167 250 *~ 0.8;
#X obj 148 343 *~ 0.2;
#X obj 376 145 del 30;
#X obj 377 165 del 20;
#X obj 378 185 del 15;
#X obj 376 206 del 10;
#X obj 63 217 *~ 0.1;
#X obj 85 147 bp~ 1300 10;
#X obj 253 147 bp~ 700 10;
#X obj 175 147 bp~ 2500 4;
#X obj 336 369 bp~ 2700 2;
#X obj 3 147 lop~ 8000;
#X obj 188 106 hip~ 300;
#X obj 322 11 inlet;
#X obj 322 40 t b;
#X obj 339 415 outlet~;
#X obj 339 390 *~ 0.7;
#X obj 423 419 switch~;
#X obj 422 367 env~;
#X obj 423 392 > 1;
#X msg 454 393 1;
#X obj 169 284 c_ead 1 800;
#X obj 336 292 c_ead 3 50;
#X connect 0 0 14 0;
#X connect 0 0 15 0;
#X connect 1 0 13 0;
#X connect 2 0 1 1;
#X connect 2 0 4 0;
#X connect 3 0 2 1;
#X connect 4 0 13 0;
#X connect 5 0 6 0;
#X connect 5 0 25 0;
#X connect 6 0 7 0;
#X connect 6 0 25 0;
#X connect 7 0 8 0;
#X connect 7 0 25 0;
#X connect 8 0 25 0;
#X connect 9 0 3 0;
#X connect 10 0 3 0;
#X connect 11 0 3 0;
#X connect 12 0 3 0;
#X connect 13 0 19 0;
#X connect 14 0 9 0;
#X connect 15 0 10 0;
#X connect 15 0 11 0;
#X connect 15 0 12 0;
#X connect 16 0 17 0;
#X connect 17 0 5 0;
#X connect 17 0 23 0;
#X connect 17 0 24 0;
#X connect 17 0 25 0;
#X connect 19 0 18 0;
#X connect 19 0 21 0;
#X connect 21 0 22 0;
#X connect 22 0 20 0;
#X connect 23 0 20 0;
#X connect 24 0 2 0;
#X connect 25 0 1 0;
#X restore 285 76 pd clap;
#N canvas 0 22 450 300 bongol 0;
#X obj 143 93 noise~;
#X obj 195 66 osc~ 420;
#X obj 194 120 clip~ -0.9 0.9;
#X obj 102 68 inlet;
#X obj 102 97 t b;
#X obj 187 185 *~;
#X obj 195 93 *~ 20;
#X obj 194 144 bp~ 400 25;
#X obj 187 227 outlet~;
#X obj 187 206 *~ 0.6;
#X obj 263 233 switch~;
#X obj 262 181 env~;
#X obj 263 206 > 1;
#X msg 294 207 1;
#X obj 103 142 c_ead 3 150;
#X connect 0 0 2 0;
#X connect 1 0 6 0;
#X connect 2 0 7 0;
#X connect 3 0 4 0;
#X connect 4 0 13 0;
#X connect 4 0 14 0;
#X connect 5 0 9 0;
#X connect 6 0 2 0;
#X connect 7 0 5 1;
#X connect 9 0 8 0;
#X connect 9 0 11 0;
#X connect 11 0 12 0;
#X connect 12 0 10 0;
#X connect 13 0 10 0;
#X connect 14 0 5 0;
#X restore 215 77 pd bongol;
#N canvas 365 35 450 300 bongoh 0;
#X obj 143 93 noise~;
#X obj 194 120 clip~ -0.9 0.9;
#X obj 102 68 inlet;
#X obj 102 97 t b;
#X obj 187 185 *~;
#X obj 195 93 *~ 20;
#X obj 187 227 outlet~;
#X obj 194 144 bp~ 600 25;
#X obj 195 66 osc~ 660;
#X obj 186 205 *~ 0.7;
#X obj 264 267 switch~;
#X obj 263 215 env~;
#X obj 264 240 > 1;
#X msg 295 241 1;
#X obj 103 142 c_ead 3 120;
#X connect 0 0 1 0;
#X connect 1 0 7 0;
#X connect 2 0 3 0;
#X connect 3 0 13 0;
#X connect 3 0 14 0;
#X connect 4 0 9 0;
#X connect 5 0 1 0;
#X connect 7 0 4 1;
#X connect 8 0 5 0;
#X connect 9 0 6 0;
#X connect 9 0 11 0;
#X connect 11 0 12 0;
#X connect 12 0 10 0;
#X connect 13 0 10 0;
#X connect 14 0 4 0;
#X restore 147 77 pd bongoh;
#N canvas 0 22 464 324 kick 0;
#X obj 129 190 osc~ 200;
#X obj 129 221 *~;
#X obj 195 191 sqrt~;
#X obj 128 133 *~ 15;
#X obj 128 157 +~ 70;
#X obj 128 242 *~ 0.5;
#X msg 193 143 0;
#X obj 129 106 *~;
#X obj 129 12 inlet;
#X obj 129 37 t b;
#X obj 127 264 outlet~;
#X obj 206 311 switch~;
#X obj 205 259 env~;
#X obj 206 284 > 1;
#X msg 237 285 1;
#X obj 129 65 c_ead 2 800;
#X connect 0 0 1 0;
#X connect 1 0 5 0;
#X connect 2 0 1 1;
#X connect 3 0 4 0;
#X connect 4 0 0 0;
#X connect 5 0 10 0;
#X connect 5 0 12 0;
#X connect 6 0 0 1;
#X connect 7 0 3 0;
#X connect 8 0 9 0;
#X connect 9 0 6 0;
#X connect 9 0 14 0;
#X connect 9 0 15 0;
#X connect 12 0 13 0;
#X connect 13 0 11 0;
#X connect 14 0 11 0;
#X connect 15 0 2 0;
#X connect 15 0 7 0;
#X connect 15 0 7 1;
#X restore 15 77 pd kick;
#N canvas 0 22 722 561 cym 0;
#X obj 140 26 inlet;
#X obj 140 51 t b;
#X obj 202 400 outlet~;
#X obj 83 181 *~;
#X obj 230 183 *~;
#X obj 150 213 *~;
#X obj 139 265 +~;
#X obj 150 300 osc~ 5435;
#X obj 78 238 sig~ 3435;
#X obj 150 236 *~ 12000;
#X obj 23 144 osc~ 6221;
#X obj 98 144 osc~ 4409;
#X obj 172 143 osc~ 3383;
#X obj 248 142 osc~ 2441;
#X obj 228 235 noise~;
#X obj 180 328 +~;
#X obj 228 256 bp~ 9000 12;
#X obj 230 299 clip~ -0.7 0.7;
#X obj 180 354 *~;
#X obj 235 352 *~;
#X obj 176 374 *~ 0.05;
#X obj 245 373 *~ 0.05;
#X obj 310 401 switch~;
#X obj 309 349 env~;
#X obj 310 374 > 1;
#X msg 341 375 1;
#X obj 139 79 c_ead 2 8000;
#X obj 157 107 c_ead 2 100;
#X connect 0 0 1 0;
#X connect 1 0 25 0;
#X connect 1 0 26 0;
#X connect 1 0 27 0;
#X connect 3 0 5 0;
#X connect 4 0 5 1;
#X connect 5 0 9 0;
#X connect 6 0 7 0;
#X connect 7 0 15 0;
#X connect 8 0 6 0;
#X connect 9 0 6 1;
#X connect 10 0 3 0;
#X connect 11 0 3 1;
#X connect 12 0 4 0;
#X connect 13 0 4 1;
#X connect 14 0 16 0;
#X connect 15 0 18 0;
#X connect 15 0 19 0;
#X connect 16 0 17 0;
#X connect 17 0 15 1;
#X connect 18 0 20 0;
#X connect 19 0 21 0;
#X connect 20 0 2 0;
#X connect 20 0 23 0;
#X connect 21 0 2 0;
#X connect 21 0 23 0;
#X connect 23 0 24 0;
#X connect 24 0 22 0;
#X connect 25 0 22 0;
#X connect 26 0 18 1;
#X connect 27 0 19 1;
#X restore 350 76 pd cym;
#N canvas 0 22 783 776 snr 0;
#X obj 173 494 outlet~;
#X obj 100 65 inlet;
#X obj 207 131 noise~;
#X obj 99 86 t b;
#X obj 95 215 osc~;
#X obj 161 337 *~;
#X obj 189 204 *~;
#X obj 174 361 *~;
#X obj 231 329 *~;
#X obj 75 137 *~;
#X obj 129 359 *~;
#X obj 75 162 *~ 12;
#X msg 158 64 bang;
#X obj 168 391 clip~ 0 1;
#X obj 95 238 clip~ -0.8 0.8;
#X obj 227 353 *~ 0.1;
#X obj 169 412 *~ 0.4;
#X obj 115 396 *~ 0.9;
#X obj 207 155 bp~ 3300 0.5;
#X obj 207 179 lop~ 7000;
#X obj 173 465 bp~ 8000 1;
#X obj 134 300 clip~ -0.9 0.9;
#X obj 132 278 *~ 10000;
#X obj 76 191 +~ 150;
#X obj 174 436 *~ 0.35;
#X obj 252 507 switch~;
#X obj 251 455 env~;
#X obj 252 480 > 1;
#X msg 283 481 1;
#X obj 101 107 c_ead 1 300;
#X connect 1 0 3 0;
#X connect 2 0 18 0;
#X connect 3 0 28 0;
#X connect 3 0 29 0;
#X connect 4 0 14 0;
#X connect 5 0 7 0;
#X connect 6 0 7 1;
#X connect 7 0 13 0;
#X connect 8 0 15 0;
#X connect 9 0 10 1;
#X connect 9 0 11 0;
#X connect 10 0 17 0;
#X connect 11 0 23 0;
#X connect 12 0 3 0;
#X connect 13 0 16 0;
#X connect 14 0 10 0;
#X connect 14 0 22 0;
#X connect 15 0 24 0;
#X connect 16 0 24 0;
#X connect 17 0 24 0;
#X connect 18 0 8 0;
#X connect 18 0 19 0;
#X connect 19 0 6 1;
#X connect 20 0 0 0;
#X connect 20 0 26 0;
#X connect 21 0 5 0;
#X connect 22 0 21 0;
#X connect 23 0 4 0;
#X connect 24 0 20 0;
#X connect 26 0 27 0;
#X connect 27 0 25 0;
#X connect 28 0 25 0;
#X connect 29 0 5 1;
#X connect 29 0 6 0;
#X connect 29 0 9 0;
#X connect 29 0 9 1;
#X connect 29 0 8 1;
#X restore 80 77 pd snr;
#N canvas 0 22 575 582 bell 0;
#X obj 155 103 wrap~;
#X obj 138 76 -~ 0.5;
#X obj 154 127 -~ 0.5;
#X obj 138 153 -~;
#X obj 172 278 wrap~;
#X obj 155 255 -~ 0.5;
#X obj 171 303 -~ 0.5;
#X obj 155 327 -~;
#X obj 138 350 *~;
#X obj 96 442 outlet~;
#X obj 154 232 phasor~;
#X obj 228 32 t b;
#X obj 218 7 inlet;
#X obj 96 386 *~;
#X obj 56 103 wrap~;
#X obj 39 76 -~ 0.5;
#X obj 55 127 -~ 0.5;
#X obj 39 153 -~;
#X obj 73 278 wrap~;
#X obj 56 255 -~ 0.5;
#X obj 72 303 -~ 0.5;
#X obj 56 327 -~;
#X obj 39 350 *~;
#X obj 55 232 phasor~;
#X obj 39 53 phasor~ 2139;
#X obj 138 53 phasor~ 441;
#X obj 60 29 *~ 1.33;
#X obj 154 179 *~ 1000;
#X obj 55 179 *~ 1000;
#X obj 95 407 *~ 0.25;
#X obj 101 10 sig~ 881;
#X obj 54 207 +~ 1763;
#X obj 153 207 +~ 884;
#X obj 178 459 switch~;
#X obj 177 407 env~;
#X obj 178 432 > 1;
#X msg 209 433 1;
#X obj 228 57 c_ead 1 300;
#X connect 0 0 2 0;
#X connect 1 0 0 0;
#X connect 1 0 3 0;
#X connect 2 0 3 1;
#X connect 3 0 8 0;
#X connect 3 0 27 0;
#X connect 4 0 6 0;
#X connect 5 0 4 0;
#X connect 5 0 7 0;
#X connect 6 0 7 1;
#X connect 7 0 8 1;
#X connect 8 0 13 0;
#X connect 10 0 5 0;
#X connect 11 0 36 0;
#X connect 11 0 37 0;
#X connect 12 0 11 0;
#X connect 13 0 29 0;
#X connect 14 0 16 0;
#X connect 15 0 14 0;
#X connect 15 0 17 0;
#X connect 16 0 17 1;
#X connect 17 0 22 0;
#X connect 17 0 28 0;
#X connect 18 0 20 0;
#X connect 19 0 18 0;
#X connect 19 0 21 0;
#X connect 20 0 21 1;
#X connect 21 0 22 1;
#X connect 22 0 13 0;
#X connect 23 0 19 0;
#X connect 24 0 15 0;
#X connect 25 0 1 0;
#X connect 26 0 24 0;
#X connect 27 0 32 0;
#X connect 28 0 31 0;
#X connect 29 0 9 0;
#X connect 29 0 34 0;
#X connect 30 0 25 0;
#X connect 30 0 26 0;
#X connect 31 0 23 0;
#X connect 32 0 10 0;
#X connect 34 0 35 0;
#X connect 35 0 33 0;
#X connect 36 0 33 0;
#X connect 37 0 13 1;
#X restore 415 76 pd bell;
#N canvas 0 22 722 561 hat 0;
#X obj 140 26 inlet;
#X obj 140 51 t b;
#X obj 202 400 outlet~;
#X obj 83 181 *~;
#X obj 230 183 *~;
#X obj 150 213 *~;
#X obj 139 265 +~;
#X obj 150 300 osc~ 5435;
#X obj 150 236 *~ 12000;
#X obj 23 144 osc~ 6221;
#X obj 248 142 osc~ 2441;
#X obj 228 235 noise~;
#X obj 180 328 +~;
#X obj 230 299 clip~ -0.7 0.7;
#X obj 180 354 *~;
#X obj 235 352 *~;
#X obj 245 373 *~ 0.06;
#X obj 177 374 *~ 0.06;
#X obj 78 238 sig~ 7435;
#X obj 228 256 bp~ 12000 12;
#X obj 172 143 osc~ 3283;
#X obj 98 144 osc~ 4109;
#X obj 245 101 sqrt~;
#X obj 226 25 inlet;
#X obj 227 51 t b;
#X obj 322 401 switch~;
#X obj 321 349 env~;
#X obj 322 374 > 1;
#X msg 353 375 1;
#X obj 246 77 c_ead 2 800;
#X obj 139 79 c_ead 2 200;
#X obj 157 107 c_ead 2 100;
#X connect 0 0 1 0;
#X connect 1 0 28 0;
#X connect 1 0 30 0;
#X connect 1 0 31 0;
#X connect 3 0 5 0;
#X connect 4 0 5 1;
#X connect 5 0 8 0;
#X connect 6 0 7 0;
#X connect 7 0 12 0;
#X connect 8 0 6 1;
#X connect 9 0 3 0;
#X connect 10 0 4 1;
#X connect 11 0 19 0;
#X connect 12 0 14 0;
#X connect 12 0 15 0;
#X connect 13 0 12 1;
#X connect 14 0 17 0;
#X connect 15 0 16 0;
#X connect 16 0 2 0;
#X connect 16 0 26 0;
#X connect 17 0 2 0;
#X connect 17 0 26 0;
#X connect 18 0 6 0;
#X connect 19 0 13 0;
#X connect 20 0 4 0;
#X connect 21 0 3 1;
#X connect 22 0 14 1;
#X connect 23 0 24 0;
#X connect 24 0 28 0;
#X connect 24 0 29 0;
#X connect 24 0 31 0;
#X connect 26 0 27 0;
#X connect 27 0 25 0;
#X connect 28 0 25 0;
#X connect 29 0 22 0;
#X connect 30 0 14 1;
#X connect 31 0 15 1;
#X restore 516 76 pd hat;
#N canvas 0 22 722 561 crash 0;
#X obj 415 47 inlet;
#X obj 415 72 t b;
#X obj 205 454 outlet~;
#X obj 83 181 *~;
#X obj 230 183 *~;
#X obj 150 213 *~;
#X obj 139 265 +~;
#X obj 138 288 osc~ 5435;
#X obj 78 238 sig~ 3435;
#X obj 150 236 *~ 12000;
#X obj 248 142 osc~ 2441;
#X obj 228 235 noise~;
#X obj 180 354 *~;
#X obj 235 352 *~;
#X obj 23 144 osc~ 12221;
#X obj 100 144 osc~ 8309;
#X obj 172 143 osc~ 2383;
#X obj 228 278 clip~ -0.9 0.9;
#X obj 347 229 noise~;
#X obj 347 272 clip~ -0.9 0.9;
#X obj 228 256 bp~ 8000 4;
#X obj 142 319 *~;
#X obj 245 373 *~ 0.2;
#X obj 320 349 *~;
#X obj 177 374 *~ 0.2;
#X obj 348 377 *~ 0.4;
#X obj 346 250 bp~ 4000 7;
#X obj 204 433 *~ 0.8;
#X obj 302 486 switch~;
#X obj 301 434 env~;
#X obj 302 459 > 1;
#X msg 333 460 1;
#X obj 307 99 c_ead 4000 3000;
#X obj 414 100 c_ead 2 5000;
#X obj 432 128 c_ead 300 7000;
#X obj 529 97 c_ead 1 200;
#X connect 0 0 1 0;
#X connect 1 0 31 0;
#X connect 1 0 32 0;
#X connect 1 0 33 0;
#X connect 1 0 34 0;
#X connect 1 0 35 0;
#X connect 3 0 5 0;
#X connect 4 0 5 1;
#X connect 5 0 9 0;
#X connect 6 0 7 0;
#X connect 7 0 21 0;
#X connect 8 0 6 0;
#X connect 9 0 6 1;
#X connect 10 0 4 1;
#X connect 11 0 20 0;
#X connect 12 0 24 0;
#X connect 13 0 22 0;
#X connect 14 0 3 0;
#X connect 15 0 3 1;
#X connect 16 0 4 0;
#X connect 17 0 12 0;
#X connect 18 0 26 0;
#X connect 19 0 13 0;
#X connect 19 0 23 0;
#X connect 20 0 17 0;
#X connect 21 0 12 0;
#X connect 21 0 23 0;
#X connect 22 0 27 0;
#X connect 23 0 25 0;
#X connect 24 0 27 0;
#X connect 25 0 27 0;
#X connect 26 0 19 0;
#X connect 27 0 2 0;
#X connect 27 0 29 0;
#X connect 29 0 30 0;
#X connect 30 0 28 0;
#X connect 31 0 28 0;
#X connect 32 0 21 1;
#X connect 33 0 12 1;
#X connect 34 0 13 1;
#X connect 35 0 23 1;
#X restore 612 74 pd crash;
#N canvas 0 22 280 304 accent 0;
#X obj 36 163 sig~ 0.6;
#X obj 36 211 +~;
#X obj 110 137 line~;
#X obj 110 163 *~;
#X obj 21 237 *~;
#X msg 110 82 1 1;
#X obj 209 83 r timeacc;
#X obj 152 108 pack 0 150;
#X obj 152 83 del 4;
#X obj 110 49 t b;
#X obj 21 20 inlet~;
#X obj 21 274 outlet~;
#X obj 110 21 inlet;
#X obj 110 188 *~ 0.6;
#X connect 0 0 1 0;
#X connect 1 0 4 1;
#X connect 2 0 3 0;
#X connect 2 0 3 1;
#X connect 3 0 13 0;
#X connect 4 0 11 0;
#X connect 5 0 2 0;
#X connect 6 0 7 1;
#X connect 7 0 2 0;
#X connect 8 0 7 0;
#X connect 9 0 5 0;
#X connect 9 0 8 0;
#X connect 10 0 4 0;
#X connect 12 0 9 0;
#X connect 13 0 1 1;
#X restore 415 224 pd accent;
#X obj 415 252 outlet~;
#X obj 15 26 inlet;
#X obj 80 27 inlet;
#X obj 147 28 inlet;
#X obj 215 28 inlet;
#X obj 285 28 inlet;
#X obj 350 27 inlet;
#X obj 415 26 inlet;
#X obj 478 25 inlet;
#X obj 549 25 inlet;
#X obj 612 24 inlet;
#X obj 896 23 inlet;
#N canvas 0 22 753 637 cowbell 0;
#X obj 121 192 osc~ 440;
#X obj 189 190 osc~ 440;
#X obj 254 189 osc~ 440;
#X obj 322 187 osc~ 440;
#X obj 122 219 *~;
#X obj 122 241 *~;
#X obj 123 263 *~;
#X obj 124 290 cos~;
#X obj 125 315 *~;
#X obj 172 287 *~ 0.3;
#X obj 39 290 *~;
#X obj 121 133 * 2.666;
#X obj 189 132 * 2.333;
#X obj 254 132 * 0.875;
#X obj 322 132 * 0.666;
#X msg 205 100 0;
#X obj 190 55 t b f;
#X obj 124 340 *~ 0.2;
#X msg 190 28 680;
#X obj 121 162 +;
#X obj 322 159 +;
#X obj 254 159 +;
#X obj 189 160 +;
#X obj 264 79 random 100;
#X obj 264 100 / 50;
#X obj 339 79 random 100;
#X obj 414 78 random 100;
#X obj 339 100 / 40;
#X obj 414 99 / 30;
#X obj 124 365 outlet~;
#X obj 149 28 inlet;
#X obj 283 352 switch~;
#X obj 282 300 env~;
#X obj 283 325 > 1;
#X msg 314 326 1;
#X obj 173 264 c_ead 1 400;
#X obj 38 264 c_ead 1 900;
#X connect 0 0 4 0;
#X connect 1 0 4 1;
#X connect 2 0 5 1;
#X connect 3 0 6 1;
#X connect 4 0 5 0;
#X connect 5 0 6 0;
#X connect 6 0 7 0;
#X connect 6 0 10 1;
#X connect 7 0 8 0;
#X connect 8 0 17 0;
#X connect 9 0 8 1;
#X connect 10 0 17 0;
#X connect 11 0 19 0;
#X connect 12 0 22 0;
#X connect 13 0 21 0;
#X connect 14 0 20 0;
#X connect 15 0 0 1;
#X connect 15 0 1 1;
#X connect 15 0 2 1;
#X connect 15 0 3 1;
#X connect 16 0 15 0;
#X connect 16 0 23 0;
#X connect 16 0 25 0;
#X connect 16 0 26 0;
#X connect 16 0 34 0;
#X connect 16 0 35 0;
#X connect 16 0 36 0;
#X connect 16 1 11 0;
#X connect 16 1 12 0;
#X connect 16 1 13 0;
#X connect 16 1 14 0;
#X connect 17 0 29 0;
#X connect 17 0 32 0;
#X connect 18 0 16 0;
#X connect 19 0 0 0;
#X connect 20 0 3 0;
#X connect 21 0 2 0;
#X connect 22 0 1 0;
#X connect 23 0 24 0;
#X connect 24 0 22 1;
#X connect 25 0 27 0;
#X connect 26 0 28 0;
#X connect 27 0 21 1;
#X connect 28 0 20 1;
#X connect 30 0 16 0;
#X connect 32 0 33 0;
#X connect 33 0 31 0;
#X connect 34 0 31 0;
#X connect 35 0 9 0;
#X connect 36 0 10 0;
#X restore 801 74 pd cowbell;
#X msg 801 48 660;
#N canvas 674 360 546 484 handrum 0;
#X obj 121 192 osc~ 440;
#X obj 189 190 osc~ 440;
#X obj 254 189 osc~ 440;
#X obj 322 187 osc~ 440;
#X obj 122 219 *~;
#X obj 122 241 *~;
#X obj 123 263 *~;
#X obj 124 311 cos~;
#X obj 125 344 *~;
#X obj 39 290 *~;
#X msg 205 100 0;
#X obj 120 30 t b f;
#X obj 126 435 outlet~;
#X obj 120 4 inlet;
#X obj 121 133 * 0.8;
#X obj 189 132 * 1.6666;
#X obj 254 132 * 0.833;
#X obj 123 287 clip~ -1 1;
#X obj 121 165 + 7.88;
#X obj 189 163 + 8.66;
#X floatatom 323 227 5 0 0 0 - - -, f 5;
#X floatatom 375 229 5 0 0 0 - - -, f 5;
#X floatatom 427 230 5 0 0 0 - - -, f 5;
#X floatatom 483 231 5 0 0 0 - - -, f 5;
#X obj 322 161 + 7.88;
#X obj 254 162 + 4.725;
#X obj 126 410 *~ 0.4;
#X obj 205 286 *~ 0.15;
#X obj 81 370 clip~ -0.7 0.5;
#X msg 449 87 2.66666;
#X msg 388 87 1.14141;
#X obj 322 30 t b f;
#X obj 322 4 inlet;
#X obj 322 133 *;
#X obj 245 413 switch~;
#X obj 244 361 env~;
#X obj 245 386 > 1;
#X msg 276 387 1;
#X obj 206 263 c_ead 1 400;
#X obj 37 263 c_ead 1 500;
#X connect 0 0 4 0;
#X connect 1 0 4 1;
#X connect 2 0 5 1;
#X connect 3 0 6 1;
#X connect 4 0 5 0;
#X connect 5 0 6 0;
#X connect 6 0 9 1;
#X connect 6 0 17 0;
#X connect 7 0 8 0;
#X connect 8 0 26 0;
#X connect 9 0 28 0;
#X connect 10 0 0 1;
#X connect 10 0 1 1;
#X connect 10 0 2 1;
#X connect 10 0 3 1;
#X connect 11 0 10 0;
#X connect 11 0 37 0;
#X connect 11 0 38 0;
#X connect 11 0 39 0;
#X connect 11 1 30 0;
#X connect 11 1 33 0;
#X connect 11 1 16 0;
#X connect 11 1 15 0;
#X connect 11 1 14 0;
#X connect 13 0 11 0;
#X connect 14 0 18 0;
#X connect 15 0 19 0;
#X connect 16 0 25 0;
#X connect 17 0 7 0;
#X connect 18 0 0 0;
#X connect 18 0 20 0;
#X connect 19 0 1 0;
#X connect 19 0 21 0;
#X connect 24 0 3 0;
#X connect 24 0 23 0;
#X connect 25 0 2 0;
#X connect 25 0 22 0;
#X connect 26 0 12 0;
#X connect 26 0 35 0;
#X connect 27 0 8 1;
#X connect 28 0 26 0;
#X connect 29 0 33 1;
#X connect 30 0 33 1;
#X connect 31 0 10 0;
#X connect 31 0 38 0;
#X connect 31 0 39 0;
#X connect 31 0 37 0;
#X connect 31 1 29 0;
#X connect 31 1 33 0;
#X connect 31 1 16 0;
#X connect 31 1 15 0;
#X connect 31 1 14 0;
#X connect 32 0 31 0;
#X connect 33 0 24 0;
#X connect 35 0 36 0;
#X connect 36 0 34 0;
#X connect 37 0 34 0;
#X connect 38 0 27 0;
#X connect 39 0 9 0;
#X restore 679 75 pd handrum;
#X msg 679 50 82.47;
#X msg 736 50 82.47;
#X msg 844 49 440;
#X obj 679 23 inlet;
#X obj 736 23 inlet;
#X obj 801 23 inlet;
#X obj 844 23 inlet;
#X obj 54 28 bng 15 250 50 0 empty empty empty 17 7 0 10 -262144 -1
-1;
#X obj 119 29 bng 15 250 50 0 empty empty empty 17 7 0 10 -262144 -1
-1;
#X obj 185 30 bng 15 250 50 0 empty empty empty 17 7 0 10 -262144 -1
-1;
#X obj 255 30 bng 15 250 50 0 empty empty empty 17 7 0 10 -262144 -1
-1;
#X obj 323 29 bng 15 250 50 0 empty empty empty 17 7 0 10 -262144 -1
-1;
#X obj 388 29 bng 15 250 50 0 empty empty empty 17 7 0 10 -262144 -1
-1;
#X obj 453 28 bng 15 250 50 0 empty empty empty 17 7 0 10 -262144 -1
-1;
#X obj 516 26 bng 15 250 50 0 empty empty empty 17 7 0 10 -262144 -1
-1;
#X obj 587 26 bng 15 250 50 0 empty empty empty 17 7 0 10 -262144 -1
-1;
#X obj 652 25 bng 15 250 50 0 empty empty empty 17 7 0 10 -262144 -1
-1;
#X obj 716 24 bng 15 250 50 0 empty empty empty 17 7 0 10 -262144 -1
-1;
#X obj 776 24 bng 15 250 50 0 empty empty empty 17 7 0 10 -262144 -1
-1;
#X obj 896 74 t a;
#X connect 0 0 9 0;
#X connect 1 0 9 0;
#X connect 2 0 9 0;
#X connect 3 0 9 0;
#X connect 4 0 9 0;
#X connect 5 0 9 0;
#X connect 6 0 9 0;
#X connect 7 0 9 0;
#X connect 8 0 9 0;
#X connect 9 0 10 0;
#X connect 11 0 3 0;
#X connect 12 0 5 0;
#X connect 13 0 2 0;
#X connect 14 0 1 0;
#X connect 15 0 0 0;
#X connect 16 0 4 0;
#X connect 17 0 6 0;
#X connect 18 0 7 0;
#X connect 19 0 7 1;
#X connect 20 0 8 0;
#X connect 21 0 44 0;
#X connect 22 0 9 0;
#X connect 23 0 22 0;
#X connect 24 0 9 0;
#X connect 25 0 24 0;
#X connect 26 0 24 1;
#X connect 27 0 22 0;
#X connect 28 0 25 0;
#X connect 29 0 26 0;
#X connect 30 0 23 0;
#X connect 31 0 27 0;
#X connect 32 0 3 0;
#X connect 33 0 5 0;
#X connect 34 0 2 0;
#X connect 35 0 1 0;
#X connect 36 0 0 0;
#X connect 37 0 4 0;
#X connect 38 0 6 0;
#X connect 39 0 7 0;
#X connect 40 0 7 1;
#X connect 41 0 8 0;
#X connect 42 0 25 0;
#X connect 43 0 26 0;
#X connect 44 0 9 1;
#X restore 21 142 pd ------------------------drumsynth;
#X text 13 11 Let's play analog drums modeled in Pure Data;
#X text 110 169 by Andy Farnell http://obiwannabe.co.uk;
#N canvas 0 22 388 150 externals 0;
#X text 15 15 add search paths to local libraries here;
#X obj 17 46 declare -path ../externals/rc-patches/extra -path ../externals/rc-patches/rc
-path ../externals/rc-patches/rc-patches;
#X obj 16 105 declare -path ../externals/rjlib/rj -path ../externals/pd
;
#X restore 309 11 pd externals;
#X connect 1 0 3 0;
#X connect 2 0 10 0;
#X connect 2 1 10 1;
#X connect 2 2 10 2;
#X connect 2 3 10 3;
#X connect 2 4 10 4;
#X connect 2 5 10 5;
#X connect 2 6 10 6;
#X connect 2 7 10 7;
#X connect 2 8 10 8;
#X connect 2 9 10 9;
#X connect 2 10 10 10;
#X connect 2 11 10 11;
#X connect 2 12 10 12;
#X connect 2 13 10 13;
#X connect 2 14 10 14;
#X connect 3 0 4 0;
#X connect 4 0 2 0;
#X connect 5 0 3 1;
#X connect 7 0 6 0;
#X connect 10 0 0 0;
#X connect 10 0 0 1;
