#N canvas 159 24 873 645 10;
#N canvas 0 22 450 278 (subpatch) 0;
#X array \$0-array1 44100 float 2;
#X coords 0 1 44099 -1 200 140 1 0 0;
#X restore 374 79 graph;
#X obj 61 74 adc~ 1;
#X obj 93 159 bng 15 250 50 0 empty empty record_to_array1 17 7 0 10
-262144 -1 -1;
#X obj 61 108 clip~ -1 1;
#X obj 36 311 phasor~ 1;
#X obj 36 405 *~ 44100;
#X obj 182 601 dac~;
#X obj 36 545 *~ 0.5;
#N canvas 0 22 450 278 (subpatch) 0;
#X array \$0-array2 44100 float 2;
#X coords 0 1 44099 -1 200 140 1 0 0;
#X restore 584 79 graph;
#X obj 234 161 bng 15 250 50 0 empty empty record_to_array2 17 7 0
10 -262144 -1 -1;
#X obj 342 308 phasor~ 1;
#X obj 342 547 *~ 0.5;
#X floatatom 36 271 5 0 0 2 base_playback_speed - -, f 5;
#X obj 342 492 +~ 500;
#X obj 378 446 hsl 128 15 0 44100 0 0 empty empty start_pos -2 -8 0
10 -262144 -1 -1 0 1;
#X obj 390 353 hsl 128 15 0 44100 0 0 empty empty length -2 -8 0 10
-262144 -1 -1 0 1;
#X obj 72 445 hsl 128 15 0 44100 0 0 empty empty start_pos -2 -8 0
10 -262144 -1 -1 0 1;
#X obj 84 352 hsl 128 15 0 44100 0 0 empty empty length -2 -8 0 10
-262144 -1 -1 0 1;
#X obj 36 494 +~ 500;
#X obj 61 195 tabwrite~ \$0-array1;
#X obj 202 197 tabwrite~ \$0-array2;
#X obj 36 519 tabread~ \$0-array1;
#X obj 342 520 tabread~ \$0-array2;
#X floatatom 81 378 10 0 0 0 - - -, f 10;
#X floatatom 69 469 10 0 0 0 - - -, f 10;
#X floatatom 375 468 10 0 0 0 - - -, f 10;
#X floatatom 387 381 10 0 0 0 - - -, f 10;
#X floatatom 342 273 5 0 0 2 base_playback_speed - -, f 5;
#X obj 564 278 \$0;
#X msg 564 249 bang;
#X msg 564 304 \; \$1-array1 const \; \$1-array2 const 0;
#X text 603 248 <-- clear the arrays;
#X text 32 229 array1 playback;
#X text 337 235 array2 playback;
#X obj 342 406 *~ 44100;
#X text 372 26 The arrays have a size of 44100 If the samplerate is
44100 \, that means they hold 1 second of sound each.;
#X text 128 74 Record from the first input channel;
#X text 26 31 A simple 2 sample looping sampler.;
#X text 464 519 <-- we're using [tabread~] \, also checkout [tabread4~]
whcih does interpolation from end to beginning for nicer looping;
#X text 46 290 sends out numbers from 0 - 1 at a given freq;
#X text 94 405 scale 0-1 to 44100 \, the len of the array;
#X text 84 494 add a number to move out start pos;
#X text 156 521 read from the array;
#X text 85 544 lower amplitude;
#X connect 1 0 3 0;
#X connect 2 0 19 0;
#X connect 3 0 19 0;
#X connect 3 0 20 0;
#X connect 4 0 5 0;
#X connect 5 0 18 0;
#X connect 7 0 6 0;
#X connect 9 0 20 0;
#X connect 10 0 34 0;
#X connect 11 0 6 1;
#X connect 12 0 4 0;
#X connect 13 0 22 0;
#X connect 14 0 25 0;
#X connect 15 0 26 0;
#X connect 16 0 24 0;
#X connect 17 0 23 0;
#X connect 18 0 21 0;
#X connect 21 0 7 0;
#X connect 22 0 11 0;
#X connect 23 0 5 1;
#X connect 24 0 18 1;
#X connect 25 0 13 1;
#X connect 26 0 34 1;
#X connect 27 0 10 0;
#X connect 28 0 30 0;
#X connect 29 0 28 0;
#X connect 34 0 13 0;
