#N canvas 49 22 602 465 10;
#X obj 16 11 tgl 15 0 empty empty empty 17 7 0 10 -258113 -1 -1 0 1
;
#X text 37 12 <- start/stop;
#X obj 16 51 metro 300;
#X floatatom 76 32 5 0 0 0 - - -;
#X text 117 30 <- time interval (ms);
#X obj 16 100 f;
#X obj 16 125 mod 16;
#X floatatom 33 152 5 0 0 0 - - -;
#X obj 73 102 + 1;
#X text 110 113 <- circular counter (from 0 to 15);
#X obj 16 192 select 0 1 2 3 4 5 6 7 8 9 10 11 12 13 14 15;
#X obj 16 249 f;
#X obj 45 249 f;
#X obj 74 249 f;
#X obj 103 249 f;
#X obj 132 249 f;
#X obj 161 249 f;
#X obj 190 249 f;
#X obj 219 249 f;
#X obj 248 249 f;
#X obj 277 249 f;
#X obj 306 249 f;
#X obj 335 249 f;
#X obj 364 249 f;
#X obj 393 249 f;
#X obj 422 249 f;
#X obj 451 249 f;
#X text 500 230 <- set note for;
#X text 523 243 each step;
#X obj 16 325 + 0;
#X floatatom 41 367 5 0 0 0 - - -;
#X text 83 366 <- current note;
#N canvas 579 350 450 300 synth 0;
#X obj 12 10 inlet;
#X obj 195 20 inlet;
#X obj 12 54 mtof;
#X obj 12 76 t a b;
#X obj 12 133 phasor~;
#X obj 12 253 dac~;
#X obj 13 208 *~;
#X obj 177 107 f;
#X obj 195 43 t a a;
#X obj 195 63 *;
#X obj 195 84 rmstodb;
#X msg 177 128 \$1 5 \, 0 700 5;
#X obj 177 150 vline~;
#X obj 13 156 lop~ 300;
#X obj 176 173 dbtorms~;
#X connect 0 0 2 0;
#X connect 1 0 8 0;
#X connect 2 0 3 0;
#X connect 3 0 4 0;
#X connect 3 1 7 0;
#X connect 4 0 13 0;
#X connect 6 0 5 0;
#X connect 6 0 5 1;
#X connect 7 0 11 0;
#X connect 8 0 9 0;
#X connect 8 1 9 1;
#X connect 9 0 10 0;
#X connect 10 0 7 1;
#X connect 11 0 12 0;
#X connect 12 0 14 0;
#X connect 13 0 6 0;
#X connect 14 0 6 1;
#X restore 16 428 pd synth;
#X obj 72 412 hsl 100 10 0 1 0 0 empty empty empty -2 -8 0 10 -258113
-1 -1 0 1;
#X text 177 408 <- set volume;
#X obj 33 231 cnv 15 460 15 empty empty empty 20 12 0 14 -261234 -66577
0;
#X floatatom 34 231 3 0 127 0 - - -;
#X floatatom 63 231 3 0 127 0 - - -;
#X floatatom 92 231 3 0 127 0 - - -;
#X floatatom 121 231 3 0 127 0 - - -;
#X floatatom 150 231 3 0 127 0 - - -;
#X floatatom 179 231 3 0 127 0 - - -;
#X floatatom 208 231 3 0 127 0 - - -;
#X floatatom 237 231 3 0 127 0 - - -;
#X floatatom 266 231 3 0 127 0 - - -;
#X floatatom 295 231 3 0 127 0 - - -;
#X floatatom 324 231 3 0 127 0 - - -;
#X floatatom 353 231 3 0 127 0 - - -;
#X floatatom 382 231 3 0 127 0 - - -;
#X floatatom 411 231 3 0 127 0 - - -;
#X floatatom 440 231 3 0 127 0 - - -;
#X floatatom 469 231 3 0 127 0 - - -;
#X text 76 152 <- current step;
#X text 490 256 (range: 0 - 127);
#X text 334 59 !! DON'T FORGET TO TURN AUDIO ON !!;
#X text 323 425 By Roman Haefeli http://romanhaefeli.net/;
#X connect 0 0 2 0;
#X connect 2 0 5 0;
#X connect 3 0 2 1;
#X connect 5 0 6 0;
#X connect 6 0 7 0;
#X connect 6 0 8 0;
#X connect 6 0 10 0;
#X connect 8 0 5 1;
#X connect 10 0 11 0;
#X connect 10 1 12 0;
#X connect 10 2 13 0;
#X connect 10 3 14 0;
#X connect 10 4 15 0;
#X connect 10 5 16 0;
#X connect 10 6 17 0;
#X connect 10 7 18 0;
#X connect 10 8 19 0;
#X connect 10 9 20 0;
#X connect 10 10 21 0;
#X connect 10 11 22 0;
#X connect 10 12 23 0;
#X connect 10 13 24 0;
#X connect 10 14 25 0;
#X connect 10 15 26 0;
#X connect 11 0 29 0;
#X connect 12 0 29 0;
#X connect 13 0 29 0;
#X connect 14 0 29 0;
#X connect 15 0 29 0;
#X connect 16 0 29 0;
#X connect 17 0 29 0;
#X connect 18 0 29 0;
#X connect 19 0 29 0;
#X connect 20 0 29 0;
#X connect 21 0 29 0;
#X connect 22 0 29 0;
#X connect 23 0 29 0;
#X connect 24 0 29 0;
#X connect 25 0 29 0;
#X connect 29 0 30 0;
#X connect 29 0 32 0;
#X connect 33 0 32 1;
#X connect 36 0 11 1;
#X connect 37 0 12 1;
#X connect 38 0 13 1;
#X connect 39 0 14 1;
#X connect 40 0 15 1;
#X connect 41 0 16 1;
#X connect 42 0 17 1;
#X connect 43 0 18 1;
#X connect 44 0 19 1;
#X connect 45 0 20 1;
#X connect 46 0 21 1;
#X connect 47 0 22 1;
#X connect 48 0 23 1;
#X connect 49 0 24 1;
#X connect 50 0 25 1;
#X connect 51 0 26 1;
