#N canvas 29 28 1234 655 10;
#N canvas 0 22 450 300 (subpatch) 0;
#X array \$0-sample 307037 float 2;
#X coords 0 1 307037 -1 200 140 1;
#X restore 1020 308 graph;
#X obj 1034 152 soundfiler;
#X obj 619 808 dac~ 1 2;
#X obj 619 687 phasor~ 0.1;
#X obj 619 715 *~ 1000;
#X obj 619 567 expr 1000/($f1/44.1);
#X obj 345 297 vsl 15 100 0 100 0 0 empty empty empty 0 -9 0 10 -262144
-1 -1 0 1;
#X obj 619 627 * 1;
#X obj 619 596 t b f;
#X obj 619 745 +~ 0;
#X obj 759 279 vsl 15 100 0 100 0 0 empty empty empty 0 -9 0 10 -262144
-1 -1 0 1;
#X obj 587 282 vsl 15 100 0 100 0 0 empty empty empty 0 -9 0 10 -262144
-1 -1 0 1;
#X obj 619 522 - 0;
#X obj 619 487 t b f;
#X obj 619 659 * 1;
#X obj 776 567 abs;
#X msg 250 452 0;
#X obj 250 262 bng 15 250 50 0 empty empty empty 17 7 0 10 -262144
-1 -1;
#X obj 303 263 bng 15 250 50 0 empty empty empty 17 7 0 10 -262144
-1 -1;
#X obj 250 169 tgl 15 0 empty empty empty 17 7 0 10 -262144 -1 -1 1
1;
#X obj 251 204 select 0 1;
#X obj 698 214 t b f;
#X obj 1034 210 t b f;
#X msg 791 242 0;
#X obj 343 205 bng 15 250 50 0 empty empty empty 17 7 0 10 -262144
-1 -1;
#X obj 173 131 loadbang;
#X obj 250 85 inlet;
#X obj 412 81 inlet;
#X text 370 326 playback speed -2 to +2;
#X obj 74 23 inlet;
#X text 72 44 load file;
#X text 252 59 play/stop;
#X obj 588 127 inlet;
#X text 780 327 inpoint %;
#X text 606 328 endpoint %;
#X obj 594 437 expr (($f1/100) * $f2);
#X obj 759 436 expr (($f1/100) * $f2);
#X obj 345 432 expr (($f1/100) * 4) - 2;
#X msg 344 250 75;
#X text 365 203 reset;
#X text 413 60 playback speed 1 = normal speed 2 = 2X 0 = stop -1 =
reverse;
#X text 581 104 end point in % of the sample;
#X msg 614 252 100;
#X obj 764 105 inlet;
#X text 754 85 in point % of the sample;
#X msg 909 607 0;
#X text 900 103 reset position;
#X obj 908 122 inlet;
#X obj 619 776 tabread4~ \$0-sample;
#X obj 1034 25 symbol;
#X msg 1034 125 read -resize \$1 \$2-sample;
#X obj 1034 93 pack s f;
#X obj 1079 69 \$0;
#X obj 1034 52 t a b;
#X obj 1003 125 bng 15 250 50 0 empty empty empty 17 7 0 10 -262144
-1 -1;
#X obj 412 485 t f;
#X connect 1 0 22 0;
#X connect 1 0 21 0;
#X connect 1 0 24 0;
#X connect 3 0 4 0;
#X connect 4 0 9 0;
#X connect 5 0 8 0;
#X connect 6 0 37 0;
#X connect 7 0 14 0;
#X connect 8 0 7 0;
#X connect 8 1 7 1;
#X connect 9 0 48 0;
#X connect 10 0 36 0;
#X connect 11 0 35 0;
#X connect 12 0 15 0;
#X connect 12 0 5 0;
#X connect 13 0 12 0;
#X connect 13 1 12 1;
#X connect 14 0 3 0;
#X connect 15 0 4 1;
#X connect 16 0 55 0;
#X connect 17 0 16 0;
#X connect 18 0 6 0;
#X connect 19 0 20 0;
#X connect 20 0 17 0;
#X connect 20 1 18 0;
#X connect 21 0 42 0;
#X connect 21 1 35 1;
#X connect 22 0 23 0;
#X connect 22 1 36 1;
#X connect 23 0 10 0;
#X connect 24 0 38 0;
#X connect 25 0 19 0;
#X connect 26 0 19 0;
#X connect 27 0 55 0;
#X connect 29 0 49 0;
#X connect 32 0 11 0;
#X connect 35 0 12 0;
#X connect 36 0 13 0;
#X connect 36 0 9 1;
#X connect 37 0 55 0;
#X connect 38 0 6 0;
#X connect 42 0 11 0;
#X connect 43 0 10 0;
#X connect 45 0 3 1;
#X connect 47 0 45 0;
#X connect 48 0 2 0;
#X connect 48 0 2 1;
#X connect 49 0 53 0;
#X connect 50 0 1 0;
#X connect 51 0 50 0;
#X connect 52 0 51 1;
#X connect 53 0 51 0;
#X connect 53 1 52 0;
#X connect 54 0 1 0;
#X connect 55 0 7 0;
