#N canvas 574 22 822 712 10;
#X declare -path ../externals/rc-patches/extra -path ../externals/rc-patches/rc
-path ../externals/rc-patches/rc-patches;
#X declare -path ../externals/rjlib/rj -path ../externals/pd;
#X obj 8 9 cnv 15 360 180 empty empty Setup 5 12 0 14 -233017 -66577
0;
#X msg 92 123 reset;
#X text 135 122 reset the window;
#N canvas 0 22 386 154 externals 0;
#X text 14 16 add search paths to local libraries here;
#X obj 16 47 declare -path ../externals/rc-patches/extra -path ../externals/rc-patches/rc
-path ../externals/rc-patches/rc-patches;
#X obj 15 106 declare -path ../externals/rjlib/rj -path ../externals/pd
;
#X restore 275 20 pd externals;
#X obj 24 242 gemhead;
#X obj 24 280 glsl_fragment;
#X obj 24 442 glsl_program;
#X msg 99 242 open shader.frag;
#X msg 49 311 print;
#X obj 99 311 change;
#X msg 99 338 link \$1;
#X obj 99 213 loadbang;
#X text 157 339 link the fragment shader id;
#X text 115 280 load the fragment shader;
#X text 111 444 run the shader program;
#X text 257 47 2015 Dan Wilcox;
#X obj 22 147 gemwin;
#X msg 31 77 create \, 1;
#X msg 97 78 destroy;
#X obj 22 46 tgl 15 0 empty empty empty 17 7 0 10 -262144 -1 -1 0 1
;
#X obj 24 500 square 4;
#X text 35 472 shader affects things below it in render chain;
#X msg 421 226 iGlobalTime \$1;
#X floatatom 421 202 5 0 0 0 - - -;
#X obj 420 51 metro 33;
#X obj 420 27 tgl 15 0 empty empty empty 17 7 0 10 -262144 -1 -1 1
1;
#X obj 441 27 loadbang;
#X obj 420 75 f;
#X obj 448 75 + 1;
#X obj 479 75 % 360;
#X obj 421 119 line;
#X obj 420 98 pack f 500;
#X obj 421 141 / 100;
#X msg 422 463 iResolution 500 500;
#X text 417 502 2016 Sofy Yuditskaya;
#X msg 421 356 iMouse \$1 \$2;
#X obj 421 259 gemmouse;
#X floatatom 421 285 5 0 0 0 - - -;
#X floatatom 457 283 5 0 0 0 - - -;
#X obj 439 316 t b a;
#X obj 421 336 pack f f;
#X obj 589 35 cnv 15 250 350 empty empty empty 20 12 0 14 -228992 -66577
0;
#X obj 591 66 cnv 15 155 250 empty empty empty 20 12 0 14 -24198 -66577
0;
#X obj 591 41 gemhead;
#X obj 591 338 pix_texture;
#X obj 603 71 bng 25 250 50 0 empty empty empty 0 -6 0 8 -262144 -1
-1;
#X text 645 35 open a supported;
#X text 646 46 movie-clip;
#X obj 616 265 unpack 0 0 0;
#X floatatom 606 288 5 0 0 3 length - -;
#X floatatom 655 288 5 0 0 3 width - -;
#X floatatom 705 288 5 0 0 3 height - -;
#X obj 660 246 bng 15 250 50 0 empty empty end_reached 20 7 0 10 -262144
-1 -1;
#X floatatom 642 211 5 0 10000 1 frame# - -;
#X obj 603 100 openpanel;
#X msg 603 120 open \$1;
#X obj 591 229 pix_film;
#X msg 609 163 auto \$1;
#X obj 609 145 tgl 15 0 empty empty empty 0 -6 0 8 -262144 -1 -1 0
1;
#X msg 620 187 colorspace Grey;
#X obj 656 366 unpack f f f f f;
#X floatatom 637 401 5 0 0 0 - - -;
#X msg 433 407 iChannel0 3;
#X connect 1 0 16 0;
#X connect 4 0 5 0;
#X connect 5 0 6 0;
#X connect 5 1 9 0;
#X connect 6 0 20 0;
#X connect 7 0 5 0;
#X connect 8 0 6 0;
#X connect 9 0 10 0;
#X connect 10 0 6 0;
#X connect 11 0 7 0;
#X connect 17 0 16 0;
#X connect 17 0 33 0;
#X connect 17 0 62 0;
#X connect 18 0 16 0;
#X connect 19 0 16 0;
#X connect 22 0 6 0;
#X connect 23 0 22 0;
#X connect 24 0 27 0;
#X connect 25 0 24 0;
#X connect 26 0 25 0;
#X connect 27 0 28 0;
#X connect 27 0 31 0;
#X connect 28 0 29 0;
#X connect 29 0 27 1;
#X connect 30 0 32 0;
#X connect 31 0 30 0;
#X connect 32 0 23 0;
#X connect 33 0 6 0;
#X connect 36 0 37 0;
#X connect 36 1 38 0;
#X connect 37 0 40 0;
#X connect 38 0 39 0;
#X connect 39 0 40 0;
#X connect 39 1 40 1;
#X connect 40 0 35 0;
#X connect 43 0 56 0;
#X connect 44 1 60 0;
#X connect 45 0 54 0;
#X connect 48 0 49 0;
#X connect 48 1 50 0;
#X connect 48 2 51 0;
#X connect 53 0 56 1;
#X connect 54 0 55 0;
#X connect 55 0 56 0;
#X connect 56 0 44 0;
#X connect 56 1 48 0;
#X connect 56 2 52 0;
#X connect 57 0 56 0;
#X connect 58 0 57 0;
#X connect 59 0 56 0;
#X connect 60 0 61 0;
#X connect 62 0 6 0;
