#N canvas 524 23 637 586 10;
#X declare -path ../externals/rc-patches/extra -path ../externals/rc-patches/rc
-path ../externals/rc-patches/rc-patches;
#X declare -path ../externals/rjlib/rj -path ../externals/pd;
#X obj 8 9 cnv 15 360 180 empty empty Setup 5 12 0 14 -233017 -66577
0;
#X msg 49 134 reset;
#X text 92 133 reset the window;
#N canvas 0 22 386 154 externals 0;
#X text 14 16 add search paths to local libraries here;
#X obj 16 47 declare -path ../externals/rc-patches/extra -path ../externals/rc-patches/rc
-path ../externals/rc-patches/rc-patches;
#X obj 15 106 declare -path ../externals/rjlib/rj -path ../externals/pd
;
#X restore 275 20 pd externals;
#X obj 24 242 gemhead;
#X obj 24 280 glsl_fragment;
#X obj 24 442 glsl_program;
#X msg 99 242 open shader.frag;
#X msg 49 311 print;
#X obj 99 311 change;
#X msg 99 338 link \$1;
#X obj 99 213 loadbang;
#X text 157 339 link the fragment shader id;
#X text 115 280 load the fragment shader;
#X text 111 443 run the shader program;
#X text 257 47 2015 Dan Wilcox;
#X text 87 480 shader effects things below it in render chain;
#X text 79 548 http://patriciogonzalezvivo.com/2015/thebookofshaders/02
;
#X text 78 525 adapted from The Book of Shaders \, Patricio Gonzalez
Vivo;
#X obj 22 166 gemwin;
#X msg 31 74 create \, 1;
#X msg 97 75 destroy;
#X obj 22 43 tgl 15 0 empty empty empty 17 7 0 10 -262144 -1 -1 0 1
;
#X floatatom 422 184 7 0 0 3 Y - -, f 7;
#X floatatom 368 184 7 0 0 3 X - -, f 7;
#X obj 386 228 t b a;
#X obj 368 258 pack f f;
#X msg 369 298 u_resolution \$1 \$2;
#X obj 368 157 gemmouse;
#X obj 24 480 square 4;
#X text 491 296 2016 Sofy Yuditskaya;
#X msg 428 159 620;
#X msg 460 158 517;
#X obj 428 135 loadbang;
#X connect 1 0 19 0;
#X connect 4 0 5 0;
#X connect 5 0 6 0;
#X connect 5 1 9 0;
#X connect 6 0 29 0;
#X connect 7 0 5 0;
#X connect 8 0 6 0;
#X connect 9 0 10 0;
#X connect 10 0 6 0;
#X connect 11 0 7 0;
#X connect 20 0 19 0;
#X connect 21 0 19 0;
#X connect 22 0 19 0;
#X connect 23 0 25 0;
#X connect 24 0 26 0;
#X connect 25 0 26 0;
#X connect 25 1 26 1;
#X connect 26 0 27 0;
#X connect 27 0 6 0;
#X connect 28 0 24 0;
#X connect 28 1 23 0;
#X connect 31 0 24 0;
#X connect 32 0 23 0;
#X connect 33 0 31 0;
#X connect 33 0 32 0;
