#N canvas 389 152 737 545 10;
#X declare -path rj;
#X obj 45 298 *~;
#X obj 60 243 +~ 50;
#X obj 60 193 *~ 150;
#X floatatom 93 171 5 0 0 1 freq_sweep - -, f 5;
#X obj 60 270 osc~;
#X obj 45 147 c_ead 10 400;
#X obj 44 482 declare -path rj;
#X obj 336 226 noise~;
#X obj 321 176 c_ead 10 500;
#X obj 321 384 *~;
#X obj 336 334 lop~ 500;
#X obj 581 260 *~ 0.75;
#X obj 581 232 osc~ 330;
#X obj 566 334 *~;
#X obj 566 177 c_ead 10 100;
#X obj 423 334 *~ 0.25;
#X obj 423 286 bp~ 4000 4;
#X floatatom 355 131 5 0 0 1 attack - -, f 5;
#X floatatom 390 153 5 0 0 1 decay - -, f 5;
#X obj 321 62 bng 30 250 50 0 empty empty snare 32 15 0 10 -204800
-1 -1;
#X floatatom 600 131 5 0 0 1 attack - -, f 5;
#X floatatom 635 153 5 0 0 1 decay - -, f 5;
#X floatatom 79 101 5 0 0 1 attack - -, f 5;
#X floatatom 114 122 5 0 0 1 decay - -, f 5;
#X text 333 203 noise components;
#X text 650 180 drumhead;
#X obj 345 424 hsl 128 15 0 1 0 0 empty empty amplitude 8 8 0 10 -204786
-1 -1 12700 1;
#X obj 321 450 *~ 0;
#X obj 69 327 hsl 128 15 0 1 0 0 empty empty amplitude 8 8 0 10 -204786
-1 -1 12700 1;
#X obj 45 353 *~ 0;
#X obj 45 62 bng 30 250 50 0 empty empty kick 32 15 0 10 -262130 -1
-1;
#X obj 321 102 t b b;
#X obj 566 118 t b;
#X floatatom 87 218 5 0 0 1 base_freq - -, f 5;
#X floatatom 581 205 5 0 0 1 tune - -, f 5;
#X floatatom 451 238 5 0 0 1 freq - -, f 5;
#X floatatom 462 311 5 0 0 0 - - -, f 5;
#X floatatom 480 260 5 0 0 1 q - -, f 5;
#X floatatom 381 311 5 0 0 0 freq - -, f 5;
#X obj 321 482 dac~;
#X obj 45 382 dac~;
#X text 44 20 some minimal electro drums using an exponential envelop
;
#X text 41 418 [c_ead] is a patch abstraction in the "rj" diectory
\, the [declare] objct is used here to add "rj" to Pd's search path
so it can find [c_ead], f 40;
#X connect 0 0 29 0;
#X connect 1 0 4 0;
#X connect 2 0 1 0;
#X connect 3 0 2 1;
#X connect 4 0 0 1;
#X connect 5 0 2 0;
#X connect 5 0 0 0;
#X connect 7 0 10 0;
#X connect 7 0 16 0;
#X connect 8 0 9 0;
#X connect 9 0 27 0;
#X connect 10 0 9 1;
#X connect 11 0 13 1;
#X connect 12 0 11 0;
#X connect 13 0 9 1;
#X connect 14 0 13 0;
#X connect 15 0 9 1;
#X connect 16 0 15 0;
#X connect 17 0 8 1;
#X connect 18 0 8 2;
#X connect 19 0 31 0;
#X connect 20 0 14 1;
#X connect 21 0 14 2;
#X connect 22 0 5 1;
#X connect 23 0 5 2;
#X connect 26 0 27 1;
#X connect 27 0 39 0;
#X connect 27 0 39 1;
#X connect 28 0 29 1;
#X connect 29 0 40 0;
#X connect 29 0 40 1;
#X connect 30 0 5 0;
#X connect 31 0 8 0;
#X connect 31 1 32 0;
#X connect 32 0 14 0;
#X connect 33 0 1 1;
#X connect 34 0 12 0;
#X connect 35 0 16 1;
#X connect 36 0 15 1;
#X connect 37 0 16 2;
#X connect 38 0 10 1;
