#N canvas 0 22 269 404 10;
#X obj 41 357 dac~;
#X text 78 359 sound out;
#X obj 65 303 hsl 128 15 0 1 0 0 empty empty amplitude 8 8 0 10 -204786
-1 -1 4300 1;
#X obj 41 329 *~ 0;
#X obj 41 17 adc~;
#X obj 41 65 *~ 1;
#X obj 65 43 hsl 128 15 0 1 0 0 empty empty gain 8 8 0 10 -261234 -1
-1 10900 1;
#X obj 56 149 delread~ \$0-delay 1000;
#X obj 59 97 hsl 128 15 0 5000 0 0 empty empty delay_time_in_ms 8 8
0 10 -204800 -1 -1 800 1;
#X floatatom 56 122 5 0 0 0 - - -, f 5;
#X obj 61 275 delwrite~ \$0-delay 2000;
#X obj 41 246 +~;
#X text 76 18 <- mic;
#X obj 56 221 *~ 0;
#X obj 80 177 hsl 128 15 0 0.999 0 0 empty empty feedback 8 8 0 10
-261682 -1 -1 6900 1;
#X floatatom 77 200 5 0 0 0 - - -, f 5;
#X connect 2 0 3 1;
#X connect 3 0 0 0;
#X connect 3 0 0 1;
#X connect 4 0 5 0;
#X connect 5 0 11 0;
#X connect 6 0 5 1;
#X connect 7 0 13 0;
#X connect 8 0 9 0;
#X connect 9 0 7 0;
#X connect 11 0 10 0;
#X connect 11 0 3 0;
#X connect 13 0 11 1;
#X connect 14 0 15 0;
#X connect 15 0 13 1;
