#N canvas 290 25 497 659 10;
#X obj 26 625 dac~;
#X obj 26 485 osc~;
#X obj 26 559 *~;
#X obj 26 18 tgl 30 0 empty empty go 10 15 0 10 -191407 -4034 -1 0
1;
#X floatatom 98 415 5 0 0 1 - - -, f 5;
#X obj 80 19 hsl 128 15 80 400 0 0 empty empty tempo_in_ms 8 8 0 10
-262130 -1 -1 0 1;
#X floatatom 77 43 5 0 0 0 - - -, f 5;
#X obj 26 97 bng 15 250 50 0 empty empty empty 17 7 0 10 -262144 -1
-1;
#X obj 180 218 bng 15 250 50 0 empty empty empty 17 7 0 10 -262144
-1 -1;
#X floatatom 26 153 5 0 0 1 sequence_index - -, f 5;
#X text 63 622 sound out;
#X obj 71 537 vline~;
#N canvas 0 22 450 300 counter 0;
#X obj 43 118 float 0;
#X msg 147 84 0;
#X obj 43 166 trigger f f;
#X obj 43 41 inlet;
#X obj 43 254 outlet;
#X obj 147 53 inlet;
#X text 102 254 numbers coming out;
#X obj 134 118 + 1;
#X text 40 18 left inlet bang for +1;
#X text 191 50 right bang to reset;
#X obj 63 212 sel 7;
#X connect 0 0 2 0;
#X connect 1 0 0 1;
#X connect 2 0 4 0;
#X connect 2 0 10 0;
#X connect 2 1 7 0;
#X connect 3 0 0 0;
#X connect 5 0 1 0;
#X connect 7 0 0 1;
#X connect 10 0 1 0;
#X restore 26 124 pd counter;
#X floatatom 243 417 5 0 0 1 - - -, f 5;
#X msg 71 511 1 5 \, 0 \$1 \$2;
#X obj 26 408 mtof;
#X floatatom 195 243 5 0 0 0 - - -, f 5;
#X obj 180 264 f 7;
#X obj 129 216 bng 15 250 50 0 empty empty empty 17 7 0 10 -262144
-1 -1;
#X floatatom 144 241 5 0 0 0 - - -, f 5;
#X obj 78 217 bng 15 250 50 0 empty empty empty 17 7 0 10 -262144 -1
-1;
#X floatatom 93 242 5 0 0 0 - - -, f 5;
#X obj 26 216 bng 15 250 50 0 empty empty empty 17 7 0 10 -262144 -1
-1;
#X floatatom 41 241 5 0 0 0 - - -, f 5;
#X obj 26 262 f 7;
#X obj 426 221 bng 15 250 50 0 empty empty empty 17 7 0 10 -262144
-1 -1;
#X floatatom 441 246 5 0 0 0 - - -, f 5;
#X obj 355 219 bng 15 250 50 0 empty empty empty 17 7 0 10 -262144
-1 -1;
#X floatatom 382 244 5 0 0 0 - - -, f 5;
#X obj 294 220 bng 15 250 50 0 empty empty empty 17 7 0 10 -262144
-1 -1;
#X floatatom 315 245 5 0 0 0 - - -, f 5;
#X obj 232 219 bng 15 250 50 0 empty empty empty 17 7 0 10 -262144
-1 -1;
#X floatatom 253 244 5 0 0 0 - - -, f 5;
#X obj 26 183 select 0 1 2 3 4 5 6;
#X obj 78 263 f 4;
#X obj 129 262 f 5;
#X obj 232 265 f 10;
#X obj 294 266 f 12;
#X obj 355 265 f -12;
#X obj 426 267 f 5;
#X floatatom 47 362 5 0 0 1 - - -, f 5;
#X obj 26 436 t f b;
#X obj 71 460 f 200;
#X obj 128 461 f 200;
#X obj 71 486 pack f 200;
#X obj 26 299 t f;
#X obj 26 381 + 64;
#X text 118 539 envelope generator;
#X obj 75 576 hsl 128 15 0 1 0 0 empty empty amplitude 8 8 0 10 -204786
-1 -1 6100 1;
#X obj 26 597 *~ 0;
#X obj 83 97 bng 15 250 50 0 empty empty reset 17 7 0 10 -261234 -1
-1;
#X obj 50 320 hsl 128 15 28 88 0 0 empty empty root_note 8 8 0 10 -204800
-1 -1 0 1;
#X obj 47 340 int;
#X obj 101 375 hsl 128 15 0 500 0 0 empty empty note_len_in_ms 8 8
0 10 -232576 -1 -1 0 1;
#X obj 246 376 hsl 128 15 0 500 0 0 empty empty decay_in_ms 8 8 0 10
-203904 -1 -1 0 1;
#X obj 98 394 int;
#X obj 243 396 int;
#X obj 26 67 metro 200;
#X connect 1 0 2 0;
#X connect 2 0 49 0;
#X connect 3 0 57 0;
#X connect 4 0 42 1;
#X connect 5 0 6 0;
#X connect 6 0 57 1;
#X connect 7 0 12 0;
#X connect 8 0 17 0;
#X connect 9 0 33 0;
#X connect 11 0 2 1;
#X connect 12 0 9 0;
#X connect 13 0 43 0;
#X connect 14 0 11 0;
#X connect 15 0 41 0;
#X connect 16 0 17 1;
#X connect 17 0 45 0;
#X connect 18 0 35 0;
#X connect 19 0 35 1;
#X connect 20 0 34 0;
#X connect 21 0 34 1;
#X connect 22 0 24 0;
#X connect 23 0 24 1;
#X connect 24 0 45 0;
#X connect 25 0 39 0;
#X connect 26 0 39 1;
#X connect 27 0 38 0;
#X connect 28 0 38 1;
#X connect 29 0 37 0;
#X connect 30 0 37 1;
#X connect 31 0 36 0;
#X connect 32 0 36 1;
#X connect 33 0 22 0;
#X connect 33 1 20 0;
#X connect 33 2 18 0;
#X connect 33 3 8 0;
#X connect 33 4 31 0;
#X connect 33 5 29 0;
#X connect 33 6 27 0;
#X connect 33 7 25 0;
#X connect 34 0 45 0;
#X connect 35 0 45 0;
#X connect 36 0 45 0;
#X connect 37 0 45 0;
#X connect 38 0 45 0;
#X connect 39 0 45 0;
#X connect 40 0 46 1;
#X connect 41 0 1 0;
#X connect 41 1 42 0;
#X connect 42 0 44 0;
#X connect 43 0 44 1;
#X connect 44 0 14 0;
#X connect 45 0 46 0;
#X connect 46 0 15 0;
#X connect 48 0 49 1;
#X connect 49 0 0 0;
#X connect 49 0 0 1;
#X connect 50 0 12 1;
#X connect 51 0 52 0;
#X connect 52 0 40 0;
#X connect 53 0 55 0;
#X connect 54 0 56 0;
#X connect 55 0 4 0;
#X connect 56 0 13 0;
#X connect 57 0 7 0;
