#N canvas 163 72 709 400 10;
#X obj 249 202 f;
#X obj 283 202 + 1;
#X obj 207 78 tgl 30 0 empty empty empty 17 7 0 10 -204786 -1 -1 0
1;
#X floatatom 249 229 5 0 0 1 beat - -, f 5;
#X obj 207 148 sel 0;
#X msg 207 176 0;
#X obj 249 148 metro 0.25 120 permin;
#X msg 268 123 tempo \$1 permin;
#X floatatom 268 100 5 0 0 0 - - -, f 5;
#X obj 271 78 hsl 128 15 80 200 0 0 empty empty bpm 8 8 0 10 -261682
-1 -1 200 1;
#X obj 249 315 bng 15 250 50 0 empty empty empty 17 7 0 10 -262144
-1 -1;
#X obj 249 259 % 8;
#X obj 249 285 sel 0;
#X obj 298 315 bng 15 250 50 0 empty empty empty 17 7 0 10 -262144
-1 -1;
#X obj 298 285 sel 0;
#X obj 346 315 bng 15 250 50 0 empty empty empty 17 7 0 10 -262144
-1 -1;
#X obj 346 285 sel 0;
#X obj 298 259 % 16;
#X obj 346 259 % 9;
#X text 309 202 counter;
#X obj 207 124 t f f;
#X text 244 344 trigger every N beats...;
#X obj 466 233 random 100;
#X obj 466 259 > 50;
#X obj 466 285 sel 1;
#X obj 466 315 bng 15 250 50 0 empty empty empty 17 7 0 10 -262144
-1 -1;
#X obj 518 285 sel 1;
#X obj 518 315 bng 15 250 50 0 empty empty empty 17 7 0 10 -262144
-1 -1;
#X obj 518 259 < 10;
#X obj 566 285 sel 1;
#X obj 566 315 bng 15 250 50 0 empty empty empty 17 7 0 10 -262144
-1 -1;
#X obj 566 259 > 80;
#X text 462 343 random trigger based on percentages;
#X msg 41 315 hello world;
#X msg 134 315 foo bar;
#X obj 41 342 print;
#X obj 41 285 bng 15 250 50 0 empty empty empty 17 7 0 10 -262144 -1
-1;
#X obj 134 285 bng 15 250 50 0 empty empty empty 17 7 0 10 -262144
-1 -1;
#X obj 41 259 sel 16;
#X obj 134 259 sel 64;
#X text 83 342 on specific beats;
#X text 168 26 making things happen when you want them to happen...
;
#X text 117 177 reset counter;
#X text 388 149 beat-based metro \, 0.25 = quarter notes;
#X msg 372 123 0.5;
#X msg 402 123 0.125;
#X connect 0 0 1 0;
#X connect 0 0 3 0;
#X connect 1 0 0 1;
#X connect 2 0 20 0;
#X connect 3 0 11 0;
#X connect 3 0 17 0;
#X connect 3 0 18 0;
#X connect 3 0 39 0;
#X connect 3 0 38 0;
#X connect 4 0 5 0;
#X connect 5 0 0 1;
#X connect 6 0 0 0;
#X connect 6 0 22 0;
#X connect 7 0 6 0;
#X connect 8 0 7 0;
#X connect 9 0 8 0;
#X connect 11 0 12 0;
#X connect 12 0 10 0;
#X connect 14 0 13 0;
#X connect 16 0 15 0;
#X connect 17 0 14 0;
#X connect 18 0 16 0;
#X connect 20 0 4 0;
#X connect 20 1 6 0;
#X connect 22 0 23 0;
#X connect 22 0 28 0;
#X connect 22 0 31 0;
#X connect 23 0 24 0;
#X connect 24 0 25 0;
#X connect 26 0 27 0;
#X connect 28 0 26 0;
#X connect 29 0 30 0;
#X connect 31 0 29 0;
#X connect 33 0 35 0;
#X connect 34 0 35 0;
#X connect 36 0 33 0;
#X connect 37 0 34 0;
#X connect 38 0 36 0;
#X connect 39 0 37 0;
#X connect 44 0 6 1;
#X connect 45 0 6 1;
