#N canvas 427 58 995 553 10;
#X declare -path ../../externals/rjlib/rj -path ../../externals/pd
;
#X declare -path ../../externals/rc-patches/extra -path ../../externals/rc-patches/rc
-path ../../externals/rc-patches/rc-patches;
#X declare -path ../rc;
#X obj -41 -24 cnv 15 360 200 empty empty Setup 5 12 0 14 -233017 -66577
0;
#X msg 0 113 reset;
#X obj -13 56 loadbang;
#X text 50 24 set the window title \, the framerate \,;
#X text 43 112 reset the window;
#X obj 333 74 color 1 1 1;
#X obj 333 107 pix_texture;
#X text 478 43 open an image;
#X text 412 75 set the draw color of the image;
#X text 416 106 load the image into a graphics texture;
#X obj 333 272 gemlist;
#X obj 333 218 until;
#X obj 333 170 t b a;
#X obj 333 364 rotateXYZ 0 0 0;
#X obj 333 242 t a b;
#X obj 420 273 f;
#X msg 435 245 0;
#X obj 333 138 alpha;
#X obj 451 273 + 60;
#X floatatom 496 367 5 0 0 1 distance_from_center - -;
#X msg 333 194 6;
#X obj 333 438 rotateXYZ 0 0 0;
#X floatatom 682 396 5 0 0 1 rotation_in_degrees - -;
#X obj 682 368 * 360;
#X obj 682 339 c_lfo spin 0.05 1 saw;
#X obj 496 305 c_lfo distance 0.25 1 sine;
#X obj 649 270 g_hsl freq 0 2;
#X text 374 140 enable alpha for images with transparency;
#X obj 649 232 g_tgl on;
#X obj 805 306 g_hsl freq 0 2;
#X obj 805 270 g_tgl on;
#X text 458 469 map the image texture onto a centered square;
#X obj 333 43 pix_image lime-cat.png;
#X obj -17 265 pix_texture;
#X obj -16 412 pix_texture;
#X obj -16 382 pix_image dunecat.png;
#X obj 175 386 g_hsl freq 0 2;
#X obj 175 352 g_tgl on;
#X floatatom 131 476 5 0 0 1 size - -;
#X obj -16 440 alpha;
#X text 379 174 this until block acts like a for loop where everything
below the [gemlist] is repeated 6 times;
#X obj 131 423 c_lfo zoom 0.05 1 sine;
#X text -18 328 center cat;
#X obj -17 208 gemhead 1;
#X text -17 185 background;
#X text 412 210 each time a new rotation is calculated;
#X obj -27 11 g_tgl run;
#X obj 333 304 gem_pushMatrix;
#X obj 333 501 gem_popMatrix;
#X text 50 40 the window size \, and use a pixel viewport;
#N canvas 0 22 349 145 externals 0;
#X text 10 7 add search paths to local libraries here;
#X obj 11 97 declare -path ../../externals/rjlib/rj -path ../../externals/pd
;
#X obj 12 38 declare -path ../../externals/rc-patches/extra -path ../../externals/rc-patches/rc
-path ../../externals/rc-patches/rc-patches;
#X restore 238 -16 pd externals;
#X text 216 152 2011 Dan Wilcox;
#X text 464 246 rotate 60 degrees each time;
#X text 331 -16 melon cats;
#X obj 333 405 translateXYZ 0 50 0;
#X obj -16 353 gemhead 3;
#X obj 333 14 gemhead 2;
#X text 53 207 <-- drawn first;
#X text 398 13 <-- drawn second \, argument denotes overall draw order
;
#X text 49 353 <-- drawn last;
#X msg -13 84 title Mandala \, frame 30 \, dimen 400 400 \, pixelView
;
#X obj 496 336 * 250;
#X obj 333 332 translateXYZ 200 200 0;
#X obj -27 144 gem_win;
#X obj -17 236 pix_image rainbow.jpeg;
#X obj -16 501 gem_rect 200 200 200 200;
#X obj -17 292 gem_rect 0 0 400 400 corner;
#X obj 131 450 m_scale 0 1 0 300;
#X obj 333 469 gem_square 0 0 100;
#X text 159 293 draw from the corner;
#X connect 1 0 63 0;
#X connect 2 0 60 0;
#X connect 5 0 6 0;
#X connect 6 0 17 0;
#X connect 10 0 47 0;
#X connect 11 0 14 0;
#X connect 12 0 20 0;
#X connect 12 1 10 1;
#X connect 12 1 16 0;
#X connect 13 0 54 0;
#X connect 14 0 10 0;
#X connect 14 1 15 0;
#X connect 15 0 13 3;
#X connect 15 0 18 0;
#X connect 16 0 15 1;
#X connect 17 0 12 0;
#X connect 18 0 15 1;
#X connect 19 0 54 2;
#X connect 20 0 11 0;
#X connect 21 0 68 0;
#X connect 22 0 21 3;
#X connect 23 0 22 0;
#X connect 24 0 23 0;
#X connect 25 0 61 0;
#X connect 26 0 25 1;
#X connect 28 0 26 0;
#X connect 29 0 24 1;
#X connect 30 0 29 0;
#X connect 32 0 5 0;
#X connect 33 0 66 0;
#X connect 34 0 39 0;
#X connect 35 0 34 0;
#X connect 36 0 41 1;
#X connect 37 0 36 0;
#X connect 38 0 65 3;
#X connect 38 0 65 4;
#X connect 39 0 65 0;
#X connect 41 0 67 0;
#X connect 43 0 64 0;
#X connect 46 0 63 0;
#X connect 47 0 62 0;
#X connect 54 0 21 0;
#X connect 55 0 35 0;
#X connect 56 0 32 0;
#X connect 60 0 63 0;
#X connect 61 0 19 0;
#X connect 62 0 13 0;
#X connect 64 0 33 0;
#X connect 67 0 38 0;
#X connect 68 0 48 0;
