#N canvas 418 44 1002 586 10;
#X declare -path ../../externals/gem;
#X declare -path ../../externals/rjlib/rj;
#N canvas 0 22 281 165 externals 0;
#X text 19 23 add search paths to local libraries here;
#X obj 21 55 declare -path ../../externals/gem;
#X obj 21 87 declare -path ../../externals/rjlib/rj;
#X restore 337 15 pd externals;
#X obj -41 5 cnv 15 360 200 empty empty Setup 5 12 0 14 -233017 -66577
0;
#X obj -27 36 tgl 30 0 empty empty run 32 7 0 10 -262144 -1 -1 0 1
;
#X msg 0 142 reset;
#X obj -27 174 gem_win;
#X obj -13 85 loadbang;
#X text 50 53 set the window title \, the framerate \,;
#X text 50 69 the window size \, and the background color;
#X text 43 141 reset the window;
#X text 332 44 this is a GEM render chain \, everything connected under
the [gemhead] is drawn to the screen;
#X obj 338 146 color 1 1 1;
#X msg -13 113 title Mandala \, frame 30 \, size 400 400 \, color 0
0 0;
#X obj 338 179 pix_texture;
#X text 483 115 open an image;
#X text 417 143 set the draw color of the image;
#X text 421 178 load the image into a graphics texture;
#X obj 338 344 gemlist;
#X obj 338 290 until;
#X obj 338 242 t b a;
#X obj 338 436 rotateXYZ 0 0 0;
#X obj 338 314 t a b;
#X obj 425 368 f;
#X msg 440 340 0;
#X obj 338 210 alpha;
#X obj 338 403 translateXYZ 200 200 0;
#X obj 456 368 + 60;
#X obj 338 464 translateXYZ 0 50 0;
#X floatatom 501 420 5 0 0 1 distance_from_center - -;
#X msg 338 266 6;
#X obj 501 389 * 200;
#X obj 338 376 gem_push;
#X obj 338 555 gem_pop;
#X obj 338 492 rotateXYZ 0 0 0;
#X floatatom 687 448 5 0 0 1 rotation_in_degrees - -;
#X obj 687 420 * 360;
#X obj 687 391 c_lfo spin 0.05 1 saw;
#X obj 501 358 c_lfo distance 0.25 1 sine;
#X obj 654 323 g_hsl freq 0 2;
#X text 379 212 enable alpha for images with transparency;
#X obj 654 289 g_tgl on;
#X obj 810 358 g_hsl freq 0 2;
#X obj 810 324 g_tgl on;
#X text 505 523 map the image texture onto a centered square;
#X obj 338 115 pix_image lime-cat.png;
#X obj -18 297 pix_texture;
#X obj -18 268 pix_image rainbow.jpeg;
#X obj 338 86 gemhead 2;
#X obj -16 405 gemhead 3;
#X obj -16 464 pix_texture;
#X obj -16 434 pix_image dunecat.png;
#X obj 175 438 g_hsl freq 0 2;
#X obj 175 404 g_tgl on;
#X floatatom 131 528 5 0 0 1 size - -;
#X obj -16 492 alpha;
#X text 384 246 this until block acts like a for loop where everything
below the [gemlist] is repeated 6 times;
#X obj 131 475 c_lfo zoom 0.05 1 sine;
#X obj -16 554 gem_square 0 0 200 center;
#X obj -18 328 gem_rect 0 0 400 400;
#X obj 419 91 ortho;
#X obj 338 523 gem_square 0 0 100 center;
#X obj -16 519 translateXYZ 200 200 0;
#X obj 131 502 m_scale 0 1 0 300;
#X text -4 380 center cat;
#X obj -18 240 gemhead 1;
#X text -6 216 background;
#X text 413 295 each time a new rotation is calculated;
#X connect 2 0 4 0;
#X connect 3 0 4 0;
#X connect 5 0 11 0;
#X connect 10 0 12 0;
#X connect 11 0 4 0;
#X connect 12 0 23 0;
#X connect 16 0 30 0;
#X connect 17 0 20 0;
#X connect 18 0 28 0;
#X connect 18 1 16 1;
#X connect 18 1 22 0;
#X connect 19 0 26 0;
#X connect 20 0 16 0;
#X connect 20 1 21 0;
#X connect 21 0 19 3;
#X connect 21 0 25 0;
#X connect 22 0 21 1;
#X connect 23 0 18 0;
#X connect 24 0 19 0;
#X connect 25 0 21 1;
#X connect 26 0 32 0;
#X connect 27 0 26 2;
#X connect 28 0 17 0;
#X connect 29 0 27 0;
#X connect 30 0 24 0;
#X connect 32 0 59 0;
#X connect 33 0 32 3;
#X connect 34 0 33 0;
#X connect 35 0 34 0;
#X connect 36 0 29 0;
#X connect 37 0 36 1;
#X connect 39 0 37 0;
#X connect 40 0 35 1;
#X connect 41 0 40 0;
#X connect 43 0 10 0;
#X connect 44 0 57 0;
#X connect 45 0 44 0;
#X connect 46 0 43 0;
#X connect 47 0 49 0;
#X connect 48 0 53 0;
#X connect 49 0 48 0;
#X connect 50 0 55 1;
#X connect 51 0 50 0;
#X connect 52 0 56 3;
#X connect 53 0 60 0;
#X connect 55 0 61 0;
#X connect 58 0 43 0;
#X connect 59 0 31 0;
#X connect 60 0 56 0;
#X connect 61 0 52 0;
#X connect 63 0 45 0;
