#N canvas 579 22 822 712 10;
#X declare -path ../externals/rc-patches/extra -path ../externals/rc-patches/rc
-path ../externals/rc-patches/rc-patches;
#X declare -path ../externals/rjlib/rj -path ../externals/pd;
#X obj 8 9 cnv 15 360 180 empty empty Setup 5 12 0 14 -233017 -66577
0;
#X msg 92 123 reset;
#X text 135 122 reset the window;
#N canvas 0 22 386 154 externals 0;
#X text 14 16 add search paths to local libraries here;
#X obj 16 47 declare -path ../externals/rc-patches/extra -path ../externals/rc-patches/rc
-path ../externals/rc-patches/rc-patches;
#X obj 15 106 declare -path ../externals/rjlib/rj -path ../externals/pd
;
#X restore 275 20 pd externals;
#X obj 24 242 gemhead;
#X obj 24 280 glsl_fragment;
#X obj 24 442 glsl_program;
#X msg 99 242 open shader.frag;
#X msg 49 311 print;
#X obj 99 311 change;
#X msg 99 338 link \$1;
#X obj 99 213 loadbang;
#X text 157 339 link the fragment shader id;
#X text 115 280 load the fragment shader;
#X text 111 444 run the shader program;
#X text 257 47 2015 Dan Wilcox;
#X obj 22 147 gemwin;
#X msg 31 77 create \, 1;
#X msg 97 78 destroy;
#X obj 22 46 tgl 15 0 empty empty empty 17 7 0 10 -262144 -1 -1 0 1
;
#X obj 24 500 square 4;
#X text 35 472 shader affects things below it in render chain;
#X msg 421 226 iGlobalTime \$1;
#X floatatom 421 202 5 0 0 0 - - -;
#X obj 420 51 metro 33;
#X obj 420 27 tgl 15 0 empty empty empty 17 7 0 10 -262144 -1 -1 1
1;
#X obj 441 27 loadbang;
#X obj 420 75 f;
#X obj 448 75 + 1;
#X obj 479 75 % 360;
#X obj 421 119 line;
#X obj 420 98 pack f 500;
#X obj 421 141 / 100;
#X msg 422 463 iResolution 500 500;
#X text 417 502 2016 Sofy Yuditskaya;
#X msg 422 419 iMouse \$1 \$2;
#X obj 422 322 gemmouse;
#X floatatom 422 348 5 0 0 0 - - -;
#X floatatom 458 346 5 0 0 0 - - -;
#X obj 440 379 t b a;
#X obj 422 399 pack f f;
#X connect 1 0 16 0;
#X connect 4 0 5 0;
#X connect 5 0 6 0;
#X connect 5 1 9 0;
#X connect 6 0 20 0;
#X connect 7 0 5 0;
#X connect 8 0 6 0;
#X connect 9 0 10 0;
#X connect 10 0 6 0;
#X connect 11 0 7 0;
#X connect 17 0 16 0;
#X connect 17 0 33 0;
#X connect 18 0 16 0;
#X connect 19 0 16 0;
#X connect 22 0 6 0;
#X connect 23 0 22 0;
#X connect 24 0 27 0;
#X connect 25 0 24 0;
#X connect 26 0 25 0;
#X connect 27 0 28 0;
#X connect 27 0 31 0;
#X connect 28 0 29 0;
#X connect 29 0 27 1;
#X connect 30 0 32 0;
#X connect 31 0 30 0;
#X connect 32 0 23 0;
#X connect 33 0 6 0;
#X connect 35 0 6 0;
#X connect 36 0 37 0;
#X connect 36 1 38 0;
#X connect 37 0 40 0;
#X connect 38 0 39 0;
#X connect 39 0 40 0;
#X connect 39 1 40 1;
#X connect 40 0 35 0;
