#N canvas 560 23 519 650 10;
#X declare -path ../rc-patches;
#X declare -path ../rc-patches;
#X declare -path ../rc;
#X declare -path ../../externals/rjlib/rj -path ../../externals/pd
;
#X declare -path ../../externals/rc-patches/extra -path ../../externals/rc-patches/rc
-path ../../externals/rc-patches/rc-patches;
#X msg 133 282 open test_clip.mov;
#X msg 262 280 open test_clip2.mp4;
#X obj 133 249 loadbang;
#X obj 33 330 tgl 15 0 empty empty play 17 7 0 10 -262144 -1 -1 1 1
;
#X obj 393 339 tgl 15 0 empty empty play 17 7 0 10 -262144 -1 -1 1
1;
#X obj 19 475 gem_videoplayer;
#X obj 365 475 gem_videoplayer;
#X obj 2 3 cnv 15 360 200 empty empty Setup 5 12 0 14 -233017 -66577
0;
#X msg 43 140 reset;
#X obj 16 172 gem_win;
#X obj 30 83 loadbang;
#X text 102 54 set the window title \, the framerate \,;
#X text 86 139 reset the window;
#X obj 16 37 g_tgl run;
#X text 263 179 2012 Dan Wilcox;
#N canvas 0 25 349 162 externals 0;
#X text 19 23 add search paths to local libraries here;
#X obj 20 113 declare -path ../../externals/rjlib/rj -path ../../externals/pd
;
#X obj 21 54 declare -path ../../externals/rc-patches/extra -path ../../externals/rc-patches/rc
-path ../../externals/rc-patches/rc-patches;
#X restore 278 14 pd externals;
#X text 102 70 the window size \, and use a norm viewport;
#X msg 33 353 play \$1;
#X msg 393 361 play \$1;
#X obj 19 613 rectangle 6 4;
#X obj 365 612 rectangle 6 4;
#X obj 365 251 gemhead;
#X obj 19 255 gemhead;
#X obj 19 556 alpha;
#X obj 19 584 color 1 1 1 1;
#X msg 94 556 1 1 1 \$1;
#X floatatom 94 531 5 0 0 1 alpha - -, f 5;
#X obj 144 407 hsl 128 15 0 1 0 0 empty empty L----------M----------R
-4 -8 0 10 -262144 -1 -1 400 1;
#X obj 365 554 alpha;
#X obj 365 583 color 1 1 1 1;
#X msg 440 554 1 1 1 \$1;
#X floatatom 440 529 5 0 0 1 alpha - -, f 5;
#X msg 264 365 1;
#X text 111 214 alpha fade between two videos;
#X msg 30 111 title Mixer \, frame 30 \, dimen 400 300 \, defaultView
;
#X obj 141 475 m_scale 0 1 1 0;
#X msg 141 366 0;
#X msg 199 365 0.5;
#X msg 33 305 1;
#X msg 393 314 1;
#X connect 0 0 5 0;
#X connect 0 0 38 0;
#X connect 1 0 6 0;
#X connect 1 0 39 0;
#X connect 2 0 0 0;
#X connect 2 0 1 0;
#X connect 3 0 17 0;
#X connect 4 0 18 0;
#X connect 5 0 23 0;
#X connect 6 0 28 0;
#X connect 8 0 9 0;
#X connect 10 0 34 0;
#X connect 13 0 9 0;
#X connect 17 0 5 0;
#X connect 18 0 6 0;
#X connect 21 0 6 0;
#X connect 22 0 5 0;
#X connect 23 0 24 0;
#X connect 24 0 19 0;
#X connect 25 0 24 1;
#X connect 26 0 25 0;
#X connect 27 0 35 0;
#X connect 27 0 31 0;
#X connect 28 0 29 0;
#X connect 29 0 20 0;
#X connect 30 0 29 1;
#X connect 31 0 30 0;
#X connect 32 0 27 0;
#X connect 34 0 9 0;
#X connect 35 0 26 0;
#X connect 36 0 27 0;
#X connect 37 0 27 0;
#X connect 38 0 3 0;
#X connect 39 0 4 0;
