#N canvas 585 304 363 356 10;
#X obj 206 261 videolooper;
#X obj 56 261 videolooper;
#X msg 56 117 open test_clip.mov;
#X msg 206 118 open test_clip2.mp4;
#N canvas 0 22 450 300 gemwin 0;
#X obj 132 136 gemwin;
#X obj 67 89 outlet;
#X obj 67 10 inlet;
#X msg 67 70 set destroy;
#X msg 132 112 create \, 1;
#X msg 198 112 destroy;
#X msg 156 71 set create;
#X obj 67 41 route create;
#X connect 2 0 7 0;
#X connect 3 0 1 0;
#X connect 4 0 0 0;
#X connect 5 0 0 0;
#X connect 6 0 1 0;
#X connect 7 0 3 0;
#X connect 7 0 4 0;
#X connect 7 1 6 0;
#X connect 7 1 5 0;
#X restore 35 47 pd gemwin;
#X msg 35 28 destroy;
#X text 33 -40 1- Create a GEM window;
#X obj 35 2 loadbang;
#X obj 66 205 tgl 15 0 empty empty draw 17 7 0 10 -262144 -1 -1 0 1
;
#N canvas 791 95 271 232 switcher 0;
#X msg 76 94 1;
#X msg 49 96 0;
#X obj 49 170 outlet;
#X obj 172 164 outlet;
#X obj 76 23 inlet;
#X msg 139 97 1;
#X msg 171 96 0;
#X obj 76 59 moses 1;
#X connect 0 0 3 0;
#X connect 1 0 2 0;
#X connect 4 0 7 0;
#X connect 5 0 2 0;
#X connect 6 0 3 0;
#X connect 7 0 0 0;
#X connect 7 0 1 0;
#X connect 7 1 5 0;
#X connect 7 1 6 0;
#X restore 111 180 pd switcher;
#X obj 111 154 tgl 15 0 empty empty choose_video 17 7 0 10 -262144
-1 -1 0 1;
#X obj 153 40 loadbang;
#X obj 71 235 tgl 15 0 empty empty play 17 7 0 10 -262144 -1 -1 0 1
;
#X obj 213 207 tgl 15 0 empty empty draw 17 7 0 10 -262144 -1 -1 0
1;
#X obj 221 233 tgl 15 0 empty empty play 17 7 0 10 -262144 -1 -1 0
1;
#X text 146 8 2 - Switch between the clips;
#X connect 2 0 1 0;
#X connect 3 0 0 0;
#X connect 4 0 5 0;
#X connect 5 0 4 0;
#X connect 7 0 5 0;
#X connect 8 0 1 0;
#X connect 9 0 8 0;
#X connect 9 0 12 0;
#X connect 9 1 13 0;
#X connect 9 1 14 0;
#X connect 10 0 9 0;
#X connect 11 0 2 0;
#X connect 11 0 3 0;
#X connect 12 0 1 1;
#X connect 13 0 0 1;
#X connect 14 0 0 1;
