#N canvas 644 61 625 584 10;
#X floatatom 275 73 3 0 0 0 - - -;
#N canvas 0 22 450 300 gemwin 0;
#X obj 132 136 gemwin;
#X obj 67 89 outlet;
#X obj 67 10 inlet;
#X msg 67 70 set destroy;
#X msg 132 112 create \, 1;
#X msg 198 112 destroy;
#X msg 156 71 set create;
#X obj 67 41 route create;
#X connect 2 0 7 0;
#X connect 3 0 1 0;
#X connect 4 0 0 0;
#X connect 5 0 0 0;
#X connect 6 0 1 0;
#X connect 7 0 3 0;
#X connect 7 0 4 0;
#X connect 7 1 6 0;
#X connect 7 1 5 0;
#X restore 25 37 pd gemwin;
#X msg 25 18 destroy;
#X text 23 -50 1- Create a GEM window;
#X obj 25 -8 loadbang;
#X obj 275 41 keyname;
#X symbolatom 356 72 10 0 0 0 - - -;
#X obj 64 312 tgl 20 0 empty empty play 24 7 0 10 -262144 -1 -1 0 1
;
#X msg 49 102 open test_clip.mov;
#X obj 49 466 unpack f f f;
#X obj 298 314 hsl 128 15 0 1 0 0 empty empty 0-1_frame_position 8
8 0 10 -262144 -1 -1 4150 1;
#X obj 295 397 int;
#X obj 49 75 loadbang;
#X obj 453 316 hsl 128 15 0 1 0 0 empty empty 0-1_loop_length 8 8 0
10 -262144 -1 -1 12700 1;
#X obj 450 398 int;
#X obj 398 346 r \$0-framelen;
#X obj 49 437 videolooper;
#X text 123 73 laod a movie file;
#X obj 295 371 maxlib/scale 0 1 0 255;
#X obj 450 372 maxlib/scale 0 1 0 2;
#X obj 49 497 s \$0-framelen;
#X text 140 476 set the loop controls max with the num of frames;
#X obj 154 313 hsl 128 15 1 60 0 0 empty empty 1-60_fps 8 8 0 10 -262144
-1 -1 12700 1;
#N canvas 0 22 283 244 makekeypair 0;
#X obj 52 47 inlet onoff;
#X obj 119 81 inlet keyname;
#X obj 52 115 symbol;
#X obj 52 145 pack s f;
#X obj 52 77 t b f;
#X obj 52 183 list trim;
#X obj 52 210 outlet;
#X connect 0 0 4 0;
#X connect 1 0 2 1;
#X connect 2 0 3 0;
#X connect 3 0 5 0;
#X connect 4 0 2 0;
#X connect 4 1 3 1;
#X connect 5 0 6 0;
#X restore 275 102 pd makekeypair;
#X obj 64 186 sel 1;
#X msg 151 285 30;
#N canvas 0 22 239 270 change 0;
#X obj 63 38 inlet;
#X obj 106 39 inlet;
#X obj 76 217 outlet;
#X obj 63 70 sel 1;
#X obj 106 71 sel 1;
#X obj 63 127 t b f;
#X obj 76 179 + 0;
#X obj 63 152 f 1;
#X msg 106 95 0.02;
#X msg 63 95 -0.02;
#X connect 0 0 3 0;
#X connect 1 0 4 0;
#X connect 3 0 9 0;
#X connect 4 0 8 0;
#X connect 5 0 7 0;
#X connect 5 1 6 1;
#X connect 6 0 2 0;
#X connect 6 0 7 1;
#X connect 7 0 6 0;
#X connect 8 0 5 0;
#X connect 9 0 5 0;
#X restore 450 260 pd change length;
#N canvas 0 22 450 300 change 0;
#X obj 82 59 inlet;
#X obj 216 54 inlet;
#X obj 137 234 outlet;
#X obj 141 170 f 1;
#X obj 146 88 sel 1;
#X obj 189 89 sel 1;
#X obj 143 145 t b f;
#X obj 178 197 + 0;
#X msg 146 113 -0.02;
#X msg 189 113 0.02;
#X connect 0 0 4 0;
#X connect 1 0 5 0;
#X connect 3 0 7 0;
#X connect 4 0 8 0;
#X connect 5 0 9 0;
#X connect 6 0 3 0;
#X connect 6 1 7 1;
#X connect 7 0 3 1;
#X connect 7 0 2 0;
#X connect 8 0 6 0;
#X connect 9 0 6 0;
#X restore 295 260 pd change speed;
#X obj 151 261 loadbang;
#X obj 275 131 route Space Left Right Down Up;
#X obj 21 362 tgl 15 0 empty empty empty 17 7 0 10 -262144 -1 -1 0
1;
#X text 264 3 2 - Play with the video file;
#X msg 56 133 open test_clip2.mp4;
#X connect 0 0 23 0;
#X connect 1 0 2 0;
#X connect 2 0 1 0;
#X connect 4 0 2 0;
#X connect 5 0 0 0;
#X connect 5 1 6 0;
#X connect 6 0 23 1;
#X connect 7 0 16 1;
#X connect 8 0 16 0;
#X connect 9 0 20 0;
#X connect 10 0 18 0;
#X connect 11 0 16 3;
#X connect 12 0 8 0;
#X connect 13 0 19 0;
#X connect 14 0 16 4;
#X connect 15 0 18 4;
#X connect 15 0 19 4;
#X connect 16 0 9 0;
#X connect 18 0 11 0;
#X connect 19 0 14 0;
#X connect 22 0 16 2;
#X connect 23 0 29 0;
#X connect 24 0 7 0;
#X connect 25 0 22 0;
#X connect 26 0 13 0;
#X connect 27 0 10 0;
#X connect 28 0 25 0;
#X connect 29 0 24 0;
#X connect 29 1 27 0;
#X connect 29 2 27 1;
#X connect 29 3 26 0;
#X connect 29 4 26 1;
#X connect 30 0 16 0;
#X connect 32 0 16 0;
