#N canvas 275 35 476 553 10;
#X obj -99 420 pix_film;
#X obj -126 27 inlet;
#X obj -54 107 inlet play;
#X obj -54 158 moses 1;
#X msg -54 184 0;
#X msg -15 185 1;
#X obj -54 133 change;
#X obj -9 245 expr 1/$f1*1000;
#X obj -9 272 abs;
#X obj -9 220 inlet fps;
#X obj 34 275 inlet frame pos;
#X obj 90 299 inlet loopsize in frames;
#X obj -54 389 counter 1 4;
#X msg -28 349 min \$1;
#X obj 34 328 t f f;
#X obj 61 366 + 4;
#X obj 90 329 t b f;
#N canvas 31 368 450 300 args 0;
#X obj 14 78 loadbang;
#X obj 14 140 list append \$1;
#X obj 14 171 sel 0;
#X obj 147 169 sel 0;
#X msg 147 193 30;
#X obj 41 216 outlet filename;
#X obj 174 218 outlet fps;
#X obj 244 136 f \$3;
#X obj 147 136 f \$2;
#X obj 271 217 outlet playing;
#X connect 0 0 1 0;
#X connect 0 0 8 0;
#X connect 0 0 7 0;
#X connect 1 0 2 0;
#X connect 2 1 5 0;
#X connect 3 0 4 0;
#X connect 3 1 6 0;
#X connect 4 0 6 0;
#X connect 7 0 9 0;
#X connect 8 0 3 0;
#X restore -186 114 pd args;
#X obj -54 301 metro 30;
#X obj -51 453 outlet lwh;
#X obj 25 453 outlet finished;
#X obj -99 479 pix_texture;
#X obj -99 510 rectangle 4 3;
#X obj -126 82 gemhead;
#X obj -126 55 route float;
#X connect 0 0 21 0;
#X connect 0 1 19 0;
#X connect 0 1 16 0;
#X connect 0 2 20 0;
#X connect 1 0 24 0;
#X connect 2 0 6 0;
#X connect 3 0 4 0;
#X connect 3 1 5 0;
#X connect 4 0 18 0;
#X connect 5 0 18 0;
#X connect 6 0 3 0;
#X connect 7 0 8 0;
#X connect 8 0 18 1;
#X connect 9 0 7 0;
#X connect 10 0 14 0;
#X connect 11 0 16 0;
#X connect 12 0 0 1;
#X connect 13 0 12 0;
#X connect 14 0 12 3;
#X connect 14 0 13 0;
#X connect 14 1 15 0;
#X connect 15 0 12 4;
#X connect 16 0 15 0;
#X connect 16 1 15 1;
#X connect 17 0 0 0;
#X connect 17 1 7 0;
#X connect 17 2 6 0;
#X connect 18 0 12 0;
#X connect 21 0 22 0;
#X connect 23 0 0 0;
#X connect 24 0 23 0;
#X connect 24 1 0 0;
