#N canvas 343 23 603 689 10;
#X declare -path ../rc;
#X declare -path ../../externals/rc-patches/extra -path ../../externals/rc-patches/rc
-path ../../externals/rc-patches/rc-patches;
#X declare -path ../../externals/rjlib/rj -path ../../externals/pd
;
#X obj 8 9 cnv 15 360 180 empty empty Setup 5 12 0 14 -233017 -66577
0;
#X msg 49 134 reset;
#X obj 22 166 gem_win;
#X obj 36 77 loadbang;
#X text 92 133 reset the window;
#X obj 22 39 g_tgl run;
#N canvas 0 22 386 154 externals 0;
#X text 14 16 add search paths to local libraries here;
#X obj 16 47 declare -path ../../externals/rc-patches/extra -path ../../externals/rc-patches/rc
-path ../../externals/rc-patches/rc-patches;
#X obj 15 106 declare -path ../../externals/rjlib/rj -path ../../externals/pd
;
#X restore 275 20 pd externals;
#X obj 24 209 gemhead;
#X msg 42 430 print;
#X obj 112 210 loadbang;
#X text 112 525 run the shader program;
#X text 257 47 2015 Dan Wilcox;
#X obj 247 399 u_count;
#X msg 112 265 open shader.frag;
#X msg 247 452 u_time \$1;
#X floatatom 247 427 0 0 0 0 frame_count - -;
#X obj 24 328 glsl_vertex;
#X obj 24 292 glsl_fragment;
#X obj 99 432 pack f f;
#X msg 99 456 link \$1 \$2;
#X msg 139 292 open shader.vert;
#X msg 176 210 bang;
#X msg 117 606 draw line;
#X obj 24 522 glsl_program;
#N canvas 0 22 264 207 rotate 0;
#X obj 52 24 inlet;
#X obj 52 145 outlet;
#X obj 130 52 route x y z;
#X obj 52 112 rotateXYZ;
#X obj 130 24 inlet;
#X connect 0 0 3 0;
#X connect 2 0 3 1;
#X connect 2 1 3 2;
#X connect 2 2 3 3;
#X connect 3 0 1 0;
#X connect 4 0 2 0;
#X restore 24 579 pd rotate;
#X obj 416 453 g_hsl x 0 360;
#X obj 416 483 g_hsl y 0 360;
#X obj 416 513 g_hsl z 0 360;
#X msg 247 370 bang;
#X obj 417 38 g_hsl red 0 1;
#X obj 417 68 g_hsl green 0 1;
#X obj 417 99 g_hsl blue 0 1;
#N canvas 0 22 227 278 u_color 0;
#X obj 41 26 inlet;
#X obj 41 232 outlet;
#X obj 41 64 route red green blue;
#X obj 41 145 pack 0 0 0 1;
#X obj 80 97 t b f;
#X obj 119 98 t b f;
#X obj 41 175 list prepend u_color;
#X obj 41 203 list trim;
#X connect 0 0 2 0;
#X connect 2 0 3 0;
#X connect 2 1 4 0;
#X connect 2 2 5 0;
#X connect 3 0 6 0;
#X connect 4 0 3 0;
#X connect 4 1 3 1;
#X connect 5 0 3 0;
#X connect 5 1 3 2;
#X connect 6 0 7 0;
#X connect 7 0 1 0;
#X restore 417 137 pd u_color;
#X obj 117 580 loadbang;
#X msg 296 370 reset;
#X obj 24 631 teapot 2;
#X text 212 585 fragment shader that sets the color;
#X text 214 640 http://zach.in.tu-clausthal.de/teaching/cg_literatur/glsl_tutorial
;
#X text 214 623 adapted from GLSL Tutorial von Lighthouse3D;
#X text 413 428 rotation;
#X obj 112 238 t b b;
#X text 305 399 u_time frame counter used for animation;
#X obj 99 399 change;
#X obj 144 399 change;
#X msg 36 105 title Shader Example \, defaultView \, frame 60;
#X obj 99 491 r \$0-uniforms;
#X obj 417 166 s \$0-uniforms;
#X obj 247 479 s \$0-uniforms;
#X text 107 331 open & link fragment & vertex shaders;
#X floatatom 417 263 0 0.01 2 0 animation_speed - -;
#X msg 417 290 u_speed \$1;
#X obj 420 234 hsl 128 15 0.01 0.5 0 0 empty empty empty -2 -8 0 10
-262144 -1 -1 2600 0;
#X obj 417 320 s \$0-uniforms;
#X text 213 603 vertex shader that moves the z pos using sin & u_time
;
#X connect 1 0 2 0;
#X connect 3 0 44 0;
#X connect 5 0 2 0;
#X connect 7 0 17 0;
#X connect 8 0 23 0;
#X connect 9 0 40 0;
#X connect 12 0 15 0;
#X connect 13 0 17 0;
#X connect 14 0 47 0;
#X connect 15 0 14 0;
#X connect 16 0 23 0;
#X connect 16 0 28 0;
#X connect 16 1 43 0;
#X connect 17 0 16 0;
#X connect 17 1 42 0;
#X connect 18 0 19 0;
#X connect 19 0 23 0;
#X connect 20 0 16 0;
#X connect 21 0 40 0;
#X connect 22 0 35 0;
#X connect 23 0 24 0;
#X connect 24 0 35 0;
#X connect 25 0 26 0;
#X connect 26 0 27 0;
#X connect 27 0 24 1;
#X connect 28 0 12 0;
#X connect 29 0 30 0;
#X connect 30 0 31 0;
#X connect 31 0 32 0;
#X connect 32 0 46 0;
#X connect 33 0 22 0;
#X connect 34 0 12 0;
#X connect 40 0 13 0;
#X connect 40 1 20 0;
#X connect 42 0 18 0;
#X connect 43 0 18 1;
#X connect 44 0 2 0;
#X connect 45 0 23 0;
#X connect 49 0 50 0;
#X connect 50 0 52 0;
#X connect 51 0 49 0;
