#N canvas 601 22 486 658 10;
#X declare -path ../../externals/gem;
#X obj -11 264 gemhead;
#N canvas 0 22 281 165 externals 0;
#X text 19 23 add search paths to local libraries here;
#X obj 21 56 declare -path ../../externals/gem;
#X restore 337 15 pd externals;
#X obj -41 5 cnv 15 360 200 empty empty Setup 5 12 0 14 -233017 -66577
0;
#X obj -27 36 tgl 30 0 empty empty run 32 7 0 10 -262144 -1 -1 0 1
;
#X msg 0 142 reset;
#X obj -27 174 gem_win;
#X obj -13 85 loadbang;
#X text 50 53 set the window title \, the framerate \,;
#X text 50 69 the window size \, and the background color;
#X text 43 141 reset the window;
#X text -17 222 this is a GEM render chain \, everything connected
under the [gemhead] is drawn to the screen;
#X obj -11 326 color 1 1 1;
#X obj -11 359 pix_texture;
#X text 229 293 open an image;
#X text 69 326 set the draw color of the image;
#X text 72 358 load the image into a graphics texture;
#X text 151 614 map the image texture onto a rect;
#X msg 4 555 mode center;
#X obj -11 295 pix_image mouth-and-heart-disease.jpeg;
#X floatatom 101 483 5 0 0 0 dB - -;
#X obj 56 403 adc~;
#X obj 56 429 env~;
#X floatatom 101 578 5 0 0 0 pixels - -;
#X obj -11 614 gem_rect 200 200 200 200;
#X obj 4 531 loadbang;
#X text 91 401 read from the mic;
#X text 93 427 get the signal volume in dB;
#X text -37 506 draw to the center;
#X obj 101 554 mavg 3;
#X text 149 553 smooth the movement by averaging every 3 values;
#X obj 218 483 v gem_height;
#X obj 218 456 loadbang;
#X text 303 483 use window height;
#X obj 56 455 moses 50;
#X text 262 510 convert 50-100 dB to 0-400;
#X obj 101 511 maxlib/scale 50 100 0 400;
#X text 150 579 set the height;
#X msg -13 113 title MicMouth \, frame 30 \, size 400 400 \, color
0 0 0;
#X msg 56 481 0;
#X connect 0 0 18 0;
#X connect 3 0 5 0;
#X connect 4 0 5 0;
#X connect 6 0 37 0;
#X connect 11 0 12 0;
#X connect 12 0 23 0;
#X connect 17 0 23 0;
#X connect 18 0 11 0;
#X connect 19 0 35 0;
#X connect 20 0 21 0;
#X connect 21 0 33 0;
#X connect 22 0 23 4;
#X connect 24 0 17 0;
#X connect 28 0 22 0;
#X connect 30 0 35 4;
#X connect 31 0 30 0;
#X connect 33 0 38 0;
#X connect 33 1 19 0;
#X connect 35 0 28 0;
#X connect 37 0 5 0;
#X connect 38 0 22 0;
