#N canvas 0 25 411 296 12;
#X obj 80 39 inlet;
#X obj 80 243 throw~;
#X obj 106 175 catch~ sf\$1;
#X obj 231 114 pack s \$1;
#X msg 231 143 sf\$2 -> \$1;
#X obj 231 175 print;
#X msg 80 138 set \$1;
#X obj 80 105 symbol;
#X obj 106 211 *~ 1;
#X obj 80 71 route output gain;
#X text 157 35 maps sf channel to output;
#X connect 0 0 9 0;
#X connect 2 0 8 0;
#X connect 3 0 4 0;
#X connect 4 0 5 0;
#X connect 6 0 1 0;
#X connect 7 0 6 0;
#X connect 8 0 1 0;
#X connect 9 0 3 0;
#X connect 9 0 7 0;
#X connect 9 1 8 1;
