#N canvas 413 335 846 535 12;
#X obj 59 190 readsf~ 8, f 39;
#X msg 154 147 0;
#X msg 59 147 open \$1 \, 1;
#X obj 59 119 openpanel;
#X obj 59 67 bng 15 250 50 0 empty empty empty 17 7 0 10 -262144 -1
-1;
#X obj 59 90 t b b;
#X obj 295 236 throw~ sf8;
#X obj 261 270 throw~ sf7;
#X obj 227 301 throw~ sf6;
#X obj 194 331 throw~ sf5;
#X obj 160 362 throw~ sf4;
#X obj 126 400 throw~ sf3;
#X obj 92 435 throw~ sf2;
#X obj 59 469 throw~ sf1;
#X obj 412 165 clone -s 1 channelmap 8;
#X obj 412 101 bng 15 250 50 0 empty empty empty 17 7 0 10 -262144
-1 -1;
#N canvas 0 25 476 457 randomize 0;
#X obj 76 130 until;
#X msg 76 70 8;
#X msg 120 164 clear;
#X obj 76 193 c_urn 8;
#X obj 76 100 t f b;
#X obj 131 292 + 1;
#X obj 76 253 t b f;
#X obj 76 291 f 1;
#X msg 172 164 1;
#X obj 76 223 + 1;
#X obj 76 321 pack f f;
#X msg 76 351 \$1 output output\$2;
#X obj 132 132 t b b;
#X obj 76 386 outlet;
#X text 199 213 id 1-8 with randomized output#;
#X obj 76 37 inlet;
#X connect 0 0 3 0;
#X connect 1 0 4 0;
#X connect 2 0 3 0;
#X connect 3 0 9 0;
#X connect 4 0 0 0;
#X connect 4 1 12 0;
#X connect 5 0 7 1;
#X connect 6 0 7 0;
#X connect 6 1 10 1;
#X connect 7 0 5 0;
#X connect 7 0 10 0;
#X connect 8 0 7 1;
#X connect 9 0 6 0;
#X connect 10 0 11 0;
#X connect 11 0 13 0;
#X connect 12 0 2 0;
#X connect 12 1 8 0;
#X connect 15 0 1 0;
#X restore 412 130 pd randomize channels;
#X obj 444 100 loadbang;
#X obj 413 467 dac~ 1 2 3 4 5 6 7 8, f 41;
#X obj 413 227 catch~ output1;
#X obj 453 256 catch~ output2;
#X obj 494 284 catch~ output3;
#X obj 534 316 catch~ output4;
#X obj 575 345 catch~ output5;
#X obj 615 373 catch~ output6;
#X obj 656 402 catch~ output7;
#X obj 697 431 catch~ output8;
#X obj 588 77 hradio 15 1 0 8 empty empty empty 0 -8 0 10 -262144 -1
-1 0;
#X obj 588 101 + 1;
#X obj 644 104 hsl 64 15 0 1 0 0 empty empty gain 8 8 0 10 -262144
-1 -1 2300 1;
#X obj 588 130 pack f f;
#X text 411 70 mapping;
#X text 120 86 sf channels;
#X text 550 224 outputs;
#X text 27 29 8 channel file player with randomized output channels
;
#X text 658 130 per-channel gain;
#X connect 0 0 13 0;
#X connect 0 1 12 0;
#X connect 0 2 11 0;
#X connect 0 3 10 0;
#X connect 0 4 9 0;
#X connect 0 5 8 0;
#X connect 0 6 7 0;
#X connect 0 7 6 0;
#X connect 1 0 0 0;
#X connect 2 0 0 0;
#X connect 3 0 2 0;
#X connect 4 0 5 0;
#X connect 5 0 3 0;
#X connect 15 0 16 0;
#X connect 16 0 14 0;
#X connect 17 0 16 0;
#X connect 19 0 18 0;
#X connect 20 0 18 1;
#X connect 21 0 18 2;
#X connect 22 0 18 3;
#X connect 23 0 18 4;
#X connect 24 0 18 5;
#X connect 25 0 18 6;
#X connect 26 0 18 7;
#X connect 27 0 28 0;
#X connect 28 0 30 0;
#X connect 29 0 30 1;
#X connect 30 0 14 0;
