#N canvas 601 22 509 648 10;
#X declare -path ../rc;
#X declare -path ../../externals/rjlib/rj -path ../../externals/pd
;
#X declare -path ../../externals/rc-patches/extra -path ../../externals/rc-patches/rc
-path ../../externals/rc-patches/rc-patches;
#X obj 32 261 gemhead;
#X obj 2 2 cnv 15 360 200 empty empty Setup 5 12 0 14 -233017 -66577
0;
#X msg 43 139 reset;
#X obj 16 171 gem_win;
#X obj 30 82 loadbang;
#X text 93 50 set the window title \, the framerate \,;
#X text 86 138 reset the window;
#X obj 32 323 color 1 1 1;
#X obj 32 356 pix_texture;
#X text 272 290 open an image;
#X text 112 323 set the draw color of the image;
#X text 115 355 load the image into a graphics texture;
#X text 194 611 map the image texture onto a rect;
#X obj 32 292 pix_image mouth-and-heart-disease.jpeg;
#X floatatom 144 480 5 0 0 0 dB - -, f 5;
#X obj 99 400 adc~;
#X obj 99 426 env~;
#X floatatom 144 575 5 0 0 0 pixels - -, f 5;
#X obj 32 611 gem_rect 200 200 200 200;
#X text 134 398 read from the mic;
#X text 136 424 get the signal volume in dB;
#X obj 237 480 v gem_height;
#X obj 237 453 loadbang;
#X text 322 480 use window height;
#X obj 99 452 moses 50;
#X text 305 507 convert 50-100 dB to 0-400;
#X text 193 576 set the height;
#X msg 99 478 0;
#X obj 16 39 g_tgl run;
#X msg 30 110 title MicMouth \, frame 30 \, dimen 400 400 \, pixelView
;
#X text 93 66 the window size \, and use a pixel viewport;
#X text 263 183 2011 Dan Wilcox;
#N canvas 0 22 356 153 externals 0;
#X text 11 13 add search paths to local libraries here;
#X obj 12 103 declare -path ../../externals/rjlib/rj -path ../../externals/pd
;
#X obj 13 44 declare -path ../../externals/rc-patches/extra -path ../../externals/rc-patches/rc
-path ../../externals/rc-patches/rc-patches;
#X restore 279 12 pd externals;
#X obj 144 508 m_scale 50 100 0 400;
#X obj 144 541 zexy/mavg 3;
#X text 220 540 smooth movement by averaging every 3 values;
#X obj 384 81 loadbang;
#X msg 384 111 \; pd dsp 1;
#X text 378 48 turn on dsp;
#X text 17 224 Changes the size of an image using the microphone amplitude.
;
#X connect 0 0 13 0;
#X connect 2 0 3 0;
#X connect 4 0 29 0;
#X connect 7 0 8 0;
#X connect 8 0 18 0;
#X connect 13 0 7 0;
#X connect 14 0 33 0;
#X connect 15 0 16 0;
#X connect 16 0 24 0;
#X connect 17 0 18 4;
#X connect 21 0 33 4;
#X connect 22 0 21 0;
#X connect 24 0 27 0;
#X connect 24 1 14 0;
#X connect 27 0 17 0;
#X connect 28 0 3 0;
#X connect 29 0 3 0;
#X connect 33 0 34 0;
#X connect 34 0 17 0;
#X connect 36 0 37 0;
