#N canvas 547 65 516 657 10;
#X declare -path ../externals/rclib;
#X obj 21 231 gemhead;
#N canvas 0 22 281 165 externals 0;
#X obj 21 56 declare -path ../externals/rclib;
#X text 19 23 add search paths to local libraries here;
#X restore 337 15 pd externals;
#X obj -41 5 cnv 15 360 200 empty empty Setup 5 12 0 14 -233017 -66577
0;
#X obj -27 36 tgl 30 0 empty empty run 32 7 0 10 -262144 -1 -1 1 1
;
#X msg 0 142 reset;
#X obj -27 174 gem_win;
#X obj -13 85 loadbang;
#X text 50 53 set the window title \, the framerate \,;
#X text 50 69 the window size \, and the background color;
#X msg -13 113 title Mondrain \, frame 30 \, size 400 400 \, color
0 0 0;
#X obj 21 262 color 1 0 0;
#X obj 21 330 color 0 0 1;
#X obj 21 427 color 1 1 1;
#X obj 21 296 gem_rect 105 0 295 295;
#X obj 21 389 gem_rect 0 305 95 95;
#X obj 21 498 gem_rect 0 0 95 95;
#X obj 21 535 gem_rect 0 110 95 185;
#X text 104 335 blue rect;
#X text 107 429 white rects;
#X obj 21 463 gem_rect 105 305 250 95;
#X obj 21 570 gem_rect 365 305 35 35;
#X obj 21 601 color 1 1 0;
#X obj 21 630 gem_rect 365 355 35 45;
#X text 105 601 yellow rect;
#X text 43 141 reset the window;
#X text 98 221 this is a GEM render chain \, everything connected under
the [gemhead] is drawn to the screen;
#X text 175 295 draw a red rect;
#X text 159 387 gem_rect takes pos and size arguments: x y w h;
#X text 104 262 set the color \, R G B values between 0-1;
#X floatatom 44 361 5 0 0 0 x - -;
#X floatatom 95 361 5 0 0 0 y - -;
#X floatatom 146 361 5 0 0 0 w - -;
#X floatatom 196 362 5 0 0 0 h - -;
#X text 240 362 change the rect in realtime;
#X connect 0 0 10 0;
#X connect 3 0 5 0;
#X connect 4 0 5 0;
#X connect 6 0 9 0;
#X connect 9 0 5 0;
#X connect 10 0 13 0;
#X connect 11 0 14 0;
#X connect 12 0 19 0;
#X connect 13 0 11 0;
#X connect 14 0 12 0;
#X connect 15 0 16 0;
#X connect 16 0 20 0;
#X connect 19 0 15 0;
#X connect 20 0 21 0;
#X connect 21 0 22 0;
#X connect 29 0 14 1;
#X connect 30 0 14 2;
#X connect 31 0 14 3;
#X connect 32 0 14 4;
