#N canvas 250 49 626 496 10;
#X declare -path ../externals/rclib;
#X obj 370 64 gemhead;
#N canvas 0 22 281 165 externals 0;
#X obj 21 56 declare -path ../externals/rclib;
#X text 19 23 add search paths to local libraries here;
#X restore 337 15 pd externals;
#X obj -41 5 cnv 15 360 200 empty empty Setup 5 12 0 14 -233017 -66577
0;
#X obj -27 36 tgl 30 0 empty empty run 32 7 0 10 -262144 -1 -1 1 1
;
#X msg 0 142 reset;
#X obj -27 174 gem_win;
#X obj -13 85 loadbang;
#X text 50 53 set the window title \, the framerate \,;
#X text 50 69 the window size \, and the background color;
#X msg -13 113 title Mondrain \, frame 30 \, size 400 400 \, color
0 0 0;
#X obj 370 95 color 1 0 0;
#X msg 61 145 defaultView;
#X obj 370 163 color 0 0 1;
#X obj 370 239 color 1 1 1;
#X obj 370 129 gem_rect 105 0 295 295;
#X obj 370 201 gem_rect 0 305 95 95;
#X obj 370 310 gem_rect 0 0 95 95;
#X obj 370 347 gem_rect 0 110 95 185;
#X text 454 99 red rect;
#X text 453 168 blue rect;
#X text 456 241 white rects;
#X obj 370 275 gem_rect 105 305 250 95;
#X obj 370 382 gem_rect 365 305 35 35;
#X obj 370 413 color 1 1 0;
#X obj 370 442 gem_rect 365 355 35 45;
#X text 454 413 yellow rect;
#X connect 0 0 10 0;
#X connect 3 0 5 0;
#X connect 4 0 5 0;
#X connect 6 0 9 0;
#X connect 9 0 5 0;
#X connect 10 0 14 0;
#X connect 11 0 5 0;
#X connect 12 0 15 0;
#X connect 13 0 21 0;
#X connect 14 0 12 0;
#X connect 15 0 13 0;
#X connect 16 0 17 0;
#X connect 17 0 22 0;
#X connect 21 0 16 0;
#X connect 22 0 23 0;
#X connect 23 0 24 0;
