#N canvas 585 71 508 682 10;
#X declare -path ../externals/rclib;
#X obj -11 272 gemhead;
#N canvas 0 22 281 165 externals 0;
#X obj 21 56 declare -path ../externals/rclib;
#X text 19 23 add search paths to local libraries here;
#X restore 337 15 pd externals;
#X obj -41 5 cnv 15 360 200 empty empty Setup 5 12 0 14 -233017 -66577
0;
#X obj -27 36 tgl 30 0 empty empty run 32 7 0 10 -262144 -1 -1 1 1
;
#X msg 0 142 reset;
#X obj -27 174 gem_win;
#X obj -13 85 loadbang;
#X text 50 53 set the window title \, the framerate \,;
#X text 50 69 the window size \, and the background color;
#X msg -13 113 title Mondrain \, frame 30 \, size 400 400 \, color
0 0 0;
#X text 43 141 reset the window;
#X obj 9 312 gemmouse;
#X floatatom 9 350 5 0 0 0 mouseX - -;
#X floatatom 53 369 5 0 0 0 mouseY - -;
#X obj 9 401 maxlib/scale 0 400 0 1;
#X obj 29 432 maxlib/scale 0 400 0 1;
#X obj -11 615 colorRGB 1 1 1;
#X obj -11 649 gem_rect 0 0 400 400;
#X obj 49 565 spigot;
#X obj 52 590 hsl 128 15 0 1 0 0 empty empty 0-1 8 8 0 10 -262144 -1
-1 806 1;
#X obj 82 544 tgl 15 0 empty empty turn_on_the_pulse 17 7 0 10 -262144
-1 -1 1 1;
#X obj 49 515 lfo 500 20;
#X obj 52 465 hsl 128 15 50 1000 0 0 empty empty 50-1000_speed 8 8
0 10 -262144 -1 -1 0 1;
#X msg 79 487 sin;
#X msg 111 487 saw;
#X msg 147 488 tri;
#X text 95 363 scale the pos from 0-400 to 0-1 and use it to set the
red and blue;
#X text 88 615 set the color;
#X text 124 649 draw a rectangle over the whole window;
#X text 72 314 get the mouse position;
#X text 121 509 this low frequency oscillator sweeps the blue value
back and forth from 0-1;
#X text 176 488 set the waveform type for the pulse;
#X text -17 222 this is a GEM render chain \, everything connected
under the [gemhead] is drawn to the screen;
#X connect 0 0 16 0;
#X connect 3 0 5 0;
#X connect 4 0 5 0;
#X connect 6 0 9 0;
#X connect 9 0 5 0;
#X connect 11 0 12 0;
#X connect 11 1 13 0;
#X connect 12 0 14 0;
#X connect 13 0 15 0;
#X connect 14 0 16 1;
#X connect 15 0 16 2;
#X connect 16 0 17 0;
#X connect 18 0 19 0;
#X connect 19 0 16 3;
#X connect 20 0 18 1;
#X connect 21 0 18 0;
#X connect 22 0 21 0;
#X connect 23 0 21 0;
#X connect 24 0 21 0;
#X connect 25 0 21 0;
