#N canvas 621 69 504 583 10;
#X declare -path ../../externals/rc-patches/extra -path ../../externals/rc-patches/rc
-path ../../externals/rc-patches/rc-patches;
#X declare -path ../../externals/rjlib/rj -path ../../externals/pd
;
#X obj 8 9 cnv 15 360 180 empty empty Setup 5 12 0 14 -233017 -66577
0;
#X msg 49 134 reset;
#X obj 22 166 gem_win;
#X obj 36 77 loadbang;
#X text 92 133 reset the window;
#X obj 22 39 g_tgl run;
#N canvas 0 22 386 154 externals 0;
#X text 14 16 add search paths to local libraries here;
#X obj 16 47 declare -path ../../externals/rc-patches/extra -path ../../externals/rc-patches/rc
-path ../../externals/rc-patches/rc-patches;
#X obj 15 106 declare -path ../../externals/rjlib/rj -path ../../externals/pd
;
#X restore 275 20 pd externals;
#X obj 24 242 gemhead;
#X obj 24 280 glsl_fragment;
#X obj 24 442 glsl_program;
#X obj 24 480 square 3;
#X msg 99 242 open shader.frag;
#X msg 49 311 print;
#X obj 99 311 change;
#X msg 99 338 link \$1;
#X obj 99 213 loadbang;
#X text 157 339 link the fragment shader id;
#X text 115 280 load the fragment shader;
#X text 111 443 run the shader program;
#X text 257 47 2015 Dan Wilcox;
#X text 87 480 shader effects things below it in render chain;
#X msg 294 406 u_color 1 0 1 1;
#X obj 343 269 g_hsl red 0 1;
#X obj 343 299 g_hsl green 0 1;
#X obj 343 330 g_hsl blue 0 1;
#X msg 343 243 red 1 \, green 0 \, blue 1;
#N canvas 0 22 227 278 u_color 0;
#X obj 41 26 inlet;
#X obj 41 232 outlet;
#X obj 41 64 route red green blue;
#X obj 41 145 pack 0 0 0 1;
#X obj 80 97 t b f;
#X obj 119 98 t b f;
#X obj 41 175 list prepend u_color;
#X obj 41 203 list trim;
#X connect 0 0 2 0;
#X connect 2 0 3 0;
#X connect 2 1 4 0;
#X connect 2 2 5 0;
#X connect 3 0 6 0;
#X connect 4 0 3 0;
#X connect 4 1 3 1;
#X connect 5 0 3 0;
#X connect 5 1 3 2;
#X connect 6 0 7 0;
#X connect 7 0 1 0;
#X restore 343 368 pd u_color;
#X text 275 213 set color using uniform shader var;
#X msg 36 105 title Shader Hello World \, defaultView;
#X text 79 548 http://patriciogonzalezvivo.com/2015/thebookofshaders/02
;
#X text 399 407 vec4 message;
#X text 78 525 adapted from The Book of Shaders \, Patricio Gonzalez
Vivo;
#X connect 1 0 2 0;
#X connect 3 0 28 0;
#X connect 5 0 2 0;
#X connect 7 0 8 0;
#X connect 8 0 9 0;
#X connect 8 1 13 0;
#X connect 9 0 10 0;
#X connect 11 0 8 0;
#X connect 12 0 9 0;
#X connect 13 0 14 0;
#X connect 14 0 9 0;
#X connect 15 0 11 0;
#X connect 15 0 25 0;
#X connect 21 0 9 0;
#X connect 22 0 23 0;
#X connect 23 0 24 0;
#X connect 24 0 26 0;
#X connect 25 0 22 0;
#X connect 26 0 9 0;
#X connect 28 0 2 0;
