#N canvas 0 22 358 276 10;
#X obj 134 188 outlet;
#X obj 134 153 f \$0;
#X obj 134 85 inlet;
#X text 42 36 Send out the unique id of this instance;
#X msg 134 118 bang;
#X connect 1 0 0 0;
#X connect 2 0 4 0;
#X connect 4 0 1 0;
