#N canvas 0 22 791 517 10;
#X obj 64 219 outlet;
#X obj 205 140 f \$1;
#X obj 133 139 symbol \$2;
#X obj 64 139 symbol \$3;
#X obj 64 75 t b b b;
#X obj 64 36 inlet;
#X text 403 10 You can check if the argument has been set by comparing
for 0:;
#X obj 421 60 loadbang;
#X obj 421 94 f \$1;
#X obj 421 123 sel 0;
#X msg 421 175 arg1 is not set;
#X obj 421 207 print FOOBAR;
#X msg 448 149 arg1 is \$1;
#X obj 65 296 loadbang;
#X obj 65 481 print FOOBAR;
#X obj 65 368 symbol \$2;
#X obj 65 324 t b b;
#X msg 134 368 symbol;
#X obj 65 397 sel SYM;
#X msg 92 423 arg2 is \$1;
#X msg 65 449 arg2 is not set;
#X text 186 368 <- initialze sel with an empty symbol to compare to
;
#X text 31 12 Send the individal arguments out the outlet when banged
;
#X obj 585 324 loadbang;
#X obj 585 387 sel 0;
#X obj 585 471 print FOOBAR;
#X obj 585 358 f \$99;
#X msg 612 413 arg99 is \$1;
#X msg 585 439 arg99 is not set;
#X text 63 262 Checking symbol args is a little trickier:;
#X text 563 269 Arument 99 doesn't exist:;
#X connect 1 0 0 0;
#X connect 2 0 0 0;
#X connect 3 0 0 0;
#X connect 4 0 3 0;
#X connect 4 1 2 0;
#X connect 4 2 1 0;
#X connect 5 0 4 0;
#X connect 7 0 8 0;
#X connect 8 0 9 0;
#X connect 9 0 10 0;
#X connect 9 1 12 0;
#X connect 10 0 11 0;
#X connect 12 0 11 0;
#X connect 13 0 16 0;
#X connect 15 0 18 0;
#X connect 16 0 15 0;
#X connect 16 1 17 0;
#X connect 17 0 18 1;
#X connect 18 0 20 0;
#X connect 18 1 19 0;
#X connect 19 0 14 0;
#X connect 20 0 14 0;
#X connect 23 0 26 0;
#X connect 24 0 28 0;
#X connect 24 1 27 0;
#X connect 26 0 24 0;
#X connect 27 0 25 0;
#X connect 28 0 25 0;
