#N canvas 0 22 450 300 10;
#X text 49 74 I am an abstraction. I am a seaprate file saved in the
same folder as the 2.ModularPatching parent patch.;
#X obj 24 20 inlet;
#X obj 24 146 list prepend hello;
#X obj 24 176 list trim;
#X obj 24 244 outlet;
#X connect 1 0 2 0;
#X connect 2 0 3 0;
#X connect 3 0 4 0;
