#N canvas 356 52 880 623 10;
#X declare -path ../rc;
#X declare -path ../../externals/rjlib/rj -path ../../externals/pd
;
#X declare -path ../../externals/rc-patches/extra -path ../../externals/rc-patches/rc
-path ../../externals/rc-patches/rc-patches;
#X declare -path . -path lib;
#X declare -path ../rc-patches;
#X obj 1 1 cnv 15 360 200 empty empty Setup 5 12 0 14 -233017 -66577
0;
#X msg 42 138 reset;
#X obj 15 170 gem_win;
#X obj 29 81 loadbang;
#X text 101 52 set the window title \, the framerate \,;
#X text 85 137 reset the window;
#X obj 15 35 g_tgl run;
#N canvas 0 22 350 149 externals 0;
#X text 11 14 add search paths to local libraries here;
#X obj 12 104 declare -path ../../externals/rjlib/rj -path ../../externals/pd
;
#X obj 13 45 declare -path ../../externals/rc-patches/extra -path ../../externals/rc-patches/rc
-path ../../externals/rc-patches/rc-patches;
#X restore 277 12 pd externals;
#X text 101 68 the window size \, and use a norm viewport;
#X text 262 177 2013 Dan Wilcox;
#X obj 14 237 gemhead;
#X obj 14 592 rectangle 4 3;
#X obj 206 209 declare -path . -path lib;
#X msg 33 299 open Pacific_Sun_Cruise_liner_in_very_heavy_seas-o-WZU1X--IM.mp4
;
#X obj 33 273 loadbang;
#X msg 29 109 title Player \, frame 30 \, dimen 480 328 \, defaultView
;
#X obj 390 51 tgl 30 0 empty empty GO 17 7 0 10 -204786 -1 -1 0 1;
#X obj 454 301 spigot;
#X obj 487 244 tgl 15 0 empty empty rotate 17 7 0 10 -262144 -1 -1
0 1;
#X obj 454 516 * -1;
#X obj 454 463 * 100;
#X obj 454 489 - 50;
#X obj 457 271 hsl 240 15 0 1 0 0 empty empty empty -2 -8 0 10 -262144
-1 -1 11950 1;
#X msg 534 380 rotate \$1;
#X msg 657 338 record;
#X msg 569 338 stop;
#X msg 707 338 clear;
#X obj 534 435 route rotate;
#X msg 609 338 play;
#X obj 707 371 loadbang;
#X msg 707 399 read ./cruise_rotate.seq;
#X msg 116 456 play \$1;
#X obj 390 92 t f f;
#X obj 14 560 rotateXYZ;
#X obj 534 179 sel 0;
#X obj 72 430 sel 0;
#X msg 72 455 0;
#X msg 707 424 save ./cruise_rotate.seq;
#X obj 72 404 t f f;
#X msg 454 243 0.5;
#X obj 597 180 sel 0;
#X obj 534 408 c_qseq cruise;
#X obj 534 155 u_demux2;
#X obj 579 126 tgl 15 0 empty empty record? 17 7 0 10 -262144 -1 -1
0 1;
#X obj 657 238 t b b;
#X obj 454 137 t f f f;
#X obj 101 529 s \$0-videodone;
#X obj 390 23 r \$0-videodone;
#X obj 529 303 r \$0-videodone;
#X obj 72 371 r \$0-go;
#X obj 390 178 s \$0-go;
#X msg 43 341 7.5;
#X obj 14 503 gem_videoplayer;
#X connect 1 0 2 0;
#X connect 3 0 15 0;
#X connect 6 0 2 0;
#X connect 10 0 52 0;
#X connect 13 0 52 0;
#X connect 14 0 13 0;
#X connect 14 0 51 0;
#X connect 15 0 2 0;
#X connect 16 0 32 0;
#X connect 17 0 20 0;
#X connect 18 0 17 1;
#X connect 19 0 33 3;
#X connect 20 0 21 0;
#X connect 21 0 19 0;
#X connect 22 0 23 0;
#X connect 22 0 17 0;
#X connect 23 0 41 0;
#X connect 24 0 41 1;
#X connect 25 0 41 1;
#X connect 26 0 41 1;
#X connect 27 0 22 0;
#X connect 28 0 41 1;
#X connect 29 0 30 0;
#X connect 30 0 41 1;
#X connect 31 0 52 0;
#X connect 32 0 50 0;
#X connect 32 1 45 0;
#X connect 33 0 11 0;
#X connect 34 0 25 0;
#X connect 34 1 28 0;
#X connect 35 0 36 0;
#X connect 36 0 52 2;
#X connect 37 0 41 1;
#X connect 38 0 35 0;
#X connect 38 1 31 0;
#X connect 39 0 22 0;
#X connect 40 0 25 0;
#X connect 40 1 44 0;
#X connect 41 0 27 0;
#X connect 42 0 34 0;
#X connect 42 1 40 0;
#X connect 43 0 42 1;
#X connect 44 0 24 0;
#X connect 44 1 26 0;
#X connect 45 0 39 0;
#X connect 45 1 18 0;
#X connect 45 2 42 0;
#X connect 47 0 16 0;
#X connect 48 0 25 0;
#X connect 49 0 38 0;
#X connect 51 0 52 1;
#X connect 52 0 33 0;
#X connect 52 2 46 0;
