#N canvas 610 35 591 681 10;
#X declare -path ../rc;
#X declare -path ../externals/rc-patches/extra -path ../externals/rc-patches/rc
-path ../externals/rc-patches/rc-patches;
#X declare -path ../externals/rjlib/rj -path ../externals/pd;
#X obj 32 270 gemhead;
#X obj 2 3 cnv 15 360 200 empty empty Setup 5 12 0 14 -233017 -66577
0;
#X msg 43 140 reset;
#X obj 16 172 gem_win;
#X obj 30 83 loadbang;
#X text 102 54 set the window title \, the framerate \,;
#X text 86 139 reset the window;
#X obj 52 310 gemmouse;
#X floatatom 52 348 5 0 0 0 mouseX - -, f 5;
#X floatatom 96 367 5 0 0 0 mouseY - -, f 5;
#X obj 32 613 colorRGB 1 1 1;
#X obj 92 563 spigot;
#X obj 95 588 hsl 128 15 0 1 0 0 empty empty 0-1 8 8 0 10 -262144 -1
-1 7146 1;
#X obj 125 542 tgl 15 0 empty empty turn_on_the_pulse 17 7 0 10 -262144
-1 -1 1 1;
#X obj 95 468 hsl 128 15 0 1 0 0 empty empty 0-1_speed 8 8 0 10 -262144
-1 -1 6350 1;
#X text 138 361 scale the pos from 0-400 to 0-1 and use it to set the
red and blue;
#X text 131 613 set the color;
#X text 210 646 draw a rectangle over the whole window;
#X text 115 312 get the mouse position;
#X text 208 505 this low frequency oscillator sweeps the blue value
back and forth from 0-1;
#X text 240 445 set the waveform type for the pulse;
#X obj 92 511 c_lfo lfo1 500 20;
#X obj 72 430 m_scale 0 400 0 1;
#X obj 52 399 m_scale 0 400 0 1;
#X msg 240 468 waveform sine;
#X msg 339 468 waveform tri;
#X msg 435 468 waveform saw;
#X obj 16 37 g_tgl run;
#X text 102 70 the window size \, and use a pixel viewport;
#N canvas 0 22 387 152 externals 0;
#X text 11 16 add search paths to local libraries here;
#X obj 13 47 declare -path ../externals/rc-patches/extra -path ../externals/rc-patches/rc
-path ../externals/rc-patches/rc-patches;
#X obj 12 106 declare -path ../externals/rjlib/rj -path ../externals/pd
;
#X restore 279 11 pd externals;
#X text 26 220 This is a GEM render chain \, everything connected under
the [gemhead] is drawn to the screen.;
#X text 262 179 2011 Dan Wilcox;
#X obj 32 647 gem_rect 0 0 400 400 corner;
#X msg 30 111 title DreamMachine \, frame 30 \, dimen 400 400 \, pixelView
;
#X obj 198 416 loadbang;
#X msg 125 487 1;
#X msg 198 442 0.5;
#X connect 0 0 10 0;
#X connect 2 0 3 0;
#X connect 4 0 33 0;
#X connect 7 0 8 0;
#X connect 7 1 9 0;
#X connect 8 0 23 0;
#X connect 9 0 22 0;
#X connect 10 0 32 0;
#X connect 11 0 12 0;
#X connect 12 0 10 3;
#X connect 13 0 11 1;
#X connect 14 0 21 0;
#X connect 21 0 11 0;
#X connect 22 0 10 2;
#X connect 23 0 10 1;
#X connect 24 0 21 1;
#X connect 25 0 21 1;
#X connect 26 0 21 1;
#X connect 27 0 3 0;
#X connect 33 0 3 0;
#X connect 34 0 36 0;
#X connect 34 0 24 0;
#X connect 35 0 13 0;
#X connect 36 0 14 0;
#X connect 36 0 35 0;
