#N canvas 597 87 386 501 10;
#X declare -path ../rc;
#X declare -path ../externals/rc-patches/extra -path ../externals/rc-patches/rc
-path ../externals/rc-patches/rc-patches;
#X declare -path ../externals/rjlib/rj -path ../externals/pd;
#X obj -15 265 gemhead;
#X floatatom 22 376 5 0 0 0 - - -;
#X obj -15 352 ortho;
#X floatatom 59 377 5 0 0 0 - - -;
#X obj 46 323 tgl 15 0 empty empty empty 17 7 0 10 -262144 -1 -1 0
1;
#X obj -15 439 color 0.5 0.5 0.5;
#X obj 203 334 g_hsl size 0 3;
#X msg 203 265 draw line;
#X msg 278 265 draw fill;
#X msg 122 265 draw point;
#X obj 203 375 g_hsl distanceX -3 3 0;
#X obj 203 406 g_hsl distanceY -3 3;
#X obj 203 437 g_hsl distanceZ -3 3;
#X obj 203 302 g_hsl num 0 10;
#X floatatom 96 377 5 0 0 0 - - -;
#N canvas 317 59 349 420 cubeset 0;
#N canvas 0 22 336 409 wall 0;
#X obj 27 26 inlet;
#X obj 27 373 outlet;
#N canvas 628 118 282 558 (subpatch) 0;
#X msg 38 355 draw line;
#X obj 109 356 gemlist;
#X obj 109 330 until;
#X obj 46 218 route gem_state;
#X obj 46 245 route float;
#X obj 38 326 loadbang;
#X obj 27 18 inlet;
#X obj 27 49 GEMglPushMatrix;
#X obj 27 499 GEMglPopMatrix;
#X obj 27 158 t a a a;
#X obj 148 192 t a;
#X obj 27 528 outlet;
#X obj 109 413 cube 0.5;
#X obj 154 385 r \$0-size;
#X obj 165 297 r \$0-draw;
#X msg 165 356 draw \$1;
#X obj 109 305 f 4;
#X msg 109 274 bang;
#X obj 165 326 symbol;
#X obj 165 263 r \$0-num;
#X obj 109 467 translateXYZ 2 0 0;
#X obj 144 439 r \$0-distanceX;
#X msg 44 78 5;
#X obj 27 131 rotateXYZ;
#X obj 88 78 c_lfo ka 0.05 50 sine;
#X obj 88 103 * 360;
#X text 77 18 draws 4 cubes;
#X connect 0 0 12 0;
#X connect 1 0 12 0;
#X connect 2 0 1 0;
#X connect 3 0 4 0;
#X connect 4 1 17 0;
#X connect 5 0 0 0;
#X connect 6 0 7 0;
#X connect 7 0 23 0;
#X connect 8 0 11 0;
#X connect 9 0 8 0;
#X connect 9 1 3 0;
#X connect 9 2 10 0;
#X connect 10 0 1 1;
#X connect 12 0 20 0;
#X connect 13 0 12 1;
#X connect 14 0 18 0;
#X connect 15 0 12 0;
#X connect 16 0 2 0;
#X connect 17 0 16 0;
#X connect 18 0 15 0;
#X connect 19 0 16 1;
#X connect 21 0 20 1;
#X connect 22 0 23 1;
#X connect 23 0 9 0;
#X connect 24 0 25 0;
#X connect 25 0 23 1;
#X restore 109 288 pd 4 cubes;
#X obj 109 258 gemlist;
#X obj 109 232 until;
#X obj 46 121 route gem_state;
#X obj 46 148 route float;
#X obj 27 344 GEMglPopMatrix;
#X obj 27 57 GEMglPushMatrix;
#X obj 109 317 translateXYZ 0 -2 0;
#X obj 27 87 t a a a;
#X obj 148 117 t a;
#X obj 183 288 r \$0-distanceY;
#X obj 109 204 f 4;
#X msg 109 176 bang;
#X obj 158 177 r \$0-num;
#X text 90 26 draws a vertical wall \, using 4 cubes;
#X connect 0 0 8 0;
#X connect 2 0 9 0;
#X connect 3 0 2 0;
#X connect 4 0 3 0;
#X connect 5 0 6 0;
#X connect 6 1 14 0;
#X connect 7 0 1 0;
#X connect 8 0 10 0;
#X connect 10 0 7 0;
#X connect 10 1 5 0;
#X connect 10 2 11 0;
#X connect 11 0 3 1;
#X connect 12 0 9 2;
#X connect 13 0 4 0;
#X connect 14 0 13 0;
#X connect 15 0 13 1;
#X restore 116 288 pd wall;
#X obj 116 258 gemlist;
#X obj 116 232 until;
#X obj 53 122 route gem_state;
#X obj 53 149 route float;
#X obj 34 344 GEMglPopMatrix;
#X obj 34 58 GEMglPushMatrix;
#X obj 34 88 t a a a;
#X obj 155 118 t a;
#X obj 116 317 translateXYZ 0 0 -2;
#X obj 227 289 r \$0-distanceZ;
#X obj 116 203 f 4;
#X msg 116 177 bang;
#X obj 162 178 r \$0-num;
#X obj 34 22 inlet;
#X obj 34 382 outlet;
#X text 119 24 draw multiple vertical walls;
#X connect 0 0 9 0;
#X connect 1 0 0 0;
#X connect 2 0 1 0;
#X connect 3 0 4 0;
#X connect 4 1 12 0;
#X connect 5 0 15 0;
#X connect 6 0 7 0;
#X connect 7 0 5 0;
#X connect 7 1 3 0;
#X connect 7 2 8 0;
#X connect 8 0 1 1;
#X connect 10 0 9 3;
#X connect 11 0 2 0;
#X connect 12 0 11 0;
#X connect 13 0 11 1;
#X connect 14 0 6 0;
#X restore -15 471 pd cubeset;
#X obj -15 409 translateXYZ -3 3 0;
#N canvas 215 284 398 212 guisend 0;
#X obj -21 179 s \$0-size;
#X obj 16 155 s \$0-draw;
#X obj 122 77 route distanceX distanceY distanceZ;
#X obj 260 108 s \$0-distanceZ;
#X obj 191 132 s \$0-distanceY;
#X obj 122 156 s \$0-distanceX;
#X obj -21 44 route size draw num;
#X obj 53 122 s \$0-num;
#X obj 53 73 int;
#X floatatom 53 98 5 0 0 0 - - -;
#X obj -21 8 inlet;
#X connect 2 0 5 0;
#X connect 2 1 4 0;
#X connect 2 2 3 0;
#X connect 6 0 0 0;
#X connect 6 1 1 0;
#X connect 6 2 8 0;
#X connect 6 3 2 0;
#X connect 8 0 9 0;
#X connect 9 0 7 0;
#X connect 10 0 6 0;
#X restore 203 474 pd guisend;
#X text -23 213 Draws a cube of rotating cubes using multiple iterations
of a single [cube] object.;
#X text 67 322 no perspective?;
#X obj 46 265 loadbang;
#X msg 46 295 0;
#X obj -31 4 cnv 15 360 200 empty empty Setup 5 12 0 14 -233017 -66577
0;
#X msg 10 141 reset;
#X obj -17 173 gem_win;
#X obj -3 84 loadbang;
#X text 69 55 set the window title \, the framerate \,;
#X text 53 140 reset the window;
#X obj -17 38 g_tgl run;
#X text 229 180 2012 Dan Wilcox;
#N canvas 0 22 386 154 externals 0;
#X text 14 16 add search paths to local libraries here;
#X obj 16 47 declare -path ../externals/rc-patches/extra -path ../externals/rc-patches/rc
-path ../externals/rc-patches/rc-patches;
#X obj 15 106 declare -path ../externals/rjlib/rj -path ../externals/pd
;
#X restore 245 15 pd externals;
#X text 69 71 the window size \, and use a norm viewport;
#X msg -3 112 title Cubes \, frame 30 \, dimen 400 400 \, defaultView
;
#X connect 0 0 2 0;
#X connect 1 0 16 1;
#X connect 2 0 16 0;
#X connect 3 0 16 2;
#X connect 4 0 2 0;
#X connect 5 0 15 0;
#X connect 6 0 10 0;
#X connect 7 0 13 0;
#X connect 8 0 13 0;
#X connect 9 0 13 0;
#X connect 10 0 11 0;
#X connect 11 0 12 0;
#X connect 12 0 17 0;
#X connect 13 0 6 0;
#X connect 14 0 16 3;
#X connect 16 0 5 0;
#X connect 20 0 21 0;
#X connect 21 0 4 0;
#X connect 23 0 24 0;
#X connect 25 0 32 0;
#X connect 28 0 24 0;
#X connect 32 0 24 0;
