#N canvas 300 62 525 598 10;
#X declare -path ../rc;
#X declare -path ../externals/rc-patches/extra -path ../externals/rc-patches/rc
-path ../externals/rc-patches/rc-patches;
#X declare -path ../externals/rjlib/rj -path ../externals/pd;
#X obj 24 376 osc~ 440;
#X obj 24 507 *~ 0.5;
#X floatatom 24 351 5 0 0 0 - - -, f 5;
#X obj 27 290 hsl 128 15 0 127 0 0 empty empty empty -2 -8 0 10 -262144
-1 -1 5200 1;
#X obj 24 321 mtof;
#X obj 24 176 select 0 1 2 3;
#X obj 24 64 metro 500;
#X floatatom 24 149 5 0 0 0 - - -, f 5;
#X obj 24 22 tgl 30 0 empty empty empty 17 7 0 10 -204786 -1 -1 0 1
;
#X obj 24 212 bng 15 250 50 0 empty empty empty 17 7 0 10 -262144 -1
-1;
#X obj 61 212 bng 15 250 50 0 empty empty empty 17 7 0 10 -262144 -1
-1;
#X obj 98 212 bng 15 250 50 0 empty empty empty 17 7 0 10 -262144 -1
-1;
#X obj 134 212 bng 15 250 50 0 empty empty empty 17 7 0 10 -262144
-1 -1;
#X msg 24 239 66;
#X msg 61 239 64;
#X msg 134 241 52;
#X msg 98 240 76;
#X obj 105 448 line~;
#X obj 24 479 *~;
#X obj 105 375 t a b;
#X msg 105 348 1 100;
#X msg 132 424 0 50;
#X obj 132 398 delay 100;
#X obj 164 563 gem_scope;
#X obj 335 377 osc~ 440;
#X obj 335 509 *~ 0.5;
#X floatatom 335 349 5 0 0 0 - - -, f 5;
#X obj 338 292 hsl 128 15 0 127 0 0 empty empty empty -2 -8 0 10 -262144
-1 -1 8000 1;
#X obj 335 317 mtof;
#X obj 335 176 select 0 1 2 3;
#X floatatom 335 152 5 0 0 0 - - -, f 5;
#X obj 335 211 bng 15 250 50 0 empty empty empty 17 7 0 10 -262144
-1 -1;
#X obj 371 211 bng 15 250 50 0 empty empty empty 17 7 0 10 -262144
-1 -1;
#X obj 408 212 bng 15 250 50 0 empty empty empty 17 7 0 10 -262144
-1 -1;
#X obj 445 212 bng 15 250 50 0 empty empty empty 17 7 0 10 -262144
-1 -1;
#X obj 419 454 line~;
#X obj 335 483 *~;
#X obj 419 378 t a b;
#X msg 419 351 1 100;
#X msg 446 429 0 50;
#X obj 446 403 delay 100;
#X msg 335 63 2;
#X msg 371 242 62;
#X msg 408 242 64;
#X msg 445 242 80;
#X msg 335 241 30;
#X obj 335 37 loadbang;
#N canvas 0 22 386 154 externals 0;
#X text 14 16 add search paths to local libraries here;
#X obj 16 47 declare -path ../externals/rc-patches/extra -path ../externals/rc-patches/rc
-path ../externals/rc-patches/rc-patches;
#X obj 15 106 declare -path ../externals/rjlib/rj -path ../externals/pd
;
#X restore 422 22 pd externals;
#X text 387 567 2015 Dan Wilcox;
#X obj 24 121 u_count 4;
#X obj 335 125 u_count 4;
#X obj 41 97 hradio 15 1 0 4 empty empty offset 62 8 0 10 -262144 -1
-1 1;
#X obj 335 100 hradio 15 1 0 4 empty empty offset 62 8 0 10 -262144
-1 -1 1;
#X msg 257 64 run \$1;
#X obj 24 544 soundoutput;
#X connect 0 0 18 0;
#X connect 0 0 23 0;
#X connect 1 0 54 0;
#X connect 2 0 0 0;
#X connect 3 0 4 0;
#X connect 4 0 2 0;
#X connect 4 0 20 0;
#X connect 5 0 9 0;
#X connect 5 1 10 0;
#X connect 5 2 11 0;
#X connect 5 3 12 0;
#X connect 6 0 49 0;
#X connect 6 0 50 0;
#X connect 7 0 5 0;
#X connect 8 0 6 0;
#X connect 8 0 53 0;
#X connect 9 0 13 0;
#X connect 10 0 14 0;
#X connect 11 0 16 0;
#X connect 12 0 15 0;
#X connect 13 0 3 0;
#X connect 14 0 3 0;
#X connect 15 0 3 0;
#X connect 16 0 3 0;
#X connect 17 0 18 1;
#X connect 18 0 1 0;
#X connect 19 0 17 0;
#X connect 19 1 22 0;
#X connect 20 0 19 0;
#X connect 21 0 17 0;
#X connect 22 0 21 0;
#X connect 24 0 36 0;
#X connect 24 0 23 1;
#X connect 25 0 54 1;
#X connect 26 0 24 0;
#X connect 27 0 28 0;
#X connect 28 0 26 0;
#X connect 28 0 38 0;
#X connect 29 0 31 0;
#X connect 29 1 32 0;
#X connect 29 2 33 0;
#X connect 29 3 34 0;
#X connect 30 0 29 0;
#X connect 31 0 45 0;
#X connect 32 0 42 0;
#X connect 33 0 43 0;
#X connect 34 0 44 0;
#X connect 35 0 36 1;
#X connect 36 0 25 0;
#X connect 37 0 35 0;
#X connect 37 1 40 0;
#X connect 38 0 37 0;
#X connect 39 0 35 0;
#X connect 40 0 39 0;
#X connect 41 0 52 0;
#X connect 42 0 27 0;
#X connect 43 0 27 0;
#X connect 44 0 27 0;
#X connect 45 0 27 0;
#X connect 46 0 41 0;
#X connect 49 0 7 0;
#X connect 50 0 30 0;
#X connect 51 0 49 0;
#X connect 52 0 50 0;
#X connect 53 0 23 3;
