#N canvas 804 50 382 573 10;
#X declare -path ../rc;
#X declare -path ../externals/rc-patches/extra -path ../externals/rc-patches/rc
-path ../externals/rc-patches/rc-patches;
#X declare -path ../externals/rjlib/rj -path ../externals/pd;
#X obj 8 9 cnv 15 360 180 empty empty Setup 5 12 0 14 -233017 -66577
0;
#X msg 49 134 reset;
#X obj 22 166 gem_win;
#X obj 36 77 loadbang;
#X text 92 133 reset the window;
#X obj 22 39 g_tgl run;
#N canvas 0 22 386 154 externals 0;
#X text 14 16 add search paths to local libraries here;
#X obj 16 47 declare -path ../externals/rc-patches/extra -path ../externals/rc-patches/rc
-path ../externals/rc-patches/rc-patches;
#X obj 15 106 declare -path ../externals/rjlib/rj -path ../externals/pd
;
#X restore 275 20 pd externals;
#X text 257 47 2015 Dan Wilcox;
#X obj 241 452 soundoutput;
#N canvas 232 165 576 326 synth 0;
#X obj 61 44 unpack f f f;
#X obj 61 77 * 12;
#X obj 61 101 mtof;
#X obj 176 95 + 24;
#X obj 19 165 noise~;
#X obj 176 117 mtof;
#X obj 79 207 vcf~;
#X obj 119 207 vcf~;
#X obj 159 207 vcf~;
#X obj 199 207 vcf~;
#X obj 239 207 vcf~;
#X obj 279 207 vcf~;
#X obj 319 207 vcf~;
#X obj 359 207 vcf~;
#X obj 399 207 vcf~;
#X obj 439 207 vcf~;
#X obj 479 207 vcf~;
#X obj 519 207 vcf~;
#X obj 91 178 * 2;
#X obj 19 191 *~ 0;
#X obj 131 178 * 2;
#X obj 171 178 * 2;
#X obj 211 178 * 2;
#X obj 251 178 * 2;
#X obj 291 178 * 2;
#X obj 331 178 * 2;
#X obj 371 178 * 2;
#X obj 411 178 * 2;
#X obj 451 178 * 2;
#X obj 491 178 * 2;
#X obj 531 178 * 2;
#X obj 109 133 * 0.707;
#X obj 109 109 pow;
#X obj 110 65 t b f;
#X obj 25 119 sqrt;
#X obj 79 229 /~ 1;
#X obj 119 229 /~ 1;
#X obj 159 229 /~ 1;
#X obj 199 229 /~ 1;
#X obj 239 229 /~ 1;
#X obj 279 229 /~ 1;
#X obj 319 229 /~ 1;
#X obj 359 229 /~ 1;
#X obj 399 229 /~ 1;
#X obj 439 229 /~ 1;
#X obj 479 229 /~ 1;
#X obj 519 229 /~ 1;
#X obj 20 268 *~ 100;
#X obj 25 141 *;
#X obj 20 246 vcf~ 5;
#X obj 56 141 pow 0.25;
#X obj 176 73 * 84;
#X msg 109 87 10000;
#X obj 137 107 sqrt;
#X obj 20 297 outlet~;
#X obj 61 16 r hsv;
#X connect 0 0 1 0;
#X connect 0 1 33 0;
#X connect 0 2 50 0;
#X connect 0 2 51 0;
#X connect 1 0 2 0;
#X connect 2 0 18 0;
#X connect 3 0 5 0;
#X connect 4 0 19 0;
#X connect 5 0 49 1;
#X connect 6 0 35 0;
#X connect 7 0 36 0;
#X connect 8 0 37 0;
#X connect 9 0 38 0;
#X connect 10 0 39 0;
#X connect 11 0 40 0;
#X connect 12 0 41 0;
#X connect 13 0 42 0;
#X connect 14 0 43 0;
#X connect 15 0 44 0;
#X connect 16 0 45 0;
#X connect 17 0 46 0;
#X connect 18 0 6 1;
#X connect 18 0 20 0;
#X connect 18 0 35 1;
#X connect 19 0 6 0;
#X connect 19 0 7 0;
#X connect 19 0 8 0;
#X connect 19 0 9 0;
#X connect 19 0 10 0;
#X connect 19 0 11 0;
#X connect 19 0 12 0;
#X connect 19 0 13 0;
#X connect 19 0 14 0;
#X connect 19 0 15 0;
#X connect 19 0 16 0;
#X connect 19 0 17 0;
#X connect 20 0 7 1;
#X connect 20 0 21 0;
#X connect 20 0 36 1;
#X connect 21 0 8 1;
#X connect 21 0 22 0;
#X connect 21 0 37 1;
#X connect 22 0 9 1;
#X connect 22 0 23 0;
#X connect 22 0 38 1;
#X connect 23 0 10 1;
#X connect 23 0 24 0;
#X connect 23 0 39 1;
#X connect 24 0 11 1;
#X connect 24 0 25 0;
#X connect 24 0 40 1;
#X connect 25 0 12 1;
#X connect 25 0 26 0;
#X connect 25 0 41 1;
#X connect 26 0 13 1;
#X connect 26 0 27 0;
#X connect 26 0 42 1;
#X connect 27 0 14 1;
#X connect 27 0 28 0;
#X connect 27 0 43 1;
#X connect 28 0 15 1;
#X connect 28 0 29 0;
#X connect 28 0 44 1;
#X connect 29 0 16 1;
#X connect 29 0 30 0;
#X connect 29 0 45 1;
#X connect 30 0 17 1;
#X connect 30 0 46 1;
#X connect 31 0 6 2;
#X connect 31 0 7 2;
#X connect 31 0 8 2;
#X connect 31 0 9 2;
#X connect 31 0 10 2;
#X connect 31 0 11 2;
#X connect 31 0 12 2;
#X connect 31 0 13 2;
#X connect 31 0 14 2;
#X connect 31 0 15 2;
#X connect 31 0 16 2;
#X connect 31 0 17 2;
#X connect 32 0 31 0;
#X connect 32 0 34 0;
#X connect 33 0 52 0;
#X connect 33 1 53 0;
#X connect 34 0 48 0;
#X connect 35 0 49 0;
#X connect 36 0 49 0;
#X connect 37 0 49 0;
#X connect 38 0 49 0;
#X connect 39 0 49 0;
#X connect 40 0 49 0;
#X connect 41 0 49 0;
#X connect 42 0 49 0;
#X connect 43 0 49 0;
#X connect 44 0 49 0;
#X connect 45 0 49 0;
#X connect 46 0 49 0;
#X connect 47 0 54 0;
#X connect 48 0 19 1;
#X connect 49 0 47 0;
#X connect 50 0 48 1;
#X connect 51 0 3 0;
#X connect 52 0 32 0;
#X connect 53 0 32 1;
#X connect 55 0 0 0;
#X restore 241 416 pd synth;
#X msg 36 105 title Color Sonification \, defaultView;
#X obj 31 416 gemhead;
#X obj 31 446 color;
#X obj 31 474 square 3;
#X obj 135 247 vsl 15 128 0 1 0 0 empty empty R 0 -9 0 10 -262144 -1
-1 2300 1;
#X obj 155 247 vsl 15 128 0 1 0 0 empty empty G 0 -9 0 10 -262144 -1
-1 5000 1;
#X obj 175 247 vsl 15 128 0 1 0 0 empty empty B 0 -9 0 10 -262144 -1
-1 600 1;
#X obj 135 421 pack f f f;
#X obj 144 398 t b f;
#X obj 188 398 t b f;
#X obj 135 446 rgb2hsv;
#X obj 206 247 vsl 15 128 0 1 0 0 empty empty H 0 -9 0 10 -262144 -1
-1 3416 1;
#X obj 226 247 vsl 15 128 0 1 0 0 empty empty S 0 -9 0 10 -262144 -1
-1 11176 1;
#X obj 246 247 vsl 15 128 0 1 0 0 empty empty V 0 -9 0 10 -262144 -1
-1 5000 1;
#X obj 278 228 unpack f f f;
#X obj 135 474 s hsv;
#X obj 278 202 r hsv;
#X text 94 167 HSV to sound example by Claude Heiland-Allen;
#X text 12 507 Based on pdlist post:;
#X text 12 529 http://lists.puredata.info/pipermail/pd-list/2015-04/109744.html
;
#X connect 1 0 2 0;
#X connect 3 0 10 0;
#X connect 5 0 2 0;
#X connect 9 0 8 0;
#X connect 9 0 8 1;
#X connect 10 0 2 0;
#X connect 11 0 12 0;
#X connect 12 0 13 0;
#X connect 14 0 17 0;
#X connect 15 0 18 0;
#X connect 16 0 19 0;
#X connect 17 0 20 0;
#X connect 17 0 12 1;
#X connect 18 0 17 0;
#X connect 18 1 17 1;
#X connect 19 0 17 0;
#X connect 19 1 17 2;
#X connect 20 0 25 0;
#X connect 24 0 21 0;
#X connect 24 1 22 0;
#X connect 24 2 23 0;
#X connect 26 0 24 0;
