#N canvas 538 340 556 279 10;
#X declare -path ../rc;
#X declare -path ../../externals/rc-patches/extra;
#X obj 124 53 gemhead;
#X floatatom 161 115 5 0 0 0 - - -;
#X obj 124 82 ortho;
#X floatatom 203 116 5 0 0 0 - - -;
#X obj 183 56 tgl 15 0 empty empty empty 17 7 0 10 -262144 -1 -1 0
1;
#X obj 124 177 color 0.5 0.5 0.5;
#X obj 320 83 g_hsl size 0 3;
#X msg 401 14 draw line;
#X msg 476 14 draw fill;
#X msg 320 14 draw point;
#X obj 320 124 g_hsl distanceX -3 3 0;
#X obj 320 155 g_hsl distanceY -3 3;
#X obj 320 186 g_hsl distanceZ -3 3;
#X obj 320 51 g_hsl num 0 10;
#X floatatom 243 116 5 0 0 0 - - -;
#N canvas 0 22 349 420 cubeset 0;
#N canvas 0 22 392 427 wall 0;
#X obj 27 26 inlet;
#X obj 27 373 outlet;
#N canvas 818 214 414 488 (subpatch) 0;
#X msg 38 277 draw line;
#X obj 109 278 gemlist;
#X obj 109 252 until;
#X obj 46 140 route gem_state;
#X obj 46 167 route float;
#X obj 38 248 loadbang;
#X obj 27 18 inlet;
#X obj 27 49 GEMglPushMatrix;
#X obj 27 421 GEMglPopMatrix;
#X obj 27 80 t a a a;
#X obj 148 114 t a;
#X obj 27 450 outlet;
#X obj 109 335 cube 0.5;
#X obj 154 307 r \$0-size;
#X obj 165 219 r \$0-draw;
#X msg 165 278 draw \$1;
#X obj 109 227 f 4;
#X msg 109 196 bang;
#X obj 165 248 symbol;
#X obj 165 185 r \$0-num;
#X obj 109 389 translateXYZ 2 0 0;
#X obj 144 361 r \$0-distanceX;
#X msg 164 40 5;
#X obj 162 67 rotateXYZ;
#X obj 195 15 c_lfo ka 0.05 50 sine;
#X obj 195 40 * 360;
#X connect 0 0 12 0;
#X connect 1 0 12 0;
#X connect 2 0 1 0;
#X connect 3 0 4 0;
#X connect 4 1 17 0;
#X connect 5 0 0 0;
#X connect 6 0 7 0;
#X connect 7 0 23 0;
#X connect 8 0 11 0;
#X connect 9 0 8 0;
#X connect 9 1 3 0;
#X connect 9 2 10 0;
#X connect 10 0 1 1;
#X connect 12 0 20 0;
#X connect 13 0 12 1;
#X connect 14 0 18 0;
#X connect 15 0 12 0;
#X connect 16 0 2 0;
#X connect 17 0 16 0;
#X connect 18 0 15 0;
#X connect 19 0 16 1;
#X connect 21 0 20 1;
#X connect 22 0 23 1;
#X connect 23 0 9 0;
#X connect 24 0 25 0;
#X connect 25 0 23 1;
#X restore 109 288 pd 4 cubes;
#X obj 109 258 gemlist;
#X obj 109 232 until;
#X obj 46 121 route gem_state;
#X obj 46 148 route float;
#X obj 27 344 GEMglPopMatrix;
#X obj 27 57 GEMglPushMatrix;
#X obj 109 317 translateXYZ 0 -2 0;
#X obj 27 87 t a a a;
#X obj 148 117 t a;
#X obj 183 288 r \$0-distanceY;
#X obj 109 204 f 4;
#X msg 109 176 bang;
#X obj 158 177 r \$0-num;
#X connect 0 0 8 0;
#X connect 2 0 9 0;
#X connect 3 0 2 0;
#X connect 4 0 3 0;
#X connect 5 0 6 0;
#X connect 6 1 14 0;
#X connect 7 0 1 0;
#X connect 8 0 10 0;
#X connect 10 0 7 0;
#X connect 10 1 5 0;
#X connect 10 2 11 0;
#X connect 11 0 3 1;
#X connect 12 0 9 2;
#X connect 13 0 4 0;
#X connect 14 0 13 0;
#X connect 15 0 13 1;
#X restore 116 288 pd wall;
#X obj 116 258 gemlist;
#X obj 116 232 until;
#X obj 53 122 route gem_state;
#X obj 53 149 route float;
#X obj 34 344 GEMglPopMatrix;
#X obj 34 58 GEMglPushMatrix;
#X obj 34 88 t a a a;
#X obj 155 118 t a;
#X obj 116 317 translateXYZ 0 0 -2;
#X obj 227 289 r \$0-distanceZ;
#X obj 116 203 f 4;
#X msg 116 177 bang;
#X obj 162 178 r \$0-num;
#X obj 34 22 inlet;
#X obj 34 382 outlet;
#X connect 0 0 9 0;
#X connect 1 0 0 0;
#X connect 2 0 1 0;
#X connect 3 0 4 0;
#X connect 4 1 12 0;
#X connect 5 0 15 0;
#X connect 6 0 7 0;
#X connect 7 0 5 0;
#X connect 7 1 3 0;
#X connect 7 2 8 0;
#X connect 8 0 1 1;
#X connect 10 0 9 3;
#X connect 11 0 2 0;
#X connect 12 0 11 0;
#X connect 13 0 11 1;
#X connect 14 0 6 0;
#X restore 124 207 pd cubeset;
#X obj 124 148 translateXYZ -3 3 0;
#X obj 16 37 gem_win;
#X obj 16 3 g_tgl run;
#N canvas 215 284 398 212 guisend 0;
#X obj -21 179 s \$0-size;
#X obj 16 155 s \$0-draw;
#X obj 122 77 route distanceX distanceY distanceZ;
#X obj 260 108 s \$0-distanceZ;
#X obj 191 132 s \$0-distanceY;
#X obj 122 156 s \$0-distanceX;
#X obj -21 44 route size draw num;
#X obj 53 122 s \$0-num;
#X obj 53 73 int;
#X floatatom 53 98 5 0 0 0 - - -;
#X obj -21 8 inlet;
#X connect 2 0 5 0;
#X connect 2 1 4 0;
#X connect 2 2 3 0;
#X connect 6 0 0 0;
#X connect 6 1 1 0;
#X connect 6 2 8 0;
#X connect 6 3 2 0;
#X connect 8 0 9 0;
#X connect 9 0 7 0;
#X connect 10 0 6 0;
#X restore 320 223 pd guisend;
#N canvas 819 496 346 191 includes 0;
#X obj 8 36 declare -path ../../externals/rc-patches/extra;
#X text 12 10 add search paths;
#X restore 15 242 pd includes;
#X text 93 9 <--- start here;
#X connect 0 0 2 0;
#X connect 1 0 16 1;
#X connect 2 0 16 0;
#X connect 3 0 16 2;
#X connect 4 0 2 0;
#X connect 5 0 15 0;
#X connect 6 0 10 0;
#X connect 7 0 13 0;
#X connect 8 0 13 0;
#X connect 9 0 13 0;
#X connect 10 0 11 0;
#X connect 11 0 12 0;
#X connect 12 0 19 0;
#X connect 13 0 6 0;
#X connect 14 0 16 3;
#X connect 16 0 5 0;
#X connect 18 0 17 0;
