#N canvas 585 71 558 688 10;
#X declare -path ../externals/gem;
#X declare -path ../externals/rjlib/rj;
#X declare -path ../rc;
#X obj -11 272 gemhead;
#N canvas 0 22 272 139 externals 0;
#X text 19 23 add search paths to local libraries here;
#X obj 21 56 declare -path ../externals/gem;
#X obj 22 83 declare -path ../externals/rjlib/rj;
#X restore 337 15 pd externals;
#X obj -41 5 cnv 15 360 200 empty empty Setup 5 12 0 14 -233017 -66577
0;
#X obj -27 36 tgl 30 0 empty empty run 32 7 0 10 -262144 -1 -1 0 1
;
#X msg 0 142 reset;
#X obj -27 174 gem_win;
#X obj -13 85 loadbang;
#X text 50 53 set the window title \, the framerate \,;
#X text 50 69 the window size \, and the background color;
#X text 43 141 reset the window;
#X obj 9 312 gemmouse;
#X floatatom 9 350 5 0 0 0 mouseX - -;
#X floatatom 53 369 5 0 0 0 mouseY - -;
#X obj -11 615 colorRGB 1 1 1;
#X obj -11 649 gem_rect 0 0 400 400;
#X obj 49 565 spigot;
#X obj 52 590 hsl 128 15 0 1 0 0 empty empty 0-1 8 8 0 10 -262144 -1
-1 12677 1;
#X obj 82 544 tgl 15 0 empty empty turn_on_the_pulse 17 7 0 10 -262144
-1 -1 1 1;
#X obj 52 470 hsl 128 15 0 1 0 0 empty empty 0-1_speed 8 8 0 10 -262144
-1 -1 11500 1;
#X text 95 363 scale the pos from 0-400 to 0-1 and use it to set the
red and blue;
#X text 88 615 set the color;
#X text 124 649 draw a rectangle over the whole window;
#X text 72 314 get the mouse position;
#X text 165 507 this low frequency oscillator sweeps the blue value
back and forth from 0-1;
#X text 197 447 set the waveform type for the pulse;
#X text -17 222 this is a GEM render chain \, everything connected
under the [gemhead] is drawn to the screen;
#X obj 49 513 c_lfo lfo1 500 20;
#X obj 29 432 m_scale 0 400 0 1;
#X obj 9 401 m_scale 0 400 0 1;
#X msg 197 470 waveform sine;
#X msg 296 470 waveform tri;
#X msg 392 470 waveform saw;
#X msg -13 113 title Mondrain \, frame 30 \, size 400 400 \, color
0 0 0;
#X connect 0 0 13 0;
#X connect 3 0 5 0;
#X connect 4 0 5 0;
#X connect 6 0 32 0;
#X connect 10 0 11 0;
#X connect 10 1 12 0;
#X connect 11 0 28 0;
#X connect 12 0 27 0;
#X connect 13 0 14 0;
#X connect 15 0 16 0;
#X connect 16 0 13 3;
#X connect 17 0 15 1;
#X connect 18 0 26 0;
#X connect 26 0 15 0;
#X connect 27 0 13 2;
#X connect 28 0 13 1;
#X connect 29 0 26 1;
#X connect 30 0 26 1;
#X connect 31 0 26 1;
#X connect 32 0 5 0;
