#N canvas 761 23 324 318 10;
#X obj 40 118 gemwin;
#X msg 40 54 create \, 1;
#X msg 62 85 0 \, destroy;
#X text 26 13 creates the graphics window;
#N canvas 873 354 312 284 rainbow 0;
#X obj 23 72 alpha;
#X obj 23 145 pix_image;
#X obj 23 180 pix_texture;
#X msg 77 106 open rainbow.jpg;
#X obj 77 73 loadbang;
#X floatatom 68 207 5 0 0 0 - - -;
#X obj 23 236 square 4;
#X obj 23 36 gemhead 1;
#X text 130 36 <- draw background first;
#X connect 0 0 1 0;
#X connect 1 0 2 0;
#X connect 2 0 6 0;
#X connect 3 0 1 0;
#X connect 4 0 3 0;
#X connect 5 0 6 1;
#X connect 7 0 0 0;
#X restore 40 153 pd rainbow background;
#X floatatom 128 232 5 0 0 0 - - -;
#X obj 197 184 line;
#X obj 197 124 tgl 15 0 empty empty empty 17 7 0 10 -262144 -1 -1 0
1;
#X msg 197 152 \$1 1000;
#X obj 197 59 tgl 15 0 empty empty empty 17 7 0 10 -262144 -1 -1 0
1;
#X obj 197 87 metro 2000;
#N canvas 485 145 368 610 unicorn 0;
#X obj 52 523 square 0.5;
#X obj 73 17 inlet;
#X obj 52 329 colorRGB 1 0 1;
#X obj 274 131 inlet;
#X obj 52 290 gemlist;
#X obj 73 93 t a a;
#X obj 73 130 route gem_state;
#X obj 73 171 route float;
#X msg 180 207 4;
#X obj 180 244 until;
#X obj 52 407 GEMglPushMatrix;
#X obj 52 561 GEMglPopMatrix;
#X obj 52 367 translateXYZ -1 1 0;
#X obj 52 445 rotateXYZ 0 0 60;
#X obj 73 57 translateXYZ 2.5 -2.5 0;
#X obj 274 367 * 90;
#X obj 52 484 scaleXYZ 1;
#X connect 0 0 11 0;
#X connect 1 0 14 0;
#X connect 2 0 12 0;
#X connect 3 0 12 3;
#X connect 3 0 15 0;
#X connect 4 0 2 0;
#X connect 5 0 6 0;
#X connect 5 1 4 1;
#X connect 6 0 7 0;
#X connect 7 1 8 0;
#X connect 8 0 9 0;
#X connect 9 0 4 0;
#X connect 10 0 13 0;
#X connect 12 0 10 0;
#X connect 13 0 16 0;
#X connect 14 0 5 0;
#X connect 15 0 13 3;
#X connect 16 0 0 0;
#X restore 41 264 pd unicorn line;
#N canvas 373 23 621 712 unicorn 0;
#X obj 36 35 gemhead;
#X obj 214 487 hsl 128 15 0 1 0 0 empty empty empty -2 -8 0 10 -261234
-1 -1 6000 1;
#X obj 214 510 hsl 128 15 0 1 0 0 empty empty empty -2 -8 0 10 -204786
-1 -1 4200 1;
#X obj 214 534 hsl 128 15 0 1 0 0 empty empty empty -2 -8 0 10 -203904
-1 -1 11700 1;
#X obj 214 559 hsl 128 15 0 1 0 0 empty empty empty -2 -8 0 10 -262144
-1 -1 12700 1;
#X obj 36 77 alpha;
#X msg 263 428 1 2000;
#X msg 211 428 0 500;
#X obj 211 459 line;
#X obj 36 187 pix_texture;
#X obj 36 154 pix_image;
#X msg 84 115 open Arabian_Unicorn_-_Light_Gray.png;
#X obj 36 629 square 2;
#X obj 84 78 loadbang;
#X floatatom 59 368 5 0 0 0 - - -;
#X obj 336 32 adc~;
#X obj 336 85 env~;
#X floatatom 336 115 5 0 0 0 - - -;
#X floatatom 381 197 5 0 0 0 - - -;
#X obj 486 115 sigmund~ pitch;
#X floatatom 486 149 5 0 0 0 - - -;
#X obj 486 179 mtof;
#X obj 336 144 moses 60;
#X obj 381 172 / 10;
#X obj 36 405 translateXYZ;
#X obj 381 223 + -8;
#X obj 486 275 line;
#X msg 486 238 -2 500;
#X msg 543 238 2 500;
#X obj 486 208 moses 1500;
#X obj 381 280 line;
#X msg 381 250 \$1 200;
#X obj 36 559 scaleXYZ;
#X floatatom 51 520 5 0 0 0 - - -;
#X obj 51 492 line;
#X msg 51 458 10 1000;
#X msg 138 458 1 500;
#X obj 36 255 GEMglPushMatrix;
#X obj 36 667 GEMglPopMatrix;
#X obj 63 222 outlet;
#X text 57 431 animate stretch;
#X text 207 402 animate color;
#X text 349 558 alpha;
#X text 112 223 texture value out;
#X text 396 25 animate X pos based on mic loudness;
#X text 397 52 animate Y pos based on mic pitch;
#X obj 36 596 colorRGB 1 1 1;
#X connect 0 0 5 0;
#X connect 1 0 46 1;
#X connect 2 0 46 2;
#X connect 3 0 46 3;
#X connect 4 0 46 4;
#X connect 5 0 10 0;
#X connect 6 0 8 0;
#X connect 7 0 8 0;
#X connect 8 0 1 0;
#X connect 9 0 37 0;
#X connect 9 0 39 0;
#X connect 10 0 9 0;
#X connect 11 0 10 0;
#X connect 12 0 38 0;
#X connect 13 0 11 0;
#X connect 14 0 24 1;
#X connect 15 0 16 0;
#X connect 15 0 19 0;
#X connect 16 0 17 0;
#X connect 17 0 22 0;
#X connect 18 0 25 0;
#X connect 19 0 20 0;
#X connect 20 0 21 0;
#X connect 21 0 29 0;
#X connect 22 1 23 0;
#X connect 23 0 18 0;
#X connect 24 0 32 0;
#X connect 25 0 31 0;
#X connect 26 0 24 2;
#X connect 27 0 26 0;
#X connect 28 0 26 0;
#X connect 29 0 27 0;
#X connect 29 1 28 0;
#X connect 30 0 14 0;
#X connect 31 0 30 0;
#X connect 32 0 46 0;
#X connect 33 0 32 1;
#X connect 34 0 33 0;
#X connect 35 0 34 0;
#X connect 36 0 34 0;
#X connect 37 0 24 0;
#X connect 46 0 12 0;
#X restore 41 196 pd unicorn;
#X text 172 233 animation value 0-1;
#X connect 1 0 0 0;
#X connect 2 0 0 0;
#X connect 5 0 11 1;
#X connect 6 0 5 0;
#X connect 7 0 8 0;
#X connect 8 0 6 0;
#X connect 9 0 10 0;
#X connect 10 0 7 0;
#X connect 12 0 11 0;
