#N canvas 0 22 501 384 10;
#X obj 51 57 key;
#X floatatom 51 95 5 0 0 0 - - -;
#X obj 110 56 keyup;
#X floatatom 110 96 5 0 0 0 - - -;
#X obj 261 53 keyname;
#X symbolatom 300 81 10 0 0 0 - - -;
#X floatatom 261 106 5 0 0 0 - - -;
#X text 35 16 Getting the keyboard:;
#X text 30 180 Getting the mouse:;
#X obj 48 211 MouseState;
#X obj 48 355 tgl 15 0 empty empty empty 0 -6 0 8 -262144 -1 -1 0 1
;
#X floatatom 76 299 5 0 0 0 - - -;
#X text 102 328 x;
#X text 120 300 y;
#X floatatom 90 275 5 0 0 0 - - -;
#X text 138 276 delta x;
#X floatatom 105 246 5 0 0 0 - - -;
#X text 67 354 button pressed ? (one button of course \, mac you know)
;
#X text 146 245 delta y;
#X floatatom 62 326 5 0 0 0 - - -;
#X text 300 107 pressed?;
#X text 372 82 keyname as a symbol;
#X text 47 138 see http://www.asciitable.com/;
#X text 47 123 ascii keycodes;
#X connect 0 0 1 0;
#X connect 2 0 3 0;
#X connect 4 0 6 0;
#X connect 4 1 5 0;
#X connect 9 0 10 0;
#X connect 9 1 19 0;
#X connect 9 2 11 0;
#X connect 9 3 14 0;
#X connect 9 4 16 0;
