#N canvas 441 103 503 428 10;
#X declare -lib cyclone;
#X obj 41 57 key;
#X floatatom 41 95 5 0 0 0 - - -, f 5;
#X obj 100 56 keyup;
#X floatatom 100 96 5 0 0 0 - - -, f 5;
#X obj 251 53 keyname;
#X symbolatom 290 81 10 0 0 0 - - -, f 10;
#X floatatom 251 106 5 0 0 0 - - -, f 5;
#X text 25 16 Getting the keyboard:;
#X text 20 180 Getting the mouse:;
#X obj 38 385 tgl 15 0 empty empty empty 0 -6 0 8 -262144 -1 -1 0 1
;
#X floatatom 66 329 5 0 0 0 - - -, f 5;
#X text 92 358 x;
#X text 110 330 y;
#X floatatom 80 305 5 0 0 0 - - -, f 5;
#X text 128 306 delta x;
#X floatatom 95 276 5 0 0 0 - - -, f 5;
#X text 57 384 button pressed ? (one button of course \, mac you know)
;
#X text 136 275 delta y;
#X floatatom 52 356 5 0 0 0 - - -, f 5;
#X text 290 107 pressed?;
#X text 362 82 keyname as a symbol;
#X text 37 123 ascii keycodes;
#X obj 340 239 declare -lib cyclone;
#X text 111 240 <- part of the cyclone library;
#X text 37 138 see http://www.asciitable.com;
#X text 195 178 install cyclone using deken: Help->Find externals;
#X msg 38 205 poll;
#X msg 87 205 nopoll;
#X obj 38 242 MouseState;
#X text 196 195 make sure to add the path to the cyclone lib in;
#X text 195 212 Preferences->Path.. & reload this patch;
#X connect 0 0 1 0;
#X connect 2 0 3 0;
#X connect 4 0 6 0;
#X connect 4 1 5 0;
#X connect 26 0 28 0;
#X connect 27 0 28 0;
#X connect 28 0 9 0;
#X connect 28 1 18 0;
#X connect 28 2 10 0;
#X connect 28 3 13 0;
#X connect 28 4 15 0;
