#N canvas 811 41 292 386 10;
#X obj 15 17 inlet;
#X obj 110 326 spigot;
#X obj 110 251 pack f f;
#X obj 110 193 notein \$1;
#N canvas 1104 213 450 300 save 0;
#X obj 50 24 inlet;
#X obj 114 71 unpack f f;
#X obj 171 101 moses 1;
#X obj 99 199 f;
#X obj 114 161 spigot;
#X msg 171 130 1;
#X msg 210 132 0;
#X obj 50 53 t a a;
#X obj 249 22 inlet;
#X msg 249 51 bang;
#X text 297 51 send out note off;
#X msg 99 228 \$1 0;
#X obj 50 265 outlet;
#X text 147 200 save last triggered note;
#X text 150 234 can send note off to avoid stuck notes;
#X connect 0 0 7 0;
#X connect 1 0 4 0;
#X connect 1 1 2 0;
#X connect 2 0 5 0;
#X connect 2 1 6 0;
#X connect 3 0 11 0;
#X connect 4 0 3 1;
#X connect 5 0 4 1;
#X connect 6 0 4 1;
#X connect 6 0 3 1;
#X connect 7 0 12 0;
#X connect 7 1 1 0;
#X connect 8 0 9 0;
#X connect 9 0 3 0;
#X connect 11 0 12 0;
#X restore 110 281 pd save last triggered note;
#X obj 15 54 routeOSC /\$1;
#X obj 15 120 routeOSC /playing /amp;
#X obj 15 149 sel 0;
#X msg 15 173 0;
#X msg 53 174 1;
#X obj 161 221 * 1;
#X obj 176 167 route float;
#X obj 110 355 noteout \$1;
#X obj 84 84 outlet;
#X obj 176 192 clip 0 2;
#X connect 0 0 5 0;
#X connect 1 0 12 0;
#X connect 2 0 4 0;
#X connect 3 0 2 0;
#X connect 3 1 10 0;
#X connect 4 0 1 0;
#X connect 5 0 6 0;
#X connect 5 1 13 0;
#X connect 6 0 7 0;
#X connect 6 1 11 0;
#X connect 7 0 8 0;
#X connect 7 1 9 0;
#X connect 8 0 1 1;
#X connect 8 0 4 1;
#X connect 9 0 1 1;
#X connect 10 0 2 1;
#X connect 11 0 14 0;
#X connect 14 0 10 1;
