#N canvas 953 220 406 391 10;
#X declare -lib mrpeach -path ../../externals/rc-pacthes;
#X obj -52 67 unpackOSC;
#X obj -52 36 udpreceive 8080;
#X obj -52 126 routeOSC /player;
#X obj -52 95 routeOSC /pd;
#X obj -52 198 symbol;
#X msg -52 227 load \$1;
#X msg 9 210 1;
#X msg 47 209 0;
#X obj 259 186 channel 1;
#N canvas 710 379 300 180 forward 0;
#X obj 32 37 inlet raw midi;
#X obj 32 81 rc-notein;
#X obj 157 80 rc-ctlin;
#X obj 32 110 pack f f f;
#X obj 157 110 pack f f f;
#X text 15 8 forward raw midi to global midi objects;
#X msg 32 142 \; #notein \$1 \$2 \$3;
#X msg 157 141 \; #ctlin \$1 \$2 \$3;
#X connect 0 0 1 0;
#X connect 0 0 2 0;
#X connect 1 0 3 0;
#X connect 1 1 3 1;
#X connect 1 2 3 2;
#X connect 2 0 4 0;
#X connect 2 1 4 1;
#X connect 2 2 4 2;
#X connect 3 0 6 0;
#X connect 4 0 7 0;
#X restore -23 336 pd forward midi;
#N canvas 650 189 348 86 externals 0;
#X text 10 11 add external libraries and paths;
#X obj 14 41 declare -lib mrpeach -path ../../externals/rc-pacthes
;
#X restore 238 39 pd externals;
#X obj 70 99 spigot;
#X obj 103 72 tgl 15 0 empty empty debug_OSC 17 7 0 10 -262144 -1 -1
0 1;
#X obj 70 126 print OSC;
#X obj 259 211 channel 2;
#X obj 259 236 channel 3;
#X obj 259 261 channel 4;
#X obj 259 287 channel 5;
#X obj 259 313 channel 6;
#X obj 259 339 channel 7;
#X obj 259 364 channel 8;
#N canvas 131 369 379 298 midifile 0;
#X obj 18 163 metro 2;
#X obj 18 16 inlet;
#X obj 55 83 rc-filename;
#X msg 55 111 read \$1;
#X obj 18 209 mrpeach/midifile;
#X obj 18 80 tgl 15 0 empty empty empty 17 7 0 10 -262144 -1 -1 1 1
;
#X obj 111 238 route bang;
#X msg 111 266 0;
#X text 143 269 loop;
#X obj 18 263 outlet;
#N canvas 126 213 280 208 bpm2miditick 0;
#X obj 43 30 inlet;
#X obj 43 153 outlet;
#X text 161 67 1 tick = 768 ms;
#X obj 43 75 expr 60000 / $f1;
#X obj 43 109 / 192;
#X connect 0 0 3 0;
#X connect 3 0 4 0;
#X connect 4 0 1 0;
#X restore 183 98 pd bpm2miditick;
#X obj 299 96 sel 0;
#X msg 299 122 0;
#X msg 334 122 1;
#X obj 88 177 spigot;
#X obj 237 38 loadbang;
#X msg 237 62 120;
#X obj 18 48 route float load bpm loop rewind;
#X msg 134 99 rewind;
#X text 70 12 simple wrapper around [midifile];
#X connect 0 0 4 0;
#X connect 1 0 17 0;
#X connect 2 0 3 0;
#X connect 3 0 4 0;
#X connect 4 0 9 0;
#X connect 4 2 6 0;
#X connect 5 0 0 0;
#X connect 6 0 7 0;
#X connect 7 0 14 0;
#X connect 10 0 0 1;
#X connect 11 0 12 0;
#X connect 11 1 13 0;
#X connect 12 0 14 1;
#X connect 13 0 14 1;
#X connect 14 0 4 0;
#X connect 15 0 16 0;
#X connect 15 0 13 0;
#X connect 16 0 10 0;
#X connect 17 0 5 0;
#X connect 17 1 2 0;
#X connect 17 2 10 0;
#X connect 17 3 11 0;
#X connect 17 4 18 0;
#X connect 18 0 4 0;
#X restore -23 290 pd midifile;
#X obj -52 157 routeOSC /load /play /stop /bpm /loop /rewind /channel
;
#X msg 85 209 bpm \$1;
#X msg 139 209 loop \$1;
#X msg 202 210 rewind;
#X text -55 7 OSCMidiPlayer: plays a midi file with toggleable channels
;
#N canvas 635 165 419 271 OSC 0;
#X text 26 55 /pd/player/play - start playing;
#X text 26 75 /pd/player/stop - stop playing;
#X text 26 99 /pd/player/bpm int - set playback speed in beats per
minute;
#X text 27 122 /pd/player/loop bool - enable/disable looping;
#X text 26 34 /pd/player/load <string> - load a midi file;
#X text 26 146 /pd/player/rewind - rewind to begining of fle;
#X text 13 11 player controls;
#X text 10 177 midi channel controls (# - midi channel 1-8);
#X text 27 205 /pd/player/channel/#/playing bool - enable/disable playback
;
#X text 27 227 /pd/player/channel/#/amp float (0-1) - set amplitude
scaling;
#X restore 112 364 pd OSC message notes;
#X text -25 363 open me for notes -->;
#X text 50 35 <-- listening OSC port;
#X text 141 260 midi channels -->;
#X obj 79 310 spigot;
#X obj 79 336 print MIDI;
#X obj 112 288 tgl 15 0 empty empty debug_MIDI 17 7 0 10 -262144 -1
-1 0 1;
#X connect 0 0 3 0;
#X connect 0 0 11 0;
#X connect 1 0 0 0;
#X connect 2 0 22 0;
#X connect 3 0 2 0;
#X connect 4 0 5 0;
#X connect 5 0 21 0;
#X connect 6 0 21 0;
#X connect 7 0 21 0;
#X connect 8 0 14 0;
#X connect 11 0 13 0;
#X connect 12 0 11 1;
#X connect 14 0 15 0;
#X connect 15 0 16 0;
#X connect 16 0 17 0;
#X connect 17 0 18 0;
#X connect 18 0 19 0;
#X connect 19 0 20 0;
#X connect 21 0 31 0;
#X connect 21 0 9 0;
#X connect 22 0 4 0;
#X connect 22 1 6 0;
#X connect 22 2 7 0;
#X connect 22 3 23 0;
#X connect 22 4 24 0;
#X connect 22 5 25 0;
#X connect 22 6 8 0;
#X connect 23 0 21 0;
#X connect 24 0 21 0;
#X connect 25 0 21 0;
#X connect 31 0 32 0;
#X connect 33 0 31 1;
