#N canvas 174 261 963 479 10;
#X declare -lib mrpeach;
#X obj 279 447 udpsend;
#X msg 38 86 /pd/player/play;
#X msg 71 120 /pd/player/stop;
#X msg 351 393 connect 127.0.0.1 8080;
#X msg 368 420 disconnect;
#X obj 433 76 tgl 15 0 empty empty empty 17 7 0 10 -262144 -1 -1 0
1;
#N canvas 650 189 242 93 externals 0;
#X text 10 11 add external libraries and paths;
#X obj 38 41 declare -lib mrpeach;
#X restore 840 14 pd externals;
#X msg 18 44 /pd/player/load \$1;
#X msg 18 15 symbol Fugue.mid;
#X msg 433 147 /pd/player/channel/\$1/playing \$2;
#X msg 433 103 1 \$1;
#X obj 471 76 tgl 15 0 empty empty empty 17 7 0 10 -262144 -1 -1 0
1;
#X obj 508 76 tgl 15 0 empty empty empty 17 7 0 10 -262144 -1 -1 0
1;
#X obj 547 76 tgl 15 0 empty empty empty 17 7 0 10 -262144 -1 -1 0
1;
#X msg 547 103 4 \$1;
#X msg 508 103 3 \$1;
#X msg 471 103 2 \$1;
#X obj 586 76 tgl 15 0 empty empty empty 17 7 0 10 -262144 -1 -1 0
1;
#X obj 624 76 tgl 15 0 empty empty empty 17 7 0 10 -262144 -1 -1 0
1;
#X obj 661 76 tgl 15 0 empty empty empty 17 7 0 10 -262144 -1 -1 0
1;
#X obj 700 76 tgl 15 0 empty empty empty 17 7 0 10 -262144 -1 -1 0
1;
#X msg 586 103 5 \$1;
#X msg 624 103 6 \$1;
#X msg 661 103 7 \$1;
#X msg 700 103 8 \$1;
#X msg 164 279 /pd/player/bpm \$1;
#X obj 167 251 hsl 128 15 80 200 0 0 empty empty empty -2 -8 0 10 -262144
-1 -1 0 1;
#X text 502 393 <-- connect first;
#X obj 351 364 loadbang;
#X text 130 13 load a midi file;
#X text 192 117 playback control;
#X text 642 145 enable/disable channels;
#X msg 563 203 1 \$1;
#X msg 726 204 4 \$1;
#X msg 671 204 3 \$1;
#X msg 617 204 2 \$1;
#X obj 563 180 nbx 4 14 0 1 0 0 empty empty empty 0 -8 0 10 -262144
-1 -1 0 256;
#X obj 617 181 nbx 4 14 0 1 0 0 empty empty empty 0 -8 0 10 -262144
-1 -1 0 256;
#X obj 671 180 nbx 4 14 0 1 0 0 empty empty empty 0 -8 0 10 -262144
-1 -1 0 256;
#X obj 726 180 nbx 4 14 0 1 0 0 empty empty empty 0 -8 0 10 -262144
-1 -1 0 256;
#X msg 563 247 /pd/player/channel/\$1/amp \$2;
#X msg 118 224 /pd/player/loop \$1;
#X obj 118 200 tgl 15 0 empty empty empty 17 7 0 10 -262144 -1 -1 1
1;
#X obj 20 322 s \$0-OSC;
#X obj 279 363 r \$0-OSC;
#X obj 279 393 packOSC;
#X obj 433 310 s \$0-OSC;
#X text 754 248 channel amplitude (0-1);
#X text 782 178 <-- hold shift when dragging;
#X text 480 44 midi channel controls (1-8);
#X text 280 279 playback speed;
#X msg 99 155 /pd/player/rewind;
#X connect 1 0 43 0;
#X connect 2 0 43 0;
#X connect 3 0 0 0;
#X connect 4 0 0 0;
#X connect 5 0 10 0;
#X connect 7 0 43 0;
#X connect 8 0 7 0;
#X connect 9 0 46 0;
#X connect 10 0 9 0;
#X connect 11 0 16 0;
#X connect 12 0 15 0;
#X connect 13 0 14 0;
#X connect 14 0 9 0;
#X connect 15 0 9 0;
#X connect 16 0 9 0;
#X connect 17 0 21 0;
#X connect 18 0 22 0;
#X connect 19 0 23 0;
#X connect 20 0 24 0;
#X connect 21 0 9 0;
#X connect 22 0 9 0;
#X connect 23 0 9 0;
#X connect 24 0 9 0;
#X connect 25 0 43 0;
#X connect 26 0 25 0;
#X connect 28 0 3 0;
#X connect 32 0 40 0;
#X connect 33 0 40 0;
#X connect 34 0 40 0;
#X connect 35 0 40 0;
#X connect 36 0 32 0;
#X connect 37 0 35 0;
#X connect 38 0 34 0;
#X connect 39 0 33 0;
#X connect 40 0 46 0;
#X connect 41 0 43 0;
#X connect 42 0 41 0;
#X connect 44 0 45 0;
#X connect 45 0 0 0;
#X connect 51 0 43 0;
